<svg xmlns="http://www.w3.org/2000/svg" xmlns:xlink="http://www.w3.org/1999/xlink" style="margin:auto;background:#ffffff;display:block;z-index:1;position:relative" width="1727" height="892" preserveAspectRatio="xMidYMid" viewBox="0 0 1727 892">
    <g transform="translate(1263.5,446) scale(1,1) translate(-863.5,-446)"><g transform="translate(1341.109197230486,75.52833141945848) scale(100)" opacity="0.4">
        <path d="M5.8631649999999995 0 C5.8631649999999995 1.3902349999999997 6.08684876977029 1.9089386727697402 5.391731269770291 3.112917499999999 S4.135561327230259 4.3825323365797875 2.9315825 5.077649836579788 S1.390235 6.225834999999999 3.8122244523847804e-16 6.225834999999999 S-1.7276036727697395 5.772767336579787 -2.9315824999999984 5.077649836579788 S-4.6966137697702885 4.3168963272302605 -5.391731269770289 3.112917500000002 S-5.8631649999999995 1.3902350000000003 -5.8631649999999995 7.180306250122791e-16 S-6.08684876977029 -1.9089386727697388 -5.391731269770291 -3.112917499999998 S-4.135561327230261 -4.382532336579786 -2.9315825000000024 -5.077649836579786 S-1.3902350000000008 -6.225834999999999 -1.1436673357154341e-15 -6.225834999999999 S1.7276036727697364 -5.77276733657979 2.9315824999999958 -5.07764983657979 S4.696613769770288 -4.3168963272302605 5.391731269770288 -3.1129175000000022 S5.8631649999999995 -1.390235000000001 5.8631649999999995 -1.4360612500245581e-15" fill="#ff4162" stroke-width="0">
            <animateTransform attributeName="transform" type="rotate" dur="10s" repeatCount="indefinite" values="0;60"></animateTransform>
        </path>
    </g><g transform="translate(1636.6310366765833,1.433997703350144) scale(100)" opacity="0.4">
        <path d="M7.035797999999999 0 C7.035797999999999 1.6682819999999996 7.304218523724349 2.290726407323689 6.470077523724349 3.7355009999999993 S4.96267359267631 5.259038803895745 3.5178990000000003 6.093179803895745 S1.668282 7.4710019999999995 4.574669342861736e-16 7.4710019999999995 S-2.0731244073236867 6.9273208038957454 -3.5178989999999977 6.093179803895746 S-5.635936523724347 5.180275592676312 -6.470077523724347 3.7355010000000024 S-7.035797999999999 1.6682820000000005 -7.035797999999999 8.616367500147348e-16 S-7.30421852372435 -2.2907264073236866 -6.47007752372435 -3.7355009999999975 S-4.962673592676312 -5.259038803895742 -3.5178990000000026 -6.093179803895743 S-1.668282000000001 -7.4710019999999995 -1.372400802858521e-15 -7.4710019999999995 S2.073124407323683 -6.927320803895746 3.5178989999999946 -6.093179803895747 S5.635936523724346 -5.180275592676313 6.470077523724346 -3.735501000000003 S7.035797999999999 -1.6682820000000014 7.035797999999999 -1.7232735000294695e-15" fill="#d1304c" stroke-width="0">
            <animateTransform attributeName="transform" type="rotate" dur="5s" repeatCount="indefinite" values="0;60"></animateTransform>
        </path>
    </g><g transform="translate(1865.8834513472166,-176.39240321530974) scale(100)" opacity="0.4">
        <path d="M9.850117199999998 0 C9.850117199999998 2.3355947999999995 10.225905933214086 3.207016970253163 9.058108533214087 5.229701399999998 S6.947743029746834 7.3626543254540415 4.9250586 8.530451725454041 S2.3355948 10.459402799999998 6.404537080006431e-16 10.459402799999998 S-2.9023741702531622 9.698249125454042 -4.925058599999997 8.530451725454043 S-7.890311133214085 7.252385829746837 -9.058108533214085 5.229701400000002 S-9.850117199999998 2.335594800000001 -9.850117199999998 1.2062914500206286e-15 S-10.225905933214088 -3.207016970253161 -9.058108533214089 -5.229701399999996 S-6.947743029746837 -7.362654325454038 -4.925058600000003 -8.53045172545404 S-2.3355948000000013 -10.459402799999998 -1.921361124001929e-15 -10.459402799999998 S2.902374170253157 -9.698249125454044 4.925058599999993 -8.530451725454046 S7.890311133214082 -7.252385829746837 9.058108533214083 -5.229701400000003 S9.850117199999998 -2.3355948000000017 9.850117199999998 -2.412582900041257e-15" fill="#c70c2c" stroke-width="0">
            <animateTransform attributeName="transform" type="rotate" dur="3.3333333333333335s" repeatCount="indefinite" values="0;60"></animateTransform>
        </path>
    </g></g>
</svg>