<svg xmlns="http://www.w3.org/2000/svg" xmlns:xlink="http://www.w3.org/1999/xlink" style="margin:auto;background:#ffffff;display:block;z-index:1;position:relative" width="2687" height="1291" preserveAspectRatio="xMidYMid" viewBox="0 0 2687 1291">
    <g transform="translate(1343.5,645.5) scale(1,1) translate(-1343.5,-645.5)"><g transform="translate(-100 661.3462741194354) rotate(0)">
        <animateTransform attributeName="transform" type="translate" keyTimes="0;1" values="-100 661.3462741194354;2687 661.3462741194354" dur="500s" repeatCount="indefinite" begin="-364.7516803146249s"></animateTransform>
        <path d="M84.717,33.597c0.791-2.503,1.186-5.138,1.186-7.773C85.903,11.594,74.308,0,60.079,0 c-9.881,0-18.445,5.534-22.793,13.702c-1.581-0.527-3.426-0.791-5.138-0.791c-9.486,0-17.128,7.642-17.128,17.128 c0,1.186,0.132,2.372,0.395,3.426C6.719,34.783,0,42.424,0,51.515C0,61.66,8.169,69.829,18.314,69.829h63.373 C91.831,69.829,100,61.66,100,51.515C99.868,42.556,93.281,35.046,84.717,33.597z" fill="#ffc46c" transform="scale(0.55)"></path>
    </g><g transform="translate(-100 890.6435635947457) rotate(0)">
        <animateTransform attributeName="transform" type="translate" keyTimes="0;1" values="-100 890.6435635947457;2687 890.6435635947457" dur="500s" repeatCount="indefinite" begin="-440.4033665644439s"></animateTransform>
        <path d="M84.717,33.597c0.791-2.503,1.186-5.138,1.186-7.773C85.903,11.594,74.308,0,60.079,0 c-9.881,0-18.445,5.534-22.793,13.702c-1.581-0.527-3.426-0.791-5.138-0.791c-9.486,0-17.128,7.642-17.128,17.128 c0,1.186,0.132,2.372,0.395,3.426C6.719,34.783,0,42.424,0,51.515C0,61.66,8.169,69.829,18.314,69.829h63.373 C91.831,69.829,100,61.66,100,51.515C99.868,42.556,93.281,35.046,84.717,33.597z" fill="#ffc46c" transform="scale(0.55)"></path>
    </g><g transform="translate(-100 517.2424062327766) rotate(0)">
        <animateTransform attributeName="transform" type="translate" keyTimes="0;1" values="-100 517.2424062327766;2687 517.2424062327766" dur="500s" repeatCount="indefinite" begin="-480.20696057960623s"></animateTransform>
        <path d="M84.717,33.597c0.791-2.503,1.186-5.138,1.186-7.773C85.903,11.594,74.308,0,60.079,0 c-9.881,0-18.445,5.534-22.793,13.702c-1.581-0.527-3.426-0.791-5.138-0.791c-9.486,0-17.128,7.642-17.128,17.128 c0,1.186,0.132,2.372,0.395,3.426C6.719,34.783,0,42.424,0,51.515C0,61.66,8.169,69.829,18.314,69.829h63.373 C91.831,69.829,100,61.66,100,51.515C99.868,42.556,93.281,35.046,84.717,33.597z" fill="#ffc46c" transform="scale(0.55)"></path>
    </g><g transform="translate(-100 302.840192151555) rotate(0)">
        <animateTransform attributeName="transform" type="translate" keyTimes="0;1" values="-100 302.840192151555;2687 302.840192151555" dur="500s" repeatCount="indefinite" begin="-282.99037907473s"></animateTransform>
        <path d="M84.717,33.597c0.791-2.503,1.186-5.138,1.186-7.773C85.903,11.594,74.308,0,60.079,0 c-9.881,0-18.445,5.534-22.793,13.702c-1.581-0.527-3.426-0.791-5.138-0.791c-9.486,0-17.128,7.642-17.128,17.128 c0,1.186,0.132,2.372,0.395,3.426C6.719,34.783,0,42.424,0,51.515C0,61.66,8.169,69.829,18.314,69.829h63.373 C91.831,69.829,100,61.66,100,51.515C99.868,42.556,93.281,35.046,84.717,33.597z" fill="#ffc46c" transform="scale(0.55)"></path>
    </g><g transform="translate(-100 298.45597737381667) rotate(0)">
        <animateTransform attributeName="transform" type="translate" keyTimes="0;1" values="-100 298.45597737381667;2687 298.45597737381667" dur="500s" repeatCount="indefinite" begin="-111.55244505218343s"></animateTransform>
        <path d="M84.717,33.597c0.791-2.503,1.186-5.138,1.186-7.773C85.903,11.594,74.308,0,60.079,0 c-9.881,0-18.445,5.534-22.793,13.702c-1.581-0.527-3.426-0.791-5.138-0.791c-9.486,0-17.128,7.642-17.128,17.128 c0,1.186,0.132,2.372,0.395,3.426C6.719,34.783,0,42.424,0,51.515C0,61.66,8.169,69.829,18.314,69.829h63.373 C91.831,69.829,100,61.66,100,51.515C99.868,42.556,93.281,35.046,84.717,33.597z" fill="#ffc46c" transform="scale(0.55)"></path>
    </g><g transform="translate(-100 485.5688874967889) rotate(0)">
        <animateTransform attributeName="transform" type="translate" keyTimes="0;1" values="-100 485.5688874967889;2687 485.5688874967889" dur="500s" repeatCount="indefinite" begin="-132.53688696918576s"></animateTransform>
        <path d="M84.717,33.597c0.791-2.503,1.186-5.138,1.186-7.773C85.903,11.594,74.308,0,60.079,0 c-9.881,0-18.445,5.534-22.793,13.702c-1.581-0.527-3.426-0.791-5.138-0.791c-9.486,0-17.128,7.642-17.128,17.128 c0,1.186,0.132,2.372,0.395,3.426C6.719,34.783,0,42.424,0,51.515C0,61.66,8.169,69.829,18.314,69.829h63.373 C91.831,69.829,100,61.66,100,51.515C99.868,42.556,93.281,35.046,84.717,33.597z" fill="#ffc46c" transform="scale(0.55)"></path>
    </g><g transform="translate(-100 207.69093544993714) rotate(0)">
        <animateTransform attributeName="transform" type="translate" keyTimes="0;1" values="-100 207.69093544993714;2687 207.69093544993714" dur="500s" repeatCount="indefinite" begin="-44.12236332709929s"></animateTransform>
        <path d="M84.717,33.597c0.791-2.503,1.186-5.138,1.186-7.773C85.903,11.594,74.308,0,60.079,0 c-9.881,0-18.445,5.534-22.793,13.702c-1.581-0.527-3.426-0.791-5.138-0.791c-9.486,0-17.128,7.642-17.128,17.128 c0,1.186,0.132,2.372,0.395,3.426C6.719,34.783,0,42.424,0,51.515C0,61.66,8.169,69.829,18.314,69.829h63.373 C91.831,69.829,100,61.66,100,51.515C99.868,42.556,93.281,35.046,84.717,33.597z" fill="#ffc46c" transform="scale(0.55)"></path>
    </g><g transform="translate(-100 821.6918220117974) rotate(0)">
        <animateTransform attributeName="transform" type="translate" keyTimes="0;1" values="-100 821.6918220117974;2687 821.6918220117974" dur="500s" repeatCount="indefinite" begin="-339.18279480128666s"></animateTransform>
        <path d="M84.717,33.597c0.791-2.503,1.186-5.138,1.186-7.773C85.903,11.594,74.308,0,60.079,0 c-9.881,0-18.445,5.534-22.793,13.702c-1.581-0.527-3.426-0.791-5.138-0.791c-9.486,0-17.128,7.642-17.128,17.128 c0,1.186,0.132,2.372,0.395,3.426C6.719,34.783,0,42.424,0,51.515C0,61.66,8.169,69.829,18.314,69.829h63.373 C91.831,69.829,100,61.66,100,51.515C99.868,42.556,93.281,35.046,84.717,33.597z" fill="#ffc46c" transform="scale(0.55)"></path>
    </g><g transform="translate(-100 707.6019376816049) rotate(0)">
        <animateTransform attributeName="transform" type="translate" keyTimes="0;1" values="-100 707.6019376816049;2687 707.6019376816049" dur="500s" repeatCount="indefinite" begin="-402.67252617737114s"></animateTransform>
        <path d="M84.717,33.597c0.791-2.503,1.186-5.138,1.186-7.773C85.903,11.594,74.308,0,60.079,0 c-9.881,0-18.445,5.534-22.793,13.702c-1.581-0.527-3.426-0.791-5.138-0.791c-9.486,0-17.128,7.642-17.128,17.128 c0,1.186,0.132,2.372,0.395,3.426C6.719,34.783,0,42.424,0,51.515C0,61.66,8.169,69.829,18.314,69.829h63.373 C91.831,69.829,100,61.66,100,51.515C99.868,42.556,93.281,35.046,84.717,33.597z" fill="#ffc46c" transform="scale(0.55)"></path>
    </g><g transform="translate(-100 64.4486193671553) rotate(0)">
        <animateTransform attributeName="transform" type="translate" keyTimes="0;1" values="-100 64.4486193671553;2687 64.4486193671553" dur="500s" repeatCount="indefinite" begin="-238.2382141123519s"></animateTransform>
        <path d="M84.717,33.597c0.791-2.503,1.186-5.138,1.186-7.773C85.903,11.594,74.308,0,60.079,0 c-9.881,0-18.445,5.534-22.793,13.702c-1.581-0.527-3.426-0.791-5.138-0.791c-9.486,0-17.128,7.642-17.128,17.128 c0,1.186,0.132,2.372,0.395,3.426C6.719,34.783,0,42.424,0,51.515C0,61.66,8.169,69.829,18.314,69.829h63.373 C91.831,69.829,100,61.66,100,51.515C99.868,42.556,93.281,35.046,84.717,33.597z" fill="#ffc46c" transform="scale(0.55)"></path>
    </g><g transform="translate(-100 659.9541126610042) rotate(0)">
        <animateTransform attributeName="transform" type="translate" keyTimes="0;1" values="-100 659.9541126610042;2687 659.9541126610042" dur="500s" repeatCount="indefinite" begin="-314.3498270939189s"></animateTransform>
        <path d="M84.717,33.597c0.791-2.503,1.186-5.138,1.186-7.773C85.903,11.594,74.308,0,60.079,0 c-9.881,0-18.445,5.534-22.793,13.702c-1.581-0.527-3.426-0.791-5.138-0.791c-9.486,0-17.128,7.642-17.128,17.128 c0,1.186,0.132,2.372,0.395,3.426C6.719,34.783,0,42.424,0,51.515C0,61.66,8.169,69.829,18.314,69.829h63.373 C91.831,69.829,100,61.66,100,51.515C99.868,42.556,93.281,35.046,84.717,33.597z" fill="#ffc46c" transform="scale(0.55)"></path>
    </g><g transform="translate(-100 1195.8864454357936) rotate(0)">
        <animateTransform attributeName="transform" type="translate" keyTimes="0;1" values="-100 1195.8864454357936;2687 1195.8864454357936" dur="500s" repeatCount="indefinite" begin="-371.97086469567466s"></animateTransform>
        <path d="M84.717,33.597c0.791-2.503,1.186-5.138,1.186-7.773C85.903,11.594,74.308,0,60.079,0 c-9.881,0-18.445,5.534-22.793,13.702c-1.581-0.527-3.426-0.791-5.138-0.791c-9.486,0-17.128,7.642-17.128,17.128 c0,1.186,0.132,2.372,0.395,3.426C6.719,34.783,0,42.424,0,51.515C0,61.66,8.169,69.829,18.314,69.829h63.373 C91.831,69.829,100,61.66,100,51.515C99.868,42.556,93.281,35.046,84.717,33.597z" fill="#ffc46c" transform="scale(0.55)"></path>
    </g><g transform="translate(-100 199.03490021497967) rotate(0)">
        <animateTransform attributeName="transform" type="translate" keyTimes="0;1" values="-100 199.03490021497967;2687 199.03490021497967" dur="500s" repeatCount="indefinite" begin="-345.75160332972575s"></animateTransform>
        <path d="M84.717,33.597c0.791-2.503,1.186-5.138,1.186-7.773C85.903,11.594,74.308,0,60.079,0 c-9.881,0-18.445,5.534-22.793,13.702c-1.581-0.527-3.426-0.791-5.138-0.791c-9.486,0-17.128,7.642-17.128,17.128 c0,1.186,0.132,2.372,0.395,3.426C6.719,34.783,0,42.424,0,51.515C0,61.66,8.169,69.829,18.314,69.829h63.373 C91.831,69.829,100,61.66,100,51.515C99.868,42.556,93.281,35.046,84.717,33.597z" fill="#ffc46c" transform="scale(0.55)"></path>
    </g><g transform="translate(-100 1020.5956806795558) rotate(0)">
        <animateTransform attributeName="transform" type="translate" keyTimes="0;1" values="-100 1020.5956806795558;2687 1020.5956806795558" dur="500s" repeatCount="indefinite" begin="-387.2715237967729s"></animateTransform>
        <path d="M84.717,33.597c0.791-2.503,1.186-5.138,1.186-7.773C85.903,11.594,74.308,0,60.079,0 c-9.881,0-18.445,5.534-22.793,13.702c-1.581-0.527-3.426-0.791-5.138-0.791c-9.486,0-17.128,7.642-17.128,17.128 c0,1.186,0.132,2.372,0.395,3.426C6.719,34.783,0,42.424,0,51.515C0,61.66,8.169,69.829,18.314,69.829h63.373 C91.831,69.829,100,61.66,100,51.515C99.868,42.556,93.281,35.046,84.717,33.597z" fill="#ffc46c" transform="scale(0.55)"></path>
    </g><g transform="translate(-100 695.3084393739074) rotate(0)">
        <animateTransform attributeName="transform" type="translate" keyTimes="0;1" values="-100 695.3084393739074;2687 695.3084393739074" dur="500s" repeatCount="indefinite" begin="-200.18203468698647s"></animateTransform>
        <path d="M84.717,33.597c0.791-2.503,1.186-5.138,1.186-7.773C85.903,11.594,74.308,0,60.079,0 c-9.881,0-18.445,5.534-22.793,13.702c-1.581-0.527-3.426-0.791-5.138-0.791c-9.486,0-17.128,7.642-17.128,17.128 c0,1.186,0.132,2.372,0.395,3.426C6.719,34.783,0,42.424,0,51.515C0,61.66,8.169,69.829,18.314,69.829h63.373 C91.831,69.829,100,61.66,100,51.515C99.868,42.556,93.281,35.046,84.717,33.597z" fill="#ffc46c" transform="scale(0.55)"></path>
    </g><g transform="translate(-100 229.19312205957067) rotate(0)">
        <animateTransform attributeName="transform" type="translate" keyTimes="0;1" values="-100 229.19312205957067;2687 229.19312205957067" dur="500s" repeatCount="indefinite" begin="-223.47268210023628s"></animateTransform>
        <path d="M84.717,33.597c0.791-2.503,1.186-5.138,1.186-7.773C85.903,11.594,74.308,0,60.079,0 c-9.881,0-18.445,5.534-22.793,13.702c-1.581-0.527-3.426-0.791-5.138-0.791c-9.486,0-17.128,7.642-17.128,17.128 c0,1.186,0.132,2.372,0.395,3.426C6.719,34.783,0,42.424,0,51.515C0,61.66,8.169,69.829,18.314,69.829h63.373 C91.831,69.829,100,61.66,100,51.515C99.868,42.556,93.281,35.046,84.717,33.597z" fill="#ffc46c" transform="scale(0.55)"></path>
    </g><g transform="translate(-100 20.893615249847528) rotate(0)">
        <animateTransform attributeName="transform" type="translate" keyTimes="0;1" values="-100 20.893615249847528;2687 20.893615249847528" dur="500s" repeatCount="indefinite" begin="-268.5886017584076s"></animateTransform>
        <path d="M84.717,33.597c0.791-2.503,1.186-5.138,1.186-7.773C85.903,11.594,74.308,0,60.079,0 c-9.881,0-18.445,5.534-22.793,13.702c-1.581-0.527-3.426-0.791-5.138-0.791c-9.486,0-17.128,7.642-17.128,17.128 c0,1.186,0.132,2.372,0.395,3.426C6.719,34.783,0,42.424,0,51.515C0,61.66,8.169,69.829,18.314,69.829h63.373 C91.831,69.829,100,61.66,100,51.515C99.868,42.556,93.281,35.046,84.717,33.597z" fill="#ffc46c" transform="scale(0.55)"></path>
    </g><g transform="translate(-100 8.938201007123066) rotate(0)">
        <animateTransform attributeName="transform" type="translate" keyTimes="0;1" values="-100 8.938201007123066;2687 8.938201007123066" dur="250s" repeatCount="indefinite" begin="-390.2768925321977s"></animateTransform>
        <path d="M84.717,33.597c0.791-2.503,1.186-5.138,1.186-7.773C85.903,11.594,74.308,0,60.079,0 c-9.881,0-18.445,5.534-22.793,13.702c-1.581-0.527-3.426-0.791-5.138-0.791c-9.486,0-17.128,7.642-17.128,17.128 c0,1.186,0.132,2.372,0.395,3.426C6.719,34.783,0,42.424,0,51.515C0,61.66,8.169,69.829,18.314,69.829h63.373 C91.831,69.829,100,61.66,100,51.515C99.868,42.556,93.281,35.046,84.717,33.597z" fill="#ff9f32" transform="scale(0.7)"></path>
    </g><g transform="translate(-100 1151.0082786585747) rotate(0)">
        <animateTransform attributeName="transform" type="translate" keyTimes="0;1" values="-100 1151.0082786585747;2687 1151.0082786585747" dur="250s" repeatCount="indefinite" begin="-207.33953989292843s"></animateTransform>
        <path d="M84.717,33.597c0.791-2.503,1.186-5.138,1.186-7.773C85.903,11.594,74.308,0,60.079,0 c-9.881,0-18.445,5.534-22.793,13.702c-1.581-0.527-3.426-0.791-5.138-0.791c-9.486,0-17.128,7.642-17.128,17.128 c0,1.186,0.132,2.372,0.395,3.426C6.719,34.783,0,42.424,0,51.515C0,61.66,8.169,69.829,18.314,69.829h63.373 C91.831,69.829,100,61.66,100,51.515C99.868,42.556,93.281,35.046,84.717,33.597z" fill="#ff9f32" transform="scale(0.7)"></path>
    </g><g transform="translate(-100 116.34677612288685) rotate(0)">
        <animateTransform attributeName="transform" type="translate" keyTimes="0;1" values="-100 116.34677612288685;2687 116.34677612288685" dur="250s" repeatCount="indefinite" begin="-33.303965370114156s"></animateTransform>
        <path d="M84.717,33.597c0.791-2.503,1.186-5.138,1.186-7.773C85.903,11.594,74.308,0,60.079,0 c-9.881,0-18.445,5.534-22.793,13.702c-1.581-0.527-3.426-0.791-5.138-0.791c-9.486,0-17.128,7.642-17.128,17.128 c0,1.186,0.132,2.372,0.395,3.426C6.719,34.783,0,42.424,0,51.515C0,61.66,8.169,69.829,18.314,69.829h63.373 C91.831,69.829,100,61.66,100,51.515C99.868,42.556,93.281,35.046,84.717,33.597z" fill="#ff9f32" transform="scale(0.7)"></path>
    </g><g transform="translate(-100 1044.1236484459107) rotate(0)">
        <animateTransform attributeName="transform" type="translate" keyTimes="0;1" values="-100 1044.1236484459107;2687 1044.1236484459107" dur="250s" repeatCount="indefinite" begin="-427.23867833407405s"></animateTransform>
        <path d="M84.717,33.597c0.791-2.503,1.186-5.138,1.186-7.773C85.903,11.594,74.308,0,60.079,0 c-9.881,0-18.445,5.534-22.793,13.702c-1.581-0.527-3.426-0.791-5.138-0.791c-9.486,0-17.128,7.642-17.128,17.128 c0,1.186,0.132,2.372,0.395,3.426C6.719,34.783,0,42.424,0,51.515C0,61.66,8.169,69.829,18.314,69.829h63.373 C91.831,69.829,100,61.66,100,51.515C99.868,42.556,93.281,35.046,84.717,33.597z" fill="#ff9f32" transform="scale(0.7)"></path>
    </g><g transform="translate(-100 203.42661893748482) rotate(0)">
        <animateTransform attributeName="transform" type="translate" keyTimes="0;1" values="-100 203.42661893748482;2687 203.42661893748482" dur="250s" repeatCount="indefinite" begin="-419.6446395380501s"></animateTransform>
        <path d="M84.717,33.597c0.791-2.503,1.186-5.138,1.186-7.773C85.903,11.594,74.308,0,60.079,0 c-9.881,0-18.445,5.534-22.793,13.702c-1.581-0.527-3.426-0.791-5.138-0.791c-9.486,0-17.128,7.642-17.128,17.128 c0,1.186,0.132,2.372,0.395,3.426C6.719,34.783,0,42.424,0,51.515C0,61.66,8.169,69.829,18.314,69.829h63.373 C91.831,69.829,100,61.66,100,51.515C99.868,42.556,93.281,35.046,84.717,33.597z" fill="#ff9f32" transform="scale(0.7)"></path>
    </g><g transform="translate(-100 672.2070023999138) rotate(0)">
        <animateTransform attributeName="transform" type="translate" keyTimes="0;1" values="-100 672.2070023999138;2687 672.2070023999138" dur="250s" repeatCount="indefinite" begin="-277.61072843877855s"></animateTransform>
        <path d="M84.717,33.597c0.791-2.503,1.186-5.138,1.186-7.773C85.903,11.594,74.308,0,60.079,0 c-9.881,0-18.445,5.534-22.793,13.702c-1.581-0.527-3.426-0.791-5.138-0.791c-9.486,0-17.128,7.642-17.128,17.128 c0,1.186,0.132,2.372,0.395,3.426C6.719,34.783,0,42.424,0,51.515C0,61.66,8.169,69.829,18.314,69.829h63.373 C91.831,69.829,100,61.66,100,51.515C99.868,42.556,93.281,35.046,84.717,33.597z" fill="#ff9f32" transform="scale(0.7)"></path>
    </g><g transform="translate(-100 864.2991670095236) rotate(0)">
        <animateTransform attributeName="transform" type="translate" keyTimes="0;1" values="-100 864.2991670095236;2687 864.2991670095236" dur="250s" repeatCount="indefinite" begin="-314.9664672385968s"></animateTransform>
        <path d="M84.717,33.597c0.791-2.503,1.186-5.138,1.186-7.773C85.903,11.594,74.308,0,60.079,0 c-9.881,0-18.445,5.534-22.793,13.702c-1.581-0.527-3.426-0.791-5.138-0.791c-9.486,0-17.128,7.642-17.128,17.128 c0,1.186,0.132,2.372,0.395,3.426C6.719,34.783,0,42.424,0,51.515C0,61.66,8.169,69.829,18.314,69.829h63.373 C91.831,69.829,100,61.66,100,51.515C99.868,42.556,93.281,35.046,84.717,33.597z" fill="#ff9f32" transform="scale(0.7)"></path>
    </g><g transform="translate(-100 63.4315118706) rotate(0)">
        <animateTransform attributeName="transform" type="translate" keyTimes="0;1" values="-100 63.4315118706;2687 63.4315118706" dur="250s" repeatCount="indefinite" begin="-341.43993629812786s"></animateTransform>
        <path d="M84.717,33.597c0.791-2.503,1.186-5.138,1.186-7.773C85.903,11.594,74.308,0,60.079,0 c-9.881,0-18.445,5.534-22.793,13.702c-1.581-0.527-3.426-0.791-5.138-0.791c-9.486,0-17.128,7.642-17.128,17.128 c0,1.186,0.132,2.372,0.395,3.426C6.719,34.783,0,42.424,0,51.515C0,61.66,8.169,69.829,18.314,69.829h63.373 C91.831,69.829,100,61.66,100,51.515C99.868,42.556,93.281,35.046,84.717,33.597z" fill="#ff9f32" transform="scale(0.7)"></path>
    </g><g transform="translate(-100 1028.2066477954468) rotate(0)">
        <animateTransform attributeName="transform" type="translate" keyTimes="0;1" values="-100 1028.2066477954468;2687 1028.2066477954468" dur="250s" repeatCount="indefinite" begin="-159.01737883469747s"></animateTransform>
        <path d="M84.717,33.597c0.791-2.503,1.186-5.138,1.186-7.773C85.903,11.594,74.308,0,60.079,0 c-9.881,0-18.445,5.534-22.793,13.702c-1.581-0.527-3.426-0.791-5.138-0.791c-9.486,0-17.128,7.642-17.128,17.128 c0,1.186,0.132,2.372,0.395,3.426C6.719,34.783,0,42.424,0,51.515C0,61.66,8.169,69.829,18.314,69.829h63.373 C91.831,69.829,100,61.66,100,51.515C99.868,42.556,93.281,35.046,84.717,33.597z" fill="#ff9f32" transform="scale(0.7)"></path>
    </g><g transform="translate(-100 639.8027764807849) rotate(0)">
        <animateTransform attributeName="transform" type="translate" keyTimes="0;1" values="-100 639.8027764807849;2687 639.8027764807849" dur="250s" repeatCount="indefinite" begin="-30.202023951102607s"></animateTransform>
        <path d="M84.717,33.597c0.791-2.503,1.186-5.138,1.186-7.773C85.903,11.594,74.308,0,60.079,0 c-9.881,0-18.445,5.534-22.793,13.702c-1.581-0.527-3.426-0.791-5.138-0.791c-9.486,0-17.128,7.642-17.128,17.128 c0,1.186,0.132,2.372,0.395,3.426C6.719,34.783,0,42.424,0,51.515C0,61.66,8.169,69.829,18.314,69.829h63.373 C91.831,69.829,100,61.66,100,51.515C99.868,42.556,93.281,35.046,84.717,33.597z" fill="#ff9f32" transform="scale(0.7)"></path>
    </g><g transform="translate(-100 1058.6019751016747) rotate(0)">
        <animateTransform attributeName="transform" type="translate" keyTimes="0;1" values="-100 1058.6019751016747;2687 1058.6019751016747" dur="250s" repeatCount="indefinite" begin="-133.03946506760732s"></animateTransform>
        <path d="M84.717,33.597c0.791-2.503,1.186-5.138,1.186-7.773C85.903,11.594,74.308,0,60.079,0 c-9.881,0-18.445,5.534-22.793,13.702c-1.581-0.527-3.426-0.791-5.138-0.791c-9.486,0-17.128,7.642-17.128,17.128 c0,1.186,0.132,2.372,0.395,3.426C6.719,34.783,0,42.424,0,51.515C0,61.66,8.169,69.829,18.314,69.829h63.373 C91.831,69.829,100,61.66,100,51.515C99.868,42.556,93.281,35.046,84.717,33.597z" fill="#ff9f32" transform="scale(0.7)"></path>
    </g><g transform="translate(-100 389.5135860672112) rotate(0)">
        <animateTransform attributeName="transform" type="translate" keyTimes="0;1" values="-100 389.5135860672112;2687 389.5135860672112" dur="250s" repeatCount="indefinite" begin="-107.22362312835698s"></animateTransform>
        <path d="M84.717,33.597c0.791-2.503,1.186-5.138,1.186-7.773C85.903,11.594,74.308,0,60.079,0 c-9.881,0-18.445,5.534-22.793,13.702c-1.581-0.527-3.426-0.791-5.138-0.791c-9.486,0-17.128,7.642-17.128,17.128 c0,1.186,0.132,2.372,0.395,3.426C6.719,34.783,0,42.424,0,51.515C0,61.66,8.169,69.829,18.314,69.829h63.373 C91.831,69.829,100,61.66,100,51.515C99.868,42.556,93.281,35.046,84.717,33.597z" fill="#ff9f32" transform="scale(0.7)"></path>
    </g><g transform="translate(-100 992.779660287079) rotate(0)">
        <animateTransform attributeName="transform" type="translate" keyTimes="0;1" values="-100 992.779660287079;2687 992.779660287079" dur="250s" repeatCount="indefinite" begin="-32.10728832655485s"></animateTransform>
        <path d="M84.717,33.597c0.791-2.503,1.186-5.138,1.186-7.773C85.903,11.594,74.308,0,60.079,0 c-9.881,0-18.445,5.534-22.793,13.702c-1.581-0.527-3.426-0.791-5.138-0.791c-9.486,0-17.128,7.642-17.128,17.128 c0,1.186,0.132,2.372,0.395,3.426C6.719,34.783,0,42.424,0,51.515C0,61.66,8.169,69.829,18.314,69.829h63.373 C91.831,69.829,100,61.66,100,51.515C99.868,42.556,93.281,35.046,84.717,33.597z" fill="#ff9f32" transform="scale(0.7)"></path>
    </g><g transform="translate(-100 240.38898384997327) rotate(0)">
        <animateTransform attributeName="transform" type="translate" keyTimes="0;1" values="-100 240.38898384997327;2687 240.38898384997327" dur="250s" repeatCount="indefinite" begin="-125.37277361946664s"></animateTransform>
        <path d="M84.717,33.597c0.791-2.503,1.186-5.138,1.186-7.773C85.903,11.594,74.308,0,60.079,0 c-9.881,0-18.445,5.534-22.793,13.702c-1.581-0.527-3.426-0.791-5.138-0.791c-9.486,0-17.128,7.642-17.128,17.128 c0,1.186,0.132,2.372,0.395,3.426C6.719,34.783,0,42.424,0,51.515C0,61.66,8.169,69.829,18.314,69.829h63.373 C91.831,69.829,100,61.66,100,51.515C99.868,42.556,93.281,35.046,84.717,33.597z" fill="#ff9f32" transform="scale(0.7)"></path>
    </g><g transform="translate(-100 883.8053284950439) rotate(0)">
        <animateTransform attributeName="transform" type="translate" keyTimes="0;1" values="-100 883.8053284950439;2687 883.8053284950439" dur="250s" repeatCount="indefinite" begin="-395.9040483007028s"></animateTransform>
        <path d="M84.717,33.597c0.791-2.503,1.186-5.138,1.186-7.773C85.903,11.594,74.308,0,60.079,0 c-9.881,0-18.445,5.534-22.793,13.702c-1.581-0.527-3.426-0.791-5.138-0.791c-9.486,0-17.128,7.642-17.128,17.128 c0,1.186,0.132,2.372,0.395,3.426C6.719,34.783,0,42.424,0,51.515C0,61.66,8.169,69.829,18.314,69.829h63.373 C91.831,69.829,100,61.66,100,51.515C99.868,42.556,93.281,35.046,84.717,33.597z" fill="#ff9f32" transform="scale(0.7)"></path>
    </g><g transform="translate(-100 526.1623647613573) rotate(0)">
        <animateTransform attributeName="transform" type="translate" keyTimes="0;1" values="-100 526.1623647613573;2687 526.1623647613573" dur="250s" repeatCount="indefinite" begin="-212.21573706532448s"></animateTransform>
        <path d="M84.717,33.597c0.791-2.503,1.186-5.138,1.186-7.773C85.903,11.594,74.308,0,60.079,0 c-9.881,0-18.445,5.534-22.793,13.702c-1.581-0.527-3.426-0.791-5.138-0.791c-9.486,0-17.128,7.642-17.128,17.128 c0,1.186,0.132,2.372,0.395,3.426C6.719,34.783,0,42.424,0,51.515C0,61.66,8.169,69.829,18.314,69.829h63.373 C91.831,69.829,100,61.66,100,51.515C99.868,42.556,93.281,35.046,84.717,33.597z" fill="#ff9f32" transform="scale(0.7)"></path>
    </g><g transform="translate(-100 258.37374844716345) rotate(0)">
        <animateTransform attributeName="transform" type="translate" keyTimes="0;1" values="-100 258.37374844716345;2687 258.37374844716345" dur="250s" repeatCount="indefinite" begin="-203.38433119771025s"></animateTransform>
        <path d="M84.717,33.597c0.791-2.503,1.186-5.138,1.186-7.773C85.903,11.594,74.308,0,60.079,0 c-9.881,0-18.445,5.534-22.793,13.702c-1.581-0.527-3.426-0.791-5.138-0.791c-9.486,0-17.128,7.642-17.128,17.128 c0,1.186,0.132,2.372,0.395,3.426C6.719,34.783,0,42.424,0,51.515C0,61.66,8.169,69.829,18.314,69.829h63.373 C91.831,69.829,100,61.66,100,51.515C99.868,42.556,93.281,35.046,84.717,33.597z" fill="#ff9f32" transform="scale(0.7)"></path>
    </g><g transform="translate(-100 822.8809468062032) rotate(0)">
        <animateTransform attributeName="transform" type="translate" keyTimes="0;1" values="-100 822.8809468062032;2687 822.8809468062032" dur="250s" repeatCount="indefinite" begin="-7.999219914674338s"></animateTransform>
        <path d="M84.717,33.597c0.791-2.503,1.186-5.138,1.186-7.773C85.903,11.594,74.308,0,60.079,0 c-9.881,0-18.445,5.534-22.793,13.702c-1.581-0.527-3.426-0.791-5.138-0.791c-9.486,0-17.128,7.642-17.128,17.128 c0,1.186,0.132,2.372,0.395,3.426C6.719,34.783,0,42.424,0,51.515C0,61.66,8.169,69.829,18.314,69.829h63.373 C91.831,69.829,100,61.66,100,51.515C99.868,42.556,93.281,35.046,84.717,33.597z" fill="#ff9f32" transform="scale(0.7)"></path>
    </g><g transform="translate(-100 1160.6076907422146) rotate(0)">
        <animateTransform attributeName="transform" type="translate" keyTimes="0;1" values="-100 1160.6076907422146;2687 1160.6076907422146" dur="166.66666666666666s" repeatCount="indefinite" begin="-193.5369727425591s"></animateTransform>
        <path d="M84.717,33.597c0.791-2.503,1.186-5.138,1.186-7.773C85.903,11.594,74.308,0,60.079,0 c-9.881,0-18.445,5.534-22.793,13.702c-1.581-0.527-3.426-0.791-5.138-0.791c-9.486,0-17.128,7.642-17.128,17.128 c0,1.186,0.132,2.372,0.395,3.426C6.719,34.783,0,42.424,0,51.515C0,61.66,8.169,69.829,18.314,69.829h63.373 C91.831,69.829,100,61.66,100,51.515C99.868,42.556,93.281,35.046,84.717,33.597z" fill="#f86161" transform="scale(0.85)"></path>
    </g><g transform="translate(-100 249.78656047459833) rotate(0)">
        <animateTransform attributeName="transform" type="translate" keyTimes="0;1" values="-100 249.78656047459833;2687 249.78656047459833" dur="166.66666666666666s" repeatCount="indefinite" begin="-395.43291673261905s"></animateTransform>
        <path d="M84.717,33.597c0.791-2.503,1.186-5.138,1.186-7.773C85.903,11.594,74.308,0,60.079,0 c-9.881,0-18.445,5.534-22.793,13.702c-1.581-0.527-3.426-0.791-5.138-0.791c-9.486,0-17.128,7.642-17.128,17.128 c0,1.186,0.132,2.372,0.395,3.426C6.719,34.783,0,42.424,0,51.515C0,61.66,8.169,69.829,18.314,69.829h63.373 C91.831,69.829,100,61.66,100,51.515C99.868,42.556,93.281,35.046,84.717,33.597z" fill="#f86161" transform="scale(0.85)"></path>
    </g><g transform="translate(-100 932.4033074884233) rotate(0)">
        <animateTransform attributeName="transform" type="translate" keyTimes="0;1" values="-100 932.4033074884233;2687 932.4033074884233" dur="166.66666666666666s" repeatCount="indefinite" begin="-81.5703372167148s"></animateTransform>
        <path d="M84.717,33.597c0.791-2.503,1.186-5.138,1.186-7.773C85.903,11.594,74.308,0,60.079,0 c-9.881,0-18.445,5.534-22.793,13.702c-1.581-0.527-3.426-0.791-5.138-0.791c-9.486,0-17.128,7.642-17.128,17.128 c0,1.186,0.132,2.372,0.395,3.426C6.719,34.783,0,42.424,0,51.515C0,61.66,8.169,69.829,18.314,69.829h63.373 C91.831,69.829,100,61.66,100,51.515C99.868,42.556,93.281,35.046,84.717,33.597z" fill="#f86161" transform="scale(0.85)"></path>
    </g><g transform="translate(-100 372.8434836211078) rotate(0)">
        <animateTransform attributeName="transform" type="translate" keyTimes="0;1" values="-100 372.8434836211078;2687 372.8434836211078" dur="166.66666666666666s" repeatCount="indefinite" begin="-0.40432493043585094s"></animateTransform>
        <path d="M84.717,33.597c0.791-2.503,1.186-5.138,1.186-7.773C85.903,11.594,74.308,0,60.079,0 c-9.881,0-18.445,5.534-22.793,13.702c-1.581-0.527-3.426-0.791-5.138-0.791c-9.486,0-17.128,7.642-17.128,17.128 c0,1.186,0.132,2.372,0.395,3.426C6.719,34.783,0,42.424,0,51.515C0,61.66,8.169,69.829,18.314,69.829h63.373 C91.831,69.829,100,61.66,100,51.515C99.868,42.556,93.281,35.046,84.717,33.597z" fill="#f86161" transform="scale(0.85)"></path>
    </g><g transform="translate(-100 643.2327665268551) rotate(0)">
        <animateTransform attributeName="transform" type="translate" keyTimes="0;1" values="-100 643.2327665268551;2687 643.2327665268551" dur="166.66666666666666s" repeatCount="indefinite" begin="-432.35872498750916s"></animateTransform>
        <path d="M84.717,33.597c0.791-2.503,1.186-5.138,1.186-7.773C85.903,11.594,74.308,0,60.079,0 c-9.881,0-18.445,5.534-22.793,13.702c-1.581-0.527-3.426-0.791-5.138-0.791c-9.486,0-17.128,7.642-17.128,17.128 c0,1.186,0.132,2.372,0.395,3.426C6.719,34.783,0,42.424,0,51.515C0,61.66,8.169,69.829,18.314,69.829h63.373 C91.831,69.829,100,61.66,100,51.515C99.868,42.556,93.281,35.046,84.717,33.597z" fill="#f86161" transform="scale(0.85)"></path>
    </g><g transform="translate(-100 491.62243421620354) rotate(0)">
        <animateTransform attributeName="transform" type="translate" keyTimes="0;1" values="-100 491.62243421620354;2687 491.62243421620354" dur="166.66666666666666s" repeatCount="indefinite" begin="-95.62054200461468s"></animateTransform>
        <path d="M84.717,33.597c0.791-2.503,1.186-5.138,1.186-7.773C85.903,11.594,74.308,0,60.079,0 c-9.881,0-18.445,5.534-22.793,13.702c-1.581-0.527-3.426-0.791-5.138-0.791c-9.486,0-17.128,7.642-17.128,17.128 c0,1.186,0.132,2.372,0.395,3.426C6.719,34.783,0,42.424,0,51.515C0,61.66,8.169,69.829,18.314,69.829h63.373 C91.831,69.829,100,61.66,100,51.515C99.868,42.556,93.281,35.046,84.717,33.597z" fill="#f86161" transform="scale(0.85)"></path>
    </g><g transform="translate(-100 289.2748429080705) rotate(0)">
        <animateTransform attributeName="transform" type="translate" keyTimes="0;1" values="-100 289.2748429080705;2687 289.2748429080705" dur="166.66666666666666s" repeatCount="indefinite" begin="-91.59951748965145s"></animateTransform>
        <path d="M84.717,33.597c0.791-2.503,1.186-5.138,1.186-7.773C85.903,11.594,74.308,0,60.079,0 c-9.881,0-18.445,5.534-22.793,13.702c-1.581-0.527-3.426-0.791-5.138-0.791c-9.486,0-17.128,7.642-17.128,17.128 c0,1.186,0.132,2.372,0.395,3.426C6.719,34.783,0,42.424,0,51.515C0,61.66,8.169,69.829,18.314,69.829h63.373 C91.831,69.829,100,61.66,100,51.515C99.868,42.556,93.281,35.046,84.717,33.597z" fill="#f86161" transform="scale(0.85)"></path>
    </g><g transform="translate(-100 1111.417638978807) rotate(0)">
        <animateTransform attributeName="transform" type="translate" keyTimes="0;1" values="-100 1111.417638978807;2687 1111.417638978807" dur="166.66666666666666s" repeatCount="indefinite" begin="-292.9714525005179s"></animateTransform>
        <path d="M84.717,33.597c0.791-2.503,1.186-5.138,1.186-7.773C85.903,11.594,74.308,0,60.079,0 c-9.881,0-18.445,5.534-22.793,13.702c-1.581-0.527-3.426-0.791-5.138-0.791c-9.486,0-17.128,7.642-17.128,17.128 c0,1.186,0.132,2.372,0.395,3.426C6.719,34.783,0,42.424,0,51.515C0,61.66,8.169,69.829,18.314,69.829h63.373 C91.831,69.829,100,61.66,100,51.515C99.868,42.556,93.281,35.046,84.717,33.597z" fill="#f86161" transform="scale(0.85)"></path>
    </g><g transform="translate(-100 932.0215120959692) rotate(0)">
        <animateTransform attributeName="transform" type="translate" keyTimes="0;1" values="-100 932.0215120959692;2687 932.0215120959692" dur="166.66666666666666s" repeatCount="indefinite" begin="-485.71284506647174s"></animateTransform>
        <path d="M84.717,33.597c0.791-2.503,1.186-5.138,1.186-7.773C85.903,11.594,74.308,0,60.079,0 c-9.881,0-18.445,5.534-22.793,13.702c-1.581-0.527-3.426-0.791-5.138-0.791c-9.486,0-17.128,7.642-17.128,17.128 c0,1.186,0.132,2.372,0.395,3.426C6.719,34.783,0,42.424,0,51.515C0,61.66,8.169,69.829,18.314,69.829h63.373 C91.831,69.829,100,61.66,100,51.515C99.868,42.556,93.281,35.046,84.717,33.597z" fill="#f86161" transform="scale(0.85)"></path>
    </g><g transform="translate(-100 766.0238675496439) rotate(0)">
        <animateTransform attributeName="transform" type="translate" keyTimes="0;1" values="-100 766.0238675496439;2687 766.0238675496439" dur="166.66666666666666s" repeatCount="indefinite" begin="-223.0444806778139s"></animateTransform>
        <path d="M84.717,33.597c0.791-2.503,1.186-5.138,1.186-7.773C85.903,11.594,74.308,0,60.079,0 c-9.881,0-18.445,5.534-22.793,13.702c-1.581-0.527-3.426-0.791-5.138-0.791c-9.486,0-17.128,7.642-17.128,17.128 c0,1.186,0.132,2.372,0.395,3.426C6.719,34.783,0,42.424,0,51.515C0,61.66,8.169,69.829,18.314,69.829h63.373 C91.831,69.829,100,61.66,100,51.515C99.868,42.556,93.281,35.046,84.717,33.597z" fill="#f86161" transform="scale(0.85)"></path>
    </g><g transform="translate(-100 467.3852299012654) rotate(0)">
        <animateTransform attributeName="transform" type="translate" keyTimes="0;1" values="-100 467.3852299012654;2687 467.3852299012654" dur="166.66666666666666s" repeatCount="indefinite" begin="-56.080492564222986s"></animateTransform>
        <path d="M84.717,33.597c0.791-2.503,1.186-5.138,1.186-7.773C85.903,11.594,74.308,0,60.079,0 c-9.881,0-18.445,5.534-22.793,13.702c-1.581-0.527-3.426-0.791-5.138-0.791c-9.486,0-17.128,7.642-17.128,17.128 c0,1.186,0.132,2.372,0.395,3.426C6.719,34.783,0,42.424,0,51.515C0,61.66,8.169,69.829,18.314,69.829h63.373 C91.831,69.829,100,61.66,100,51.515C99.868,42.556,93.281,35.046,84.717,33.597z" fill="#f86161" transform="scale(0.85)"></path>
    </g><g transform="translate(-100 31.3040162517735) rotate(0)">
        <animateTransform attributeName="transform" type="translate" keyTimes="0;1" values="-100 31.3040162517735;2687 31.3040162517735" dur="166.66666666666666s" repeatCount="indefinite" begin="-142.45391309312149s"></animateTransform>
        <path d="M84.717,33.597c0.791-2.503,1.186-5.138,1.186-7.773C85.903,11.594,74.308,0,60.079,0 c-9.881,0-18.445,5.534-22.793,13.702c-1.581-0.527-3.426-0.791-5.138-0.791c-9.486,0-17.128,7.642-17.128,17.128 c0,1.186,0.132,2.372,0.395,3.426C6.719,34.783,0,42.424,0,51.515C0,61.66,8.169,69.829,18.314,69.829h63.373 C91.831,69.829,100,61.66,100,51.515C99.868,42.556,93.281,35.046,84.717,33.597z" fill="#f86161" transform="scale(0.85)"></path>
    </g><g transform="translate(-100 223.9871423164534) rotate(0)">
        <animateTransform attributeName="transform" type="translate" keyTimes="0;1" values="-100 223.9871423164534;2687 223.9871423164534" dur="166.66666666666666s" repeatCount="indefinite" begin="-319.2942741753293s"></animateTransform>
        <path d="M84.717,33.597c0.791-2.503,1.186-5.138,1.186-7.773C85.903,11.594,74.308,0,60.079,0 c-9.881,0-18.445,5.534-22.793,13.702c-1.581-0.527-3.426-0.791-5.138-0.791c-9.486,0-17.128,7.642-17.128,17.128 c0,1.186,0.132,2.372,0.395,3.426C6.719,34.783,0,42.424,0,51.515C0,61.66,8.169,69.829,18.314,69.829h63.373 C91.831,69.829,100,61.66,100,51.515C99.868,42.556,93.281,35.046,84.717,33.597z" fill="#f86161" transform="scale(0.85)"></path>
    </g><g transform="translate(-100 1081.5534843242972) rotate(0)">
        <animateTransform attributeName="transform" type="translate" keyTimes="0;1" values="-100 1081.5534843242972;2687 1081.5534843242972" dur="166.66666666666666s" repeatCount="indefinite" begin="-180.41833586517808s"></animateTransform>
        <path d="M84.717,33.597c0.791-2.503,1.186-5.138,1.186-7.773C85.903,11.594,74.308,0,60.079,0 c-9.881,0-18.445,5.534-22.793,13.702c-1.581-0.527-3.426-0.791-5.138-0.791c-9.486,0-17.128,7.642-17.128,17.128 c0,1.186,0.132,2.372,0.395,3.426C6.719,34.783,0,42.424,0,51.515C0,61.66,8.169,69.829,18.314,69.829h63.373 C91.831,69.829,100,61.66,100,51.515C99.868,42.556,93.281,35.046,84.717,33.597z" fill="#f86161" transform="scale(0.85)"></path>
    </g><g transform="translate(-100 645.8087955470795) rotate(0)">
        <animateTransform attributeName="transform" type="translate" keyTimes="0;1" values="-100 645.8087955470795;2687 645.8087955470795" dur="166.66666666666666s" repeatCount="indefinite" begin="-421.9308827172234s"></animateTransform>
        <path d="M84.717,33.597c0.791-2.503,1.186-5.138,1.186-7.773C85.903,11.594,74.308,0,60.079,0 c-9.881,0-18.445,5.534-22.793,13.702c-1.581-0.527-3.426-0.791-5.138-0.791c-9.486,0-17.128,7.642-17.128,17.128 c0,1.186,0.132,2.372,0.395,3.426C6.719,34.783,0,42.424,0,51.515C0,61.66,8.169,69.829,18.314,69.829h63.373 C91.831,69.829,100,61.66,100,51.515C99.868,42.556,93.281,35.046,84.717,33.597z" fill="#f86161" transform="scale(0.85)"></path>
    </g><g transform="translate(-100 732.306789979006) rotate(0)">
        <animateTransform attributeName="transform" type="translate" keyTimes="0;1" values="-100 732.306789979006;2687 732.306789979006" dur="166.66666666666666s" repeatCount="indefinite" begin="-190.0603065951374s"></animateTransform>
        <path d="M84.717,33.597c0.791-2.503,1.186-5.138,1.186-7.773C85.903,11.594,74.308,0,60.079,0 c-9.881,0-18.445,5.534-22.793,13.702c-1.581-0.527-3.426-0.791-5.138-0.791c-9.486,0-17.128,7.642-17.128,17.128 c0,1.186,0.132,2.372,0.395,3.426C6.719,34.783,0,42.424,0,51.515C0,61.66,8.169,69.829,18.314,69.829h63.373 C91.831,69.829,100,61.66,100,51.515C99.868,42.556,93.281,35.046,84.717,33.597z" fill="#f86161" transform="scale(0.85)"></path>
    </g><g transform="translate(-100 334.01857273020977) rotate(0)">
        <animateTransform attributeName="transform" type="translate" keyTimes="0;1" values="-100 334.01857273020977;2687 334.01857273020977" dur="166.66666666666666s" repeatCount="indefinite" begin="-337.5369818849957s"></animateTransform>
        <path d="M84.717,33.597c0.791-2.503,1.186-5.138,1.186-7.773C85.903,11.594,74.308,0,60.079,0 c-9.881,0-18.445,5.534-22.793,13.702c-1.581-0.527-3.426-0.791-5.138-0.791c-9.486,0-17.128,7.642-17.128,17.128 c0,1.186,0.132,2.372,0.395,3.426C6.719,34.783,0,42.424,0,51.515C0,61.66,8.169,69.829,18.314,69.829h63.373 C91.831,69.829,100,61.66,100,51.515C99.868,42.556,93.281,35.046,84.717,33.597z" fill="#f86161" transform="scale(0.85)"></path>
    </g><g transform="translate(-100 1209.1459652882722) rotate(0)">
        <animateTransform attributeName="transform" type="translate" keyTimes="0;1" values="-100 1209.1459652882722;2687 1209.1459652882722" dur="125s" repeatCount="indefinite" begin="-152.65854846050675s"></animateTransform>
        <path d="M84.717,33.597c0.791-2.503,1.186-5.138,1.186-7.773C85.903,11.594,74.308,0,60.079,0 c-9.881,0-18.445,5.534-22.793,13.702c-1.581-0.527-3.426-0.791-5.138-0.791c-9.486,0-17.128,7.642-17.128,17.128 c0,1.186,0.132,2.372,0.395,3.426C6.719,34.783,0,42.424,0,51.515C0,61.66,8.169,69.829,18.314,69.829h63.373 C91.831,69.829,100,61.66,100,51.515C99.868,42.556,93.281,35.046,84.717,33.597z" fill="#ff956e" transform="scale(1)"></path>
    </g><g transform="translate(-100 885.8246290366566) rotate(0)">
        <animateTransform attributeName="transform" type="translate" keyTimes="0;1" values="-100 885.8246290366566;2687 885.8246290366566" dur="125s" repeatCount="indefinite" begin="-238.60134699670633s"></animateTransform>
        <path d="M84.717,33.597c0.791-2.503,1.186-5.138,1.186-7.773C85.903,11.594,74.308,0,60.079,0 c-9.881,0-18.445,5.534-22.793,13.702c-1.581-0.527-3.426-0.791-5.138-0.791c-9.486,0-17.128,7.642-17.128,17.128 c0,1.186,0.132,2.372,0.395,3.426C6.719,34.783,0,42.424,0,51.515C0,61.66,8.169,69.829,18.314,69.829h63.373 C91.831,69.829,100,61.66,100,51.515C99.868,42.556,93.281,35.046,84.717,33.597z" fill="#ff956e" transform="scale(1)"></path>
    </g><g transform="translate(-100 822.7305265814874) rotate(0)">
        <animateTransform attributeName="transform" type="translate" keyTimes="0;1" values="-100 822.7305265814874;2687 822.7305265814874" dur="125s" repeatCount="indefinite" begin="-220.88907985174032s"></animateTransform>
        <path d="M84.717,33.597c0.791-2.503,1.186-5.138,1.186-7.773C85.903,11.594,74.308,0,60.079,0 c-9.881,0-18.445,5.534-22.793,13.702c-1.581-0.527-3.426-0.791-5.138-0.791c-9.486,0-17.128,7.642-17.128,17.128 c0,1.186,0.132,2.372,0.395,3.426C6.719,34.783,0,42.424,0,51.515C0,61.66,8.169,69.829,18.314,69.829h63.373 C91.831,69.829,100,61.66,100,51.515C99.868,42.556,93.281,35.046,84.717,33.597z" fill="#ff956e" transform="scale(1)"></path>
    </g><g transform="translate(-100 189.14599691733974) rotate(0)">
        <animateTransform attributeName="transform" type="translate" keyTimes="0;1" values="-100 189.14599691733974;2687 189.14599691733974" dur="125s" repeatCount="indefinite" begin="-475.4242168146501s"></animateTransform>
        <path d="M84.717,33.597c0.791-2.503,1.186-5.138,1.186-7.773C85.903,11.594,74.308,0,60.079,0 c-9.881,0-18.445,5.534-22.793,13.702c-1.581-0.527-3.426-0.791-5.138-0.791c-9.486,0-17.128,7.642-17.128,17.128 c0,1.186,0.132,2.372,0.395,3.426C6.719,34.783,0,42.424,0,51.515C0,61.66,8.169,69.829,18.314,69.829h63.373 C91.831,69.829,100,61.66,100,51.515C99.868,42.556,93.281,35.046,84.717,33.597z" fill="#ff956e" transform="scale(1)"></path>
    </g><g transform="translate(-100 890.4855999463487) rotate(0)">
        <animateTransform attributeName="transform" type="translate" keyTimes="0;1" values="-100 890.4855999463487;2687 890.4855999463487" dur="125s" repeatCount="indefinite" begin="-406.79002212660976s"></animateTransform>
        <path d="M84.717,33.597c0.791-2.503,1.186-5.138,1.186-7.773C85.903,11.594,74.308,0,60.079,0 c-9.881,0-18.445,5.534-22.793,13.702c-1.581-0.527-3.426-0.791-5.138-0.791c-9.486,0-17.128,7.642-17.128,17.128 c0,1.186,0.132,2.372,0.395,3.426C6.719,34.783,0,42.424,0,51.515C0,61.66,8.169,69.829,18.314,69.829h63.373 C91.831,69.829,100,61.66,100,51.515C99.868,42.556,93.281,35.046,84.717,33.597z" fill="#ff956e" transform="scale(1)"></path>
    </g><g transform="translate(-100 807.3502587182903) rotate(0)">
        <animateTransform attributeName="transform" type="translate" keyTimes="0;1" values="-100 807.3502587182903;2687 807.3502587182903" dur="125s" repeatCount="indefinite" begin="-404.14707800086535s"></animateTransform>
        <path d="M84.717,33.597c0.791-2.503,1.186-5.138,1.186-7.773C85.903,11.594,74.308,0,60.079,0 c-9.881,0-18.445,5.534-22.793,13.702c-1.581-0.527-3.426-0.791-5.138-0.791c-9.486,0-17.128,7.642-17.128,17.128 c0,1.186,0.132,2.372,0.395,3.426C6.719,34.783,0,42.424,0,51.515C0,61.66,8.169,69.829,18.314,69.829h63.373 C91.831,69.829,100,61.66,100,51.515C99.868,42.556,93.281,35.046,84.717,33.597z" fill="#ff956e" transform="scale(1)"></path>
    </g><g transform="translate(-100 271.2977376812899) rotate(0)">
        <animateTransform attributeName="transform" type="translate" keyTimes="0;1" values="-100 271.2977376812899;2687 271.2977376812899" dur="125s" repeatCount="indefinite" begin="-301.07779078450227s"></animateTransform>
        <path d="M84.717,33.597c0.791-2.503,1.186-5.138,1.186-7.773C85.903,11.594,74.308,0,60.079,0 c-9.881,0-18.445,5.534-22.793,13.702c-1.581-0.527-3.426-0.791-5.138-0.791c-9.486,0-17.128,7.642-17.128,17.128 c0,1.186,0.132,2.372,0.395,3.426C6.719,34.783,0,42.424,0,51.515C0,61.66,8.169,69.829,18.314,69.829h63.373 C91.831,69.829,100,61.66,100,51.515C99.868,42.556,93.281,35.046,84.717,33.597z" fill="#ff956e" transform="scale(1)"></path>
    </g><g transform="translate(-100 445.4748149053537) rotate(0)">
        <animateTransform attributeName="transform" type="translate" keyTimes="0;1" values="-100 445.4748149053537;2687 445.4748149053537" dur="125s" repeatCount="indefinite" begin="-35.23309667762342s"></animateTransform>
        <path d="M84.717,33.597c0.791-2.503,1.186-5.138,1.186-7.773C85.903,11.594,74.308,0,60.079,0 c-9.881,0-18.445,5.534-22.793,13.702c-1.581-0.527-3.426-0.791-5.138-0.791c-9.486,0-17.128,7.642-17.128,17.128 c0,1.186,0.132,2.372,0.395,3.426C6.719,34.783,0,42.424,0,51.515C0,61.66,8.169,69.829,18.314,69.829h63.373 C91.831,69.829,100,61.66,100,51.515C99.868,42.556,93.281,35.046,84.717,33.597z" fill="#ff956e" transform="scale(1)"></path>
    </g><g transform="translate(-100 1066.2316200915923) rotate(0)">
        <animateTransform attributeName="transform" type="translate" keyTimes="0;1" values="-100 1066.2316200915923;2687 1066.2316200915923" dur="125s" repeatCount="indefinite" begin="-63.39300409874382s"></animateTransform>
        <path d="M84.717,33.597c0.791-2.503,1.186-5.138,1.186-7.773C85.903,11.594,74.308,0,60.079,0 c-9.881,0-18.445,5.534-22.793,13.702c-1.581-0.527-3.426-0.791-5.138-0.791c-9.486,0-17.128,7.642-17.128,17.128 c0,1.186,0.132,2.372,0.395,3.426C6.719,34.783,0,42.424,0,51.515C0,61.66,8.169,69.829,18.314,69.829h63.373 C91.831,69.829,100,61.66,100,51.515C99.868,42.556,93.281,35.046,84.717,33.597z" fill="#ff956e" transform="scale(1)"></path>
    </g><g transform="translate(-100 1142.6860140948463) rotate(0)">
        <animateTransform attributeName="transform" type="translate" keyTimes="0;1" values="-100 1142.6860140948463;2687 1142.6860140948463" dur="125s" repeatCount="indefinite" begin="-345.6656278844975s"></animateTransform>
        <path d="M84.717,33.597c0.791-2.503,1.186-5.138,1.186-7.773C85.903,11.594,74.308,0,60.079,0 c-9.881,0-18.445,5.534-22.793,13.702c-1.581-0.527-3.426-0.791-5.138-0.791c-9.486,0-17.128,7.642-17.128,17.128 c0,1.186,0.132,2.372,0.395,3.426C6.719,34.783,0,42.424,0,51.515C0,61.66,8.169,69.829,18.314,69.829h63.373 C91.831,69.829,100,61.66,100,51.515C99.868,42.556,93.281,35.046,84.717,33.597z" fill="#ff956e" transform="scale(1)"></path>
    </g><g transform="translate(-100 1077.3472296284604) rotate(0)">
        <animateTransform attributeName="transform" type="translate" keyTimes="0;1" values="-100 1077.3472296284604;2687 1077.3472296284604" dur="125s" repeatCount="indefinite" begin="-440.1804858555214s"></animateTransform>
        <path d="M84.717,33.597c0.791-2.503,1.186-5.138,1.186-7.773C85.903,11.594,74.308,0,60.079,0 c-9.881,0-18.445,5.534-22.793,13.702c-1.581-0.527-3.426-0.791-5.138-0.791c-9.486,0-17.128,7.642-17.128,17.128 c0,1.186,0.132,2.372,0.395,3.426C6.719,34.783,0,42.424,0,51.515C0,61.66,8.169,69.829,18.314,69.829h63.373 C91.831,69.829,100,61.66,100,51.515C99.868,42.556,93.281,35.046,84.717,33.597z" fill="#ff956e" transform="scale(1)"></path>
    </g><g transform="translate(-100 967.9582490197195) rotate(0)">
        <animateTransform attributeName="transform" type="translate" keyTimes="0;1" values="-100 967.9582490197195;2687 967.9582490197195" dur="125s" repeatCount="indefinite" begin="-300.78427354155104s"></animateTransform>
        <path d="M84.717,33.597c0.791-2.503,1.186-5.138,1.186-7.773C85.903,11.594,74.308,0,60.079,0 c-9.881,0-18.445,5.534-22.793,13.702c-1.581-0.527-3.426-0.791-5.138-0.791c-9.486,0-17.128,7.642-17.128,17.128 c0,1.186,0.132,2.372,0.395,3.426C6.719,34.783,0,42.424,0,51.515C0,61.66,8.169,69.829,18.314,69.829h63.373 C91.831,69.829,100,61.66,100,51.515C99.868,42.556,93.281,35.046,84.717,33.597z" fill="#ff956e" transform="scale(1)"></path>
    </g><g transform="translate(-100 354.13043505475827) rotate(0)">
        <animateTransform attributeName="transform" type="translate" keyTimes="0;1" values="-100 354.13043505475827;2687 354.13043505475827" dur="125s" repeatCount="indefinite" begin="-38.61331307678817s"></animateTransform>
        <path d="M84.717,33.597c0.791-2.503,1.186-5.138,1.186-7.773C85.903,11.594,74.308,0,60.079,0 c-9.881,0-18.445,5.534-22.793,13.702c-1.581-0.527-3.426-0.791-5.138-0.791c-9.486,0-17.128,7.642-17.128,17.128 c0,1.186,0.132,2.372,0.395,3.426C6.719,34.783,0,42.424,0,51.515C0,61.66,8.169,69.829,18.314,69.829h63.373 C91.831,69.829,100,61.66,100,51.515C99.868,42.556,93.281,35.046,84.717,33.597z" fill="#ff956e" transform="scale(1)"></path>
    </g><g transform="translate(-100 822.2133231559104) rotate(0)">
        <animateTransform attributeName="transform" type="translate" keyTimes="0;1" values="-100 822.2133231559104;2687 822.2133231559104" dur="125s" repeatCount="indefinite" begin="-84.33862562735317s"></animateTransform>
        <path d="M84.717,33.597c0.791-2.503,1.186-5.138,1.186-7.773C85.903,11.594,74.308,0,60.079,0 c-9.881,0-18.445,5.534-22.793,13.702c-1.581-0.527-3.426-0.791-5.138-0.791c-9.486,0-17.128,7.642-17.128,17.128 c0,1.186,0.132,2.372,0.395,3.426C6.719,34.783,0,42.424,0,51.515C0,61.66,8.169,69.829,18.314,69.829h63.373 C91.831,69.829,100,61.66,100,51.515C99.868,42.556,93.281,35.046,84.717,33.597z" fill="#ff956e" transform="scale(1)"></path>
    </g><g transform="translate(-100 521.507853987155) rotate(0)">
        <animateTransform attributeName="transform" type="translate" keyTimes="0;1" values="-100 521.507853987155;2687 521.507853987155" dur="125s" repeatCount="indefinite" begin="-343.50040932038485s"></animateTransform>
        <path d="M84.717,33.597c0.791-2.503,1.186-5.138,1.186-7.773C85.903,11.594,74.308,0,60.079,0 c-9.881,0-18.445,5.534-22.793,13.702c-1.581-0.527-3.426-0.791-5.138-0.791c-9.486,0-17.128,7.642-17.128,17.128 c0,1.186,0.132,2.372,0.395,3.426C6.719,34.783,0,42.424,0,51.515C0,61.66,8.169,69.829,18.314,69.829h63.373 C91.831,69.829,100,61.66,100,51.515C99.868,42.556,93.281,35.046,84.717,33.597z" fill="#ff956e" transform="scale(1)"></path>
    </g><g transform="translate(-100 1221.5286890864772) rotate(0)">
        <animateTransform attributeName="transform" type="translate" keyTimes="0;1" values="-100 1221.5286890864772;2687 1221.5286890864772" dur="125s" repeatCount="indefinite" begin="-290.62707518107965s"></animateTransform>
        <path d="M84.717,33.597c0.791-2.503,1.186-5.138,1.186-7.773C85.903,11.594,74.308,0,60.079,0 c-9.881,0-18.445,5.534-22.793,13.702c-1.581-0.527-3.426-0.791-5.138-0.791c-9.486,0-17.128,7.642-17.128,17.128 c0,1.186,0.132,2.372,0.395,3.426C6.719,34.783,0,42.424,0,51.515C0,61.66,8.169,69.829,18.314,69.829h63.373 C91.831,69.829,100,61.66,100,51.515C99.868,42.556,93.281,35.046,84.717,33.597z" fill="#ff956e" transform="scale(1)"></path>
    </g><g transform="translate(-100 57.52565181583373) rotate(0)">
        <animateTransform attributeName="transform" type="translate" keyTimes="0;1" values="-100 57.52565181583373;2687 57.52565181583373" dur="125s" repeatCount="indefinite" begin="-409.1183264997242s"></animateTransform>
        <path d="M84.717,33.597c0.791-2.503,1.186-5.138,1.186-7.773C85.903,11.594,74.308,0,60.079,0 c-9.881,0-18.445,5.534-22.793,13.702c-1.581-0.527-3.426-0.791-5.138-0.791c-9.486,0-17.128,7.642-17.128,17.128 c0,1.186,0.132,2.372,0.395,3.426C6.719,34.783,0,42.424,0,51.515C0,61.66,8.169,69.829,18.314,69.829h63.373 C91.831,69.829,100,61.66,100,51.515C99.868,42.556,93.281,35.046,84.717,33.597z" fill="#ff956e" transform="scale(1)"></path>
    </g><g transform="translate(-100 361.14906819395384) rotate(0)">
        <animateTransform attributeName="transform" type="translate" keyTimes="0;1" values="-100 361.14906819395384;2687 361.14906819395384" dur="125s" repeatCount="indefinite" begin="-264.22036612714095s"></animateTransform>
        <path d="M84.717,33.597c0.791-2.503,1.186-5.138,1.186-7.773C85.903,11.594,74.308,0,60.079,0 c-9.881,0-18.445,5.534-22.793,13.702c-1.581-0.527-3.426-0.791-5.138-0.791c-9.486,0-17.128,7.642-17.128,17.128 c0,1.186,0.132,2.372,0.395,3.426C6.719,34.783,0,42.424,0,51.515C0,61.66,8.169,69.829,18.314,69.829h63.373 C91.831,69.829,100,61.66,100,51.515C99.868,42.556,93.281,35.046,84.717,33.597z" fill="#ff956e" transform="scale(1)"></path>
    </g></g>
</svg>