<svg xmlns="http://www.w3.org/2000/svg" xmlns:xlink="http://www.w3.org/1999/xlink" style="margin:auto;background:#121212;display:block;z-index:1;position:relative" width="1746" height="892" preserveAspectRatio="xMidYMid" viewBox="0 0 1746 892">
    <g transform="translate(873,446) scale(1,1) translate(-873,-446)"><g transform="translate(-100 886.4464413445048) rotate(0)">
        <animateTransform attributeName="transform" type="translate" keyTimes="0;1" values="-100 886.4464413445048;1746 886.4464413445048" dur="1000s" repeatCount="indefinite" begin="-893.6717964983543s"></animateTransform>
        <path d="M84.717,33.597c0.791-2.503,1.186-5.138,1.186-7.773C85.903,11.594,74.308,0,60.079,0 c-9.881,0-18.445,5.534-22.793,13.702c-1.581-0.527-3.426-0.791-5.138-0.791c-9.486,0-17.128,7.642-17.128,17.128 c0,1.186,0.132,2.372,0.395,3.426C6.719,34.783,0,42.424,0,51.515C0,61.66,8.169,69.829,18.314,69.829h63.373 C91.831,69.829,100,61.66,100,51.515C99.868,42.556,93.281,35.046,84.717,33.597z" fill="rgba(189, 222, 255, 0.20304435483870964)" transform="scale(0.55)"></path>
    </g><g transform="translate(-100 486.4211404241354) rotate(0)">
        <animateTransform attributeName="transform" type="translate" keyTimes="0;1" values="-100 486.4211404241354;1746 486.4211404241354" dur="1000s" repeatCount="indefinite" begin="-666.2686996093908s"></animateTransform>
        <path d="M84.717,33.597c0.791-2.503,1.186-5.138,1.186-7.773C85.903,11.594,74.308,0,60.079,0 c-9.881,0-18.445,5.534-22.793,13.702c-1.581-0.527-3.426-0.791-5.138-0.791c-9.486,0-17.128,7.642-17.128,17.128 c0,1.186,0.132,2.372,0.395,3.426C6.719,34.783,0,42.424,0,51.515C0,61.66,8.169,69.829,18.314,69.829h63.373 C91.831,69.829,100,61.66,100,51.515C99.868,42.556,93.281,35.046,84.717,33.597z" fill="rgba(189, 222, 255, 0.20304435483870964)" transform="scale(0.55)"></path>
    </g><g transform="translate(-100 519.4467609253595) rotate(0)">
        <animateTransform attributeName="transform" type="translate" keyTimes="0;1" values="-100 519.4467609253595;1746 519.4467609253595" dur="1000s" repeatCount="indefinite" begin="-971.2405477721582s"></animateTransform>
        <path d="M84.717,33.597c0.791-2.503,1.186-5.138,1.186-7.773C85.903,11.594,74.308,0,60.079,0 c-9.881,0-18.445,5.534-22.793,13.702c-1.581-0.527-3.426-0.791-5.138-0.791c-9.486,0-17.128,7.642-17.128,17.128 c0,1.186,0.132,2.372,0.395,3.426C6.719,34.783,0,42.424,0,51.515C0,61.66,8.169,69.829,18.314,69.829h63.373 C91.831,69.829,100,61.66,100,51.515C99.868,42.556,93.281,35.046,84.717,33.597z" fill="rgba(189, 222, 255, 0.20304435483870964)" transform="scale(0.55)"></path>
    </g><g transform="translate(-100 722.7608099205048) rotate(0)">
        <animateTransform attributeName="transform" type="translate" keyTimes="0;1" values="-100 722.7608099205048;1746 722.7608099205048" dur="1000s" repeatCount="indefinite" begin="-604.7656534162784s"></animateTransform>
        <path d="M84.717,33.597c0.791-2.503,1.186-5.138,1.186-7.773C85.903,11.594,74.308,0,60.079,0 c-9.881,0-18.445,5.534-22.793,13.702c-1.581-0.527-3.426-0.791-5.138-0.791c-9.486,0-17.128,7.642-17.128,17.128 c0,1.186,0.132,2.372,0.395,3.426C6.719,34.783,0,42.424,0,51.515C0,61.66,8.169,69.829,18.314,69.829h63.373 C91.831,69.829,100,61.66,100,51.515C99.868,42.556,93.281,35.046,84.717,33.597z" fill="rgba(189, 222, 255, 0.20304435483870964)" transform="scale(0.55)"></path>
    </g><g transform="translate(-100 558.2015151289833) rotate(0)">
        <animateTransform attributeName="transform" type="translate" keyTimes="0;1" values="-100 558.2015151289833;1746 558.2015151289833" dur="1000s" repeatCount="indefinite" begin="-603.5115193114098s"></animateTransform>
        <path d="M84.717,33.597c0.791-2.503,1.186-5.138,1.186-7.773C85.903,11.594,74.308,0,60.079,0 c-9.881,0-18.445,5.534-22.793,13.702c-1.581-0.527-3.426-0.791-5.138-0.791c-9.486,0-17.128,7.642-17.128,17.128 c0,1.186,0.132,2.372,0.395,3.426C6.719,34.783,0,42.424,0,51.515C0,61.66,8.169,69.829,18.314,69.829h63.373 C91.831,69.829,100,61.66,100,51.515C99.868,42.556,93.281,35.046,84.717,33.597z" fill="rgba(189, 222, 255, 0.20304435483870964)" transform="scale(0.55)"></path>
    </g><g transform="translate(-100 454.10002028697005) rotate(0)">
        <animateTransform attributeName="transform" type="translate" keyTimes="0;1" values="-100 454.10002028697005;1746 454.10002028697005" dur="1000s" repeatCount="indefinite" begin="-339.3991945428627s"></animateTransform>
        <path d="M84.717,33.597c0.791-2.503,1.186-5.138,1.186-7.773C85.903,11.594,74.308,0,60.079,0 c-9.881,0-18.445,5.534-22.793,13.702c-1.581-0.527-3.426-0.791-5.138-0.791c-9.486,0-17.128,7.642-17.128,17.128 c0,1.186,0.132,2.372,0.395,3.426C6.719,34.783,0,42.424,0,51.515C0,61.66,8.169,69.829,18.314,69.829h63.373 C91.831,69.829,100,61.66,100,51.515C99.868,42.556,93.281,35.046,84.717,33.597z" fill="rgba(189, 222, 255, 0.20304435483870964)" transform="scale(0.55)"></path>
    </g><g transform="translate(-100 804.2427039633433) rotate(0)">
        <animateTransform attributeName="transform" type="translate" keyTimes="0;1" values="-100 804.2427039633433;1746 804.2427039633433" dur="1000s" repeatCount="indefinite" begin="-751.2345214690133s"></animateTransform>
        <path d="M84.717,33.597c0.791-2.503,1.186-5.138,1.186-7.773C85.903,11.594,74.308,0,60.079,0 c-9.881,0-18.445,5.534-22.793,13.702c-1.581-0.527-3.426-0.791-5.138-0.791c-9.486,0-17.128,7.642-17.128,17.128 c0,1.186,0.132,2.372,0.395,3.426C6.719,34.783,0,42.424,0,51.515C0,61.66,8.169,69.829,18.314,69.829h63.373 C91.831,69.829,100,61.66,100,51.515C99.868,42.556,93.281,35.046,84.717,33.597z" fill="rgba(189, 222, 255, 0.20304435483870964)" transform="scale(0.55)"></path>
    </g><g transform="translate(-100 388.6299968046186) rotate(0)">
        <animateTransform attributeName="transform" type="translate" keyTimes="0;1" values="-100 388.6299968046186;1746 388.6299968046186" dur="1000s" repeatCount="indefinite" begin="-908.0607971203281s"></animateTransform>
        <path d="M84.717,33.597c0.791-2.503,1.186-5.138,1.186-7.773C85.903,11.594,74.308,0,60.079,0 c-9.881,0-18.445,5.534-22.793,13.702c-1.581-0.527-3.426-0.791-5.138-0.791c-9.486,0-17.128,7.642-17.128,17.128 c0,1.186,0.132,2.372,0.395,3.426C6.719,34.783,0,42.424,0,51.515C0,61.66,8.169,69.829,18.314,69.829h63.373 C91.831,69.829,100,61.66,100,51.515C99.868,42.556,93.281,35.046,84.717,33.597z" fill="rgba(189, 222, 255, 0.20304435483870964)" transform="scale(0.55)"></path>
    </g><g transform="translate(-100 380.77135776320097) rotate(0)">
        <animateTransform attributeName="transform" type="translate" keyTimes="0;1" values="-100 380.77135776320097;1746 380.77135776320097" dur="1000s" repeatCount="indefinite" begin="-921.4619737514867s"></animateTransform>
        <path d="M84.717,33.597c0.791-2.503,1.186-5.138,1.186-7.773C85.903,11.594,74.308,0,60.079,0 c-9.881,0-18.445,5.534-22.793,13.702c-1.581-0.527-3.426-0.791-5.138-0.791c-9.486,0-17.128,7.642-17.128,17.128 c0,1.186,0.132,2.372,0.395,3.426C6.719,34.783,0,42.424,0,51.515C0,61.66,8.169,69.829,18.314,69.829h63.373 C91.831,69.829,100,61.66,100,51.515C99.868,42.556,93.281,35.046,84.717,33.597z" fill="rgba(189, 222, 255, 0.20304435483870964)" transform="scale(0.55)"></path>
    </g><g transform="translate(-100 261.77342276412423) rotate(0)">
        <animateTransform attributeName="transform" type="translate" keyTimes="0;1" values="-100 261.77342276412423;1746 261.77342276412423" dur="1000s" repeatCount="indefinite" begin="-462.72223073065175s"></animateTransform>
        <path d="M84.717,33.597c0.791-2.503,1.186-5.138,1.186-7.773C85.903,11.594,74.308,0,60.079,0 c-9.881,0-18.445,5.534-22.793,13.702c-1.581-0.527-3.426-0.791-5.138-0.791c-9.486,0-17.128,7.642-17.128,17.128 c0,1.186,0.132,2.372,0.395,3.426C6.719,34.783,0,42.424,0,51.515C0,61.66,8.169,69.829,18.314,69.829h63.373 C91.831,69.829,100,61.66,100,51.515C99.868,42.556,93.281,35.046,84.717,33.597z" fill="rgba(189, 222, 255, 0.20304435483870964)" transform="scale(0.55)"></path>
    </g><g transform="translate(-100 247.1813613012863) rotate(0)">
        <animateTransform attributeName="transform" type="translate" keyTimes="0;1" values="-100 247.1813613012863;1746 247.1813613012863" dur="500s" repeatCount="indefinite" begin="-671.0822392133429s"></animateTransform>
        <path d="M84.717,33.597c0.791-2.503,1.186-5.138,1.186-7.773C85.903,11.594,74.308,0,60.079,0 c-9.881,0-18.445,5.534-22.793,13.702c-1.581-0.527-3.426-0.791-5.138-0.791c-9.486,0-17.128,7.642-17.128,17.128 c0,1.186,0.132,2.372,0.395,3.426C6.719,34.783,0,42.424,0,51.515C0,61.66,8.169,69.829,18.314,69.829h63.373 C91.831,69.829,100,61.66,100,51.515C99.868,42.556,93.281,35.046,84.717,33.597z" fill="rgba(255, 255, 255, 0.253366935483871)" transform="scale(0.7)"></path>
    </g><g transform="translate(-100 165.07816120790628) rotate(0)">
        <animateTransform attributeName="transform" type="translate" keyTimes="0;1" values="-100 165.07816120790628;1746 165.07816120790628" dur="500s" repeatCount="indefinite" begin="-23.758015376720508s"></animateTransform>
        <path d="M84.717,33.597c0.791-2.503,1.186-5.138,1.186-7.773C85.903,11.594,74.308,0,60.079,0 c-9.881,0-18.445,5.534-22.793,13.702c-1.581-0.527-3.426-0.791-5.138-0.791c-9.486,0-17.128,7.642-17.128,17.128 c0,1.186,0.132,2.372,0.395,3.426C6.719,34.783,0,42.424,0,51.515C0,61.66,8.169,69.829,18.314,69.829h63.373 C91.831,69.829,100,61.66,100,51.515C99.868,42.556,93.281,35.046,84.717,33.597z" fill="rgba(255, 255, 255, 0.253366935483871)" transform="scale(0.7)"></path>
    </g><g transform="translate(-100 461.9998020936969) rotate(0)">
        <animateTransform attributeName="transform" type="translate" keyTimes="0;1" values="-100 461.9998020936969;1746 461.9998020936969" dur="500s" repeatCount="indefinite" begin="-629.8932883216572s"></animateTransform>
        <path d="M84.717,33.597c0.791-2.503,1.186-5.138,1.186-7.773C85.903,11.594,74.308,0,60.079,0 c-9.881,0-18.445,5.534-22.793,13.702c-1.581-0.527-3.426-0.791-5.138-0.791c-9.486,0-17.128,7.642-17.128,17.128 c0,1.186,0.132,2.372,0.395,3.426C6.719,34.783,0,42.424,0,51.515C0,61.66,8.169,69.829,18.314,69.829h63.373 C91.831,69.829,100,61.66,100,51.515C99.868,42.556,93.281,35.046,84.717,33.597z" fill="rgba(255, 255, 255, 0.253366935483871)" transform="scale(0.7)"></path>
    </g><g transform="translate(-100 204.92404128804577) rotate(0)">
        <animateTransform attributeName="transform" type="translate" keyTimes="0;1" values="-100 204.92404128804577;1746 204.92404128804577" dur="500s" repeatCount="indefinite" begin="-366.28778464801303s"></animateTransform>
        <path d="M84.717,33.597c0.791-2.503,1.186-5.138,1.186-7.773C85.903,11.594,74.308,0,60.079,0 c-9.881,0-18.445,5.534-22.793,13.702c-1.581-0.527-3.426-0.791-5.138-0.791c-9.486,0-17.128,7.642-17.128,17.128 c0,1.186,0.132,2.372,0.395,3.426C6.719,34.783,0,42.424,0,51.515C0,61.66,8.169,69.829,18.314,69.829h63.373 C91.831,69.829,100,61.66,100,51.515C99.868,42.556,93.281,35.046,84.717,33.597z" fill="rgba(255, 255, 255, 0.253366935483871)" transform="scale(0.7)"></path>
    </g><g transform="translate(-100 156.04604838604078) rotate(0)">
        <animateTransform attributeName="transform" type="translate" keyTimes="0;1" values="-100 156.04604838604078;1746 156.04604838604078" dur="500s" repeatCount="indefinite" begin="-808.7572848242448s"></animateTransform>
        <path d="M84.717,33.597c0.791-2.503,1.186-5.138,1.186-7.773C85.903,11.594,74.308,0,60.079,0 c-9.881,0-18.445,5.534-22.793,13.702c-1.581-0.527-3.426-0.791-5.138-0.791c-9.486,0-17.128,7.642-17.128,17.128 c0,1.186,0.132,2.372,0.395,3.426C6.719,34.783,0,42.424,0,51.515C0,61.66,8.169,69.829,18.314,69.829h63.373 C91.831,69.829,100,61.66,100,51.515C99.868,42.556,93.281,35.046,84.717,33.597z" fill="rgba(255, 255, 255, 0.253366935483871)" transform="scale(0.7)"></path>
    </g><g transform="translate(-100 399.02767047197335) rotate(0)">
        <animateTransform attributeName="transform" type="translate" keyTimes="0;1" values="-100 399.02767047197335;1746 399.02767047197335" dur="500s" repeatCount="indefinite" begin="-330.3172442292914s"></animateTransform>
        <path d="M84.717,33.597c0.791-2.503,1.186-5.138,1.186-7.773C85.903,11.594,74.308,0,60.079,0 c-9.881,0-18.445,5.534-22.793,13.702c-1.581-0.527-3.426-0.791-5.138-0.791c-9.486,0-17.128,7.642-17.128,17.128 c0,1.186,0.132,2.372,0.395,3.426C6.719,34.783,0,42.424,0,51.515C0,61.66,8.169,69.829,18.314,69.829h63.373 C91.831,69.829,100,61.66,100,51.515C99.868,42.556,93.281,35.046,84.717,33.597z" fill="rgba(255, 255, 255, 0.253366935483871)" transform="scale(0.7)"></path>
    </g><g transform="translate(-100 407.9455389781752) rotate(0)">
        <animateTransform attributeName="transform" type="translate" keyTimes="0;1" values="-100 407.9455389781752;1746 407.9455389781752" dur="500s" repeatCount="indefinite" begin="-3.750648869587536s"></animateTransform>
        <path d="M84.717,33.597c0.791-2.503,1.186-5.138,1.186-7.773C85.903,11.594,74.308,0,60.079,0 c-9.881,0-18.445,5.534-22.793,13.702c-1.581-0.527-3.426-0.791-5.138-0.791c-9.486,0-17.128,7.642-17.128,17.128 c0,1.186,0.132,2.372,0.395,3.426C6.719,34.783,0,42.424,0,51.515C0,61.66,8.169,69.829,18.314,69.829h63.373 C91.831,69.829,100,61.66,100,51.515C99.868,42.556,93.281,35.046,84.717,33.597z" fill="rgba(255, 255, 255, 0.253366935483871)" transform="scale(0.7)"></path>
    </g><g transform="translate(-100 880.388704480489) rotate(0)">
        <animateTransform attributeName="transform" type="translate" keyTimes="0;1" values="-100 880.388704480489;1746 880.388704480489" dur="500s" repeatCount="indefinite" begin="-447.15926549903327s"></animateTransform>
        <path d="M84.717,33.597c0.791-2.503,1.186-5.138,1.186-7.773C85.903,11.594,74.308,0,60.079,0 c-9.881,0-18.445,5.534-22.793,13.702c-1.581-0.527-3.426-0.791-5.138-0.791c-9.486,0-17.128,7.642-17.128,17.128 c0,1.186,0.132,2.372,0.395,3.426C6.719,34.783,0,42.424,0,51.515C0,61.66,8.169,69.829,18.314,69.829h63.373 C91.831,69.829,100,61.66,100,51.515C99.868,42.556,93.281,35.046,84.717,33.597z" fill="rgba(255, 255, 255, 0.253366935483871)" transform="scale(0.7)"></path>
    </g><g transform="translate(-100 231.9593468995293) rotate(0)">
        <animateTransform attributeName="transform" type="translate" keyTimes="0;1" values="-100 231.9593468995293;1746 231.9593468995293" dur="500s" repeatCount="indefinite" begin="-869.6326820676799s"></animateTransform>
        <path d="M84.717,33.597c0.791-2.503,1.186-5.138,1.186-7.773C85.903,11.594,74.308,0,60.079,0 c-9.881,0-18.445,5.534-22.793,13.702c-1.581-0.527-3.426-0.791-5.138-0.791c-9.486,0-17.128,7.642-17.128,17.128 c0,1.186,0.132,2.372,0.395,3.426C6.719,34.783,0,42.424,0,51.515C0,61.66,8.169,69.829,18.314,69.829h63.373 C91.831,69.829,100,61.66,100,51.515C99.868,42.556,93.281,35.046,84.717,33.597z" fill="rgba(255, 255, 255, 0.253366935483871)" transform="scale(0.7)"></path>
    </g><g transform="translate(-100 421.83457735923247) rotate(0)">
        <animateTransform attributeName="transform" type="translate" keyTimes="0;1" values="-100 421.83457735923247;1746 421.83457735923247" dur="500s" repeatCount="indefinite" begin="-6.407968277529985s"></animateTransform>
        <path d="M84.717,33.597c0.791-2.503,1.186-5.138,1.186-7.773C85.903,11.594,74.308,0,60.079,0 c-9.881,0-18.445,5.534-22.793,13.702c-1.581-0.527-3.426-0.791-5.138-0.791c-9.486,0-17.128,7.642-17.128,17.128 c0,1.186,0.132,2.372,0.395,3.426C6.719,34.783,0,42.424,0,51.515C0,61.66,8.169,69.829,18.314,69.829h63.373 C91.831,69.829,100,61.66,100,51.515C99.868,42.556,93.281,35.046,84.717,33.597z" fill="rgba(255, 255, 255, 0.253366935483871)" transform="scale(0.7)"></path>
    </g><g transform="translate(-100 495.259252585613) rotate(0)">
        <animateTransform attributeName="transform" type="translate" keyTimes="0;1" values="-100 495.259252585613;1746 495.259252585613" dur="500s" repeatCount="indefinite" begin="-51.71603328126984s"></animateTransform>
        <path d="M84.717,33.597c0.791-2.503,1.186-5.138,1.186-7.773C85.903,11.594,74.308,0,60.079,0 c-9.881,0-18.445,5.534-22.793,13.702c-1.581-0.527-3.426-0.791-5.138-0.791c-9.486,0-17.128,7.642-17.128,17.128 c0,1.186,0.132,2.372,0.395,3.426C6.719,34.783,0,42.424,0,51.515C0,61.66,8.169,69.829,18.314,69.829h63.373 C91.831,69.829,100,61.66,100,51.515C99.868,42.556,93.281,35.046,84.717,33.597z" fill="rgba(255, 255, 255, 0.253366935483871)" transform="scale(0.7)"></path>
    </g><g transform="translate(-100 205.80319836977426) rotate(0)">
        <animateTransform attributeName="transform" type="translate" keyTimes="0;1" values="-100 205.80319836977426;1746 205.80319836977426" dur="333.3333333333333s" repeatCount="indefinite" begin="-673.5966061677175s"></animateTransform>
        <path d="M84.717,33.597c0.791-2.503,1.186-5.138,1.186-7.773C85.903,11.594,74.308,0,60.079,0 c-9.881,0-18.445,5.534-22.793,13.702c-1.581-0.527-3.426-0.791-5.138-0.791c-9.486,0-17.128,7.642-17.128,17.128 c0,1.186,0.132,2.372,0.395,3.426C6.719,34.783,0,42.424,0,51.515C0,61.66,8.169,69.829,18.314,69.829h63.373 C91.831,69.829,100,61.66,100,51.515C99.868,42.556,93.281,35.046,84.717,33.597z" fill="rgba(241, 242, 243, 0.2617540322580645)" transform="scale(0.85)"></path>
    </g><g transform="translate(-100 60.60801434388492) rotate(0)">
        <animateTransform attributeName="transform" type="translate" keyTimes="0;1" values="-100 60.60801434388492;1746 60.60801434388492" dur="333.3333333333333s" repeatCount="indefinite" begin="-294.74032476990186s"></animateTransform>
        <path d="M84.717,33.597c0.791-2.503,1.186-5.138,1.186-7.773C85.903,11.594,74.308,0,60.079,0 c-9.881,0-18.445,5.534-22.793,13.702c-1.581-0.527-3.426-0.791-5.138-0.791c-9.486,0-17.128,7.642-17.128,17.128 c0,1.186,0.132,2.372,0.395,3.426C6.719,34.783,0,42.424,0,51.515C0,61.66,8.169,69.829,18.314,69.829h63.373 C91.831,69.829,100,61.66,100,51.515C99.868,42.556,93.281,35.046,84.717,33.597z" fill="rgba(241, 242, 243, 0.2617540322580645)" transform="scale(0.85)"></path>
    </g><g transform="translate(-100 627.0082566786783) rotate(0)">
        <animateTransform attributeName="transform" type="translate" keyTimes="0;1" values="-100 627.0082566786783;1746 627.0082566786783" dur="333.3333333333333s" repeatCount="indefinite" begin="-374.58641665278145s"></animateTransform>
        <path d="M84.717,33.597c0.791-2.503,1.186-5.138,1.186-7.773C85.903,11.594,74.308,0,60.079,0 c-9.881,0-18.445,5.534-22.793,13.702c-1.581-0.527-3.426-0.791-5.138-0.791c-9.486,0-17.128,7.642-17.128,17.128 c0,1.186,0.132,2.372,0.395,3.426C6.719,34.783,0,42.424,0,51.515C0,61.66,8.169,69.829,18.314,69.829h63.373 C91.831,69.829,100,61.66,100,51.515C99.868,42.556,93.281,35.046,84.717,33.597z" fill="rgba(241, 242, 243, 0.2617540322580645)" transform="scale(0.85)"></path>
    </g><g transform="translate(-100 781.8489324616751) rotate(0)">
        <animateTransform attributeName="transform" type="translate" keyTimes="0;1" values="-100 781.8489324616751;1746 781.8489324616751" dur="333.3333333333333s" repeatCount="indefinite" begin="-268.74236525073655s"></animateTransform>
        <path d="M84.717,33.597c0.791-2.503,1.186-5.138,1.186-7.773C85.903,11.594,74.308,0,60.079,0 c-9.881,0-18.445,5.534-22.793,13.702c-1.581-0.527-3.426-0.791-5.138-0.791c-9.486,0-17.128,7.642-17.128,17.128 c0,1.186,0.132,2.372,0.395,3.426C6.719,34.783,0,42.424,0,51.515C0,61.66,8.169,69.829,18.314,69.829h63.373 C91.831,69.829,100,61.66,100,51.515C99.868,42.556,93.281,35.046,84.717,33.597z" fill="rgba(241, 242, 243, 0.2617540322580645)" transform="scale(0.85)"></path>
    </g><g transform="translate(-100 704.6486763241365) rotate(0)">
        <animateTransform attributeName="transform" type="translate" keyTimes="0;1" values="-100 704.6486763241365;1746 704.6486763241365" dur="333.3333333333333s" repeatCount="indefinite" begin="-701.9226456848199s"></animateTransform>
        <path d="M84.717,33.597c0.791-2.503,1.186-5.138,1.186-7.773C85.903,11.594,74.308,0,60.079,0 c-9.881,0-18.445,5.534-22.793,13.702c-1.581-0.527-3.426-0.791-5.138-0.791c-9.486,0-17.128,7.642-17.128,17.128 c0,1.186,0.132,2.372,0.395,3.426C6.719,34.783,0,42.424,0,51.515C0,61.66,8.169,69.829,18.314,69.829h63.373 C91.831,69.829,100,61.66,100,51.515C99.868,42.556,93.281,35.046,84.717,33.597z" fill="rgba(241, 242, 243, 0.2617540322580645)" transform="scale(0.85)"></path>
    </g><g transform="translate(-100 254.11676997363477) rotate(0)">
        <animateTransform attributeName="transform" type="translate" keyTimes="0;1" values="-100 254.11676997363477;1746 254.11676997363477" dur="333.3333333333333s" repeatCount="indefinite" begin="-732.7534443224599s"></animateTransform>
        <path d="M84.717,33.597c0.791-2.503,1.186-5.138,1.186-7.773C85.903,11.594,74.308,0,60.079,0 c-9.881,0-18.445,5.534-22.793,13.702c-1.581-0.527-3.426-0.791-5.138-0.791c-9.486,0-17.128,7.642-17.128,17.128 c0,1.186,0.132,2.372,0.395,3.426C6.719,34.783,0,42.424,0,51.515C0,61.66,8.169,69.829,18.314,69.829h63.373 C91.831,69.829,100,61.66,100,51.515C99.868,42.556,93.281,35.046,84.717,33.597z" fill="rgba(241, 242, 243, 0.2617540322580645)" transform="scale(0.85)"></path>
    </g><g transform="translate(-100 148.6622656535769) rotate(0)">
        <animateTransform attributeName="transform" type="translate" keyTimes="0;1" values="-100 148.6622656535769;1746 148.6622656535769" dur="333.3333333333333s" repeatCount="indefinite" begin="-824.8010896453142s"></animateTransform>
        <path d="M84.717,33.597c0.791-2.503,1.186-5.138,1.186-7.773C85.903,11.594,74.308,0,60.079,0 c-9.881,0-18.445,5.534-22.793,13.702c-1.581-0.527-3.426-0.791-5.138-0.791c-9.486,0-17.128,7.642-17.128,17.128 c0,1.186,0.132,2.372,0.395,3.426C6.719,34.783,0,42.424,0,51.515C0,61.66,8.169,69.829,18.314,69.829h63.373 C91.831,69.829,100,61.66,100,51.515C99.868,42.556,93.281,35.046,84.717,33.597z" fill="rgba(241, 242, 243, 0.2617540322580645)" transform="scale(0.85)"></path>
    </g><g transform="translate(-100 356.64123542573594) rotate(0)">
        <animateTransform attributeName="transform" type="translate" keyTimes="0;1" values="-100 356.64123542573594;1746 356.64123542573594" dur="333.3333333333333s" repeatCount="indefinite" begin="-722.8279518323275s"></animateTransform>
        <path d="M84.717,33.597c0.791-2.503,1.186-5.138,1.186-7.773C85.903,11.594,74.308,0,60.079,0 c-9.881,0-18.445,5.534-22.793,13.702c-1.581-0.527-3.426-0.791-5.138-0.791c-9.486,0-17.128,7.642-17.128,17.128 c0,1.186,0.132,2.372,0.395,3.426C6.719,34.783,0,42.424,0,51.515C0,61.66,8.169,69.829,18.314,69.829h63.373 C91.831,69.829,100,61.66,100,51.515C99.868,42.556,93.281,35.046,84.717,33.597z" fill="rgba(241, 242, 243, 0.2617540322580645)" transform="scale(0.85)"></path>
    </g><g transform="translate(-100 334.723224913673) rotate(0)">
        <animateTransform attributeName="transform" type="translate" keyTimes="0;1" values="-100 334.723224913673;1746 334.723224913673" dur="333.3333333333333s" repeatCount="indefinite" begin="-38.50241681208089s"></animateTransform>
        <path d="M84.717,33.597c0.791-2.503,1.186-5.138,1.186-7.773C85.903,11.594,74.308,0,60.079,0 c-9.881,0-18.445,5.534-22.793,13.702c-1.581-0.527-3.426-0.791-5.138-0.791c-9.486,0-17.128,7.642-17.128,17.128 c0,1.186,0.132,2.372,0.395,3.426C6.719,34.783,0,42.424,0,51.515C0,61.66,8.169,69.829,18.314,69.829h63.373 C91.831,69.829,100,61.66,100,51.515C99.868,42.556,93.281,35.046,84.717,33.597z" fill="rgba(241, 242, 243, 0.2617540322580645)" transform="scale(0.85)"></path>
    </g><g transform="translate(-100 767.5871767141989) rotate(0)">
        <animateTransform attributeName="transform" type="translate" keyTimes="0;1" values="-100 767.5871767141989;1746 767.5871767141989" dur="333.3333333333333s" repeatCount="indefinite" begin="-310.53961987401715s"></animateTransform>
        <path d="M84.717,33.597c0.791-2.503,1.186-5.138,1.186-7.773C85.903,11.594,74.308,0,60.079,0 c-9.881,0-18.445,5.534-22.793,13.702c-1.581-0.527-3.426-0.791-5.138-0.791c-9.486,0-17.128,7.642-17.128,17.128 c0,1.186,0.132,2.372,0.395,3.426C6.719,34.783,0,42.424,0,51.515C0,61.66,8.169,69.829,18.314,69.829h63.373 C91.831,69.829,100,61.66,100,51.515C99.868,42.556,93.281,35.046,84.717,33.597z" fill="rgba(241, 242, 243, 0.2617540322580645)" transform="scale(0.85)"></path>
    </g><g transform="translate(-100 733.5099243001167) rotate(0)">
        <animateTransform attributeName="transform" type="translate" keyTimes="0;1" values="-100 733.5099243001167;1746 733.5099243001167" dur="333.3333333333333s" repeatCount="indefinite" begin="-790.6030137858104s"></animateTransform>
        <path d="M84.717,33.597c0.791-2.503,1.186-5.138,1.186-7.773C85.903,11.594,74.308,0,60.079,0 c-9.881,0-18.445,5.534-22.793,13.702c-1.581-0.527-3.426-0.791-5.138-0.791c-9.486,0-17.128,7.642-17.128,17.128 c0,1.186,0.132,2.372,0.395,3.426C6.719,34.783,0,42.424,0,51.515C0,61.66,8.169,69.829,18.314,69.829h63.373 C91.831,69.829,100,61.66,100,51.515C99.868,42.556,93.281,35.046,84.717,33.597z" fill="rgba(241, 242, 243, 0.2617540322580645)" transform="scale(0.85)"></path>
    </g><g transform="translate(-100 472.93225048625015) rotate(0)">
        <animateTransform attributeName="transform" type="translate" keyTimes="0;1" values="-100 472.93225048625015;1746 472.93225048625015" dur="250s" repeatCount="indefinite" begin="-64.73477891781987s"></animateTransform>
        <path d="M84.717,33.597c0.791-2.503,1.186-5.138,1.186-7.773C85.903,11.594,74.308,0,60.079,0 c-9.881,0-18.445,5.534-22.793,13.702c-1.581-0.527-3.426-0.791-5.138-0.791c-9.486,0-17.128,7.642-17.128,17.128 c0,1.186,0.132,2.372,0.395,3.426C6.719,34.783,0,42.424,0,51.515C0,61.66,8.169,69.829,18.314,69.829h63.373 C91.831,69.829,100,61.66,100,51.515C99.868,42.556,93.281,35.046,84.717,33.597z" fill="rgba(189, 222, 255, 0.27852822580645153)" transform="scale(1)"></path>
    </g><g transform="translate(-100 367.71273469819283) rotate(0)">
        <animateTransform attributeName="transform" type="translate" keyTimes="0;1" values="-100 367.71273469819283;1746 367.71273469819283" dur="250s" repeatCount="indefinite" begin="-21.99773313729292s"></animateTransform>
        <path d="M84.717,33.597c0.791-2.503,1.186-5.138,1.186-7.773C85.903,11.594,74.308,0,60.079,0 c-9.881,0-18.445,5.534-22.793,13.702c-1.581-0.527-3.426-0.791-5.138-0.791c-9.486,0-17.128,7.642-17.128,17.128 c0,1.186,0.132,2.372,0.395,3.426C6.719,34.783,0,42.424,0,51.515C0,61.66,8.169,69.829,18.314,69.829h63.373 C91.831,69.829,100,61.66,100,51.515C99.868,42.556,93.281,35.046,84.717,33.597z" fill="rgba(189, 222, 255, 0.27852822580645153)" transform="scale(1)"></path>
    </g><g transform="translate(-100 45.946051886220275) rotate(0)">
        <animateTransform attributeName="transform" type="translate" keyTimes="0;1" values="-100 45.946051886220275;1746 45.946051886220275" dur="250s" repeatCount="indefinite" begin="-785.3979020992963s"></animateTransform>
        <path d="M84.717,33.597c0.791-2.503,1.186-5.138,1.186-7.773C85.903,11.594,74.308,0,60.079,0 c-9.881,0-18.445,5.534-22.793,13.702c-1.581-0.527-3.426-0.791-5.138-0.791c-9.486,0-17.128,7.642-17.128,17.128 c0,1.186,0.132,2.372,0.395,3.426C6.719,34.783,0,42.424,0,51.515C0,61.66,8.169,69.829,18.314,69.829h63.373 C91.831,69.829,100,61.66,100,51.515C99.868,42.556,93.281,35.046,84.717,33.597z" fill="rgba(189, 222, 255, 0.27852822580645153)" transform="scale(1)"></path>
    </g><g transform="translate(-100 400.5861301802305) rotate(0)">
        <animateTransform attributeName="transform" type="translate" keyTimes="0;1" values="-100 400.5861301802305;1746 400.5861301802305" dur="250s" repeatCount="indefinite" begin="-150.83482250231128s"></animateTransform>
        <path d="M84.717,33.597c0.791-2.503,1.186-5.138,1.186-7.773C85.903,11.594,74.308,0,60.079,0 c-9.881,0-18.445,5.534-22.793,13.702c-1.581-0.527-3.426-0.791-5.138-0.791c-9.486,0-17.128,7.642-17.128,17.128 c0,1.186,0.132,2.372,0.395,3.426C6.719,34.783,0,42.424,0,51.515C0,61.66,8.169,69.829,18.314,69.829h63.373 C91.831,69.829,100,61.66,100,51.515C99.868,42.556,93.281,35.046,84.717,33.597z" fill="rgba(189, 222, 255, 0.27852822580645153)" transform="scale(1)"></path>
    </g><g transform="translate(-100 722.7612065762858) rotate(0)">
        <animateTransform attributeName="transform" type="translate" keyTimes="0;1" values="-100 722.7612065762858;1746 722.7612065762858" dur="250s" repeatCount="indefinite" begin="-693.3092653603627s"></animateTransform>
        <path d="M84.717,33.597c0.791-2.503,1.186-5.138,1.186-7.773C85.903,11.594,74.308,0,60.079,0 c-9.881,0-18.445,5.534-22.793,13.702c-1.581-0.527-3.426-0.791-5.138-0.791c-9.486,0-17.128,7.642-17.128,17.128 c0,1.186,0.132,2.372,0.395,3.426C6.719,34.783,0,42.424,0,51.515C0,61.66,8.169,69.829,18.314,69.829h63.373 C91.831,69.829,100,61.66,100,51.515C99.868,42.556,93.281,35.046,84.717,33.597z" fill="rgba(189, 222, 255, 0.27852822580645153)" transform="scale(1)"></path>
    </g><g transform="translate(-100 692.146999129764) rotate(0)">
        <animateTransform attributeName="transform" type="translate" keyTimes="0;1" values="-100 692.146999129764;1746 692.146999129764" dur="250s" repeatCount="indefinite" begin="-905.6190812814929s"></animateTransform>
        <path d="M84.717,33.597c0.791-2.503,1.186-5.138,1.186-7.773C85.903,11.594,74.308,0,60.079,0 c-9.881,0-18.445,5.534-22.793,13.702c-1.581-0.527-3.426-0.791-5.138-0.791c-9.486,0-17.128,7.642-17.128,17.128 c0,1.186,0.132,2.372,0.395,3.426C6.719,34.783,0,42.424,0,51.515C0,61.66,8.169,69.829,18.314,69.829h63.373 C91.831,69.829,100,61.66,100,51.515C99.868,42.556,93.281,35.046,84.717,33.597z" fill="rgba(189, 222, 255, 0.27852822580645153)" transform="scale(1)"></path>
    </g><g transform="translate(-100 717.7690818947223) rotate(0)">
        <animateTransform attributeName="transform" type="translate" keyTimes="0;1" values="-100 717.7690818947223;1746 717.7690818947223" dur="250s" repeatCount="indefinite" begin="-428.3388838167224s"></animateTransform>
        <path d="M84.717,33.597c0.791-2.503,1.186-5.138,1.186-7.773C85.903,11.594,74.308,0,60.079,0 c-9.881,0-18.445,5.534-22.793,13.702c-1.581-0.527-3.426-0.791-5.138-0.791c-9.486,0-17.128,7.642-17.128,17.128 c0,1.186,0.132,2.372,0.395,3.426C6.719,34.783,0,42.424,0,51.515C0,61.66,8.169,69.829,18.314,69.829h63.373 C91.831,69.829,100,61.66,100,51.515C99.868,42.556,93.281,35.046,84.717,33.597z" fill="rgba(189, 222, 255, 0.27852822580645153)" transform="scale(1)"></path>
    </g><g transform="translate(-100 815.0648390084464) rotate(0)">
        <animateTransform attributeName="transform" type="translate" keyTimes="0;1" values="-100 815.0648390084464;1746 815.0648390084464" dur="250s" repeatCount="indefinite" begin="-667.5166792012109s"></animateTransform>
        <path d="M84.717,33.597c0.791-2.503,1.186-5.138,1.186-7.773C85.903,11.594,74.308,0,60.079,0 c-9.881,0-18.445,5.534-22.793,13.702c-1.581-0.527-3.426-0.791-5.138-0.791c-9.486,0-17.128,7.642-17.128,17.128 c0,1.186,0.132,2.372,0.395,3.426C6.719,34.783,0,42.424,0,51.515C0,61.66,8.169,69.829,18.314,69.829h63.373 C91.831,69.829,100,61.66,100,51.515C99.868,42.556,93.281,35.046,84.717,33.597z" fill="rgba(189, 222, 255, 0.27852822580645153)" transform="scale(1)"></path>
    </g><g transform="translate(-100 499.7665372832511) rotate(0)">
        <animateTransform attributeName="transform" type="translate" keyTimes="0;1" values="-100 499.7665372832511;1746 499.7665372832511" dur="250s" repeatCount="indefinite" begin="-46.714185168140745s"></animateTransform>
        <path d="M84.717,33.597c0.791-2.503,1.186-5.138,1.186-7.773C85.903,11.594,74.308,0,60.079,0 c-9.881,0-18.445,5.534-22.793,13.702c-1.581-0.527-3.426-0.791-5.138-0.791c-9.486,0-17.128,7.642-17.128,17.128 c0,1.186,0.132,2.372,0.395,3.426C6.719,34.783,0,42.424,0,51.515C0,61.66,8.169,69.829,18.314,69.829h63.373 C91.831,69.829,100,61.66,100,51.515C99.868,42.556,93.281,35.046,84.717,33.597z" fill="rgba(189, 222, 255, 0.27852822580645153)" transform="scale(1)"></path>
    </g><g transform="translate(-100 394.38858365555035) rotate(0)">
        <animateTransform attributeName="transform" type="translate" keyTimes="0;1" values="-100 394.38858365555035;1746 394.38858365555035" dur="250s" repeatCount="indefinite" begin="-660.1540971500106s"></animateTransform>
        <path d="M84.717,33.597c0.791-2.503,1.186-5.138,1.186-7.773C85.903,11.594,74.308,0,60.079,0 c-9.881,0-18.445,5.534-22.793,13.702c-1.581-0.527-3.426-0.791-5.138-0.791c-9.486,0-17.128,7.642-17.128,17.128 c0,1.186,0.132,2.372,0.395,3.426C6.719,34.783,0,42.424,0,51.515C0,61.66,8.169,69.829,18.314,69.829h63.373 C91.831,69.829,100,61.66,100,51.515C99.868,42.556,93.281,35.046,84.717,33.597z" fill="rgba(189, 222, 255, 0.27852822580645153)" transform="scale(1)"></path>
    </g><g transform="translate(-100 218.9775180403934) rotate(0)">
        <animateTransform attributeName="transform" type="translate" keyTimes="0;1" values="-100 218.9775180403934;1746 218.9775180403934" dur="250s" repeatCount="indefinite" begin="-356.4140744218525s"></animateTransform>
        <path d="M84.717,33.597c0.791-2.503,1.186-5.138,1.186-7.773C85.903,11.594,74.308,0,60.079,0 c-9.881,0-18.445,5.534-22.793,13.702c-1.581-0.527-3.426-0.791-5.138-0.791c-9.486,0-17.128,7.642-17.128,17.128 c0,1.186,0.132,2.372,0.395,3.426C6.719,34.783,0,42.424,0,51.515C0,61.66,8.169,69.829,18.314,69.829h63.373 C91.831,69.829,100,61.66,100,51.515C99.868,42.556,93.281,35.046,84.717,33.597z" fill="rgba(189, 222, 255, 0.27852822580645153)" transform="scale(1)"></path>
    </g></g>
</svg>