<svg xmlns="http://www.w3.org/2000/svg" xmlns:xlink="http://www.w3.org/1999/xlink" style="margin:auto;background:#121212;display:block;z-index:1;position:relative" width="1727" height="892" preserveAspectRatio="xMidYMid" viewBox="0 0 1727 892">
    <g transform="translate(863.5,446) scale(1,1) translate(-863.5,-446)"><g transform="translate(-100 418.7015464688896) rotate(0)">
        <animateTransform attributeName="transform" type="translate" keyTimes="0;1" values="-100 418.7015464688896;1727 418.7015464688896" dur="500s" repeatCount="indefinite" begin="-205.70062277847677s"></animateTransform>
        <path d="M84.717,33.597c0.791-2.503,1.186-5.138,1.186-7.773C85.903,11.594,74.308,0,60.079,0 c-9.881,0-18.445,5.534-22.793,13.702c-1.581-0.527-3.426-0.791-5.138-0.791c-9.486,0-17.128,7.642-17.128,17.128 c0,1.186,0.132,2.372,0.395,3.426C6.719,34.783,0,42.424,0,51.515C0,61.66,8.169,69.829,18.314,69.829h63.373 C91.831,69.829,100,61.66,100,51.515C99.868,42.556,93.281,35.046,84.717,33.597z" fill="rgba(189, 222, 255, 0.4043346774193549)" transform="scale(0.55)"></path>
    </g><g transform="translate(-100 741.8427284793121) rotate(0)">
        <animateTransform attributeName="transform" type="translate" keyTimes="0;1" values="-100 741.8427284793121;1727 741.8427284793121" dur="500s" repeatCount="indefinite" begin="-119.24664462140888s"></animateTransform>
        <path d="M84.717,33.597c0.791-2.503,1.186-5.138,1.186-7.773C85.903,11.594,74.308,0,60.079,0 c-9.881,0-18.445,5.534-22.793,13.702c-1.581-0.527-3.426-0.791-5.138-0.791c-9.486,0-17.128,7.642-17.128,17.128 c0,1.186,0.132,2.372,0.395,3.426C6.719,34.783,0,42.424,0,51.515C0,61.66,8.169,69.829,18.314,69.829h63.373 C91.831,69.829,100,61.66,100,51.515C99.868,42.556,93.281,35.046,84.717,33.597z" fill="rgba(189, 222, 255, 0.4043346774193549)" transform="scale(0.55)"></path>
    </g><g transform="translate(-100 500.8965438995881) rotate(0)">
        <animateTransform attributeName="transform" type="translate" keyTimes="0;1" values="-100 500.8965438995881;1727 500.8965438995881" dur="500s" repeatCount="indefinite" begin="-193.19289500349944s"></animateTransform>
        <path d="M84.717,33.597c0.791-2.503,1.186-5.138,1.186-7.773C85.903,11.594,74.308,0,60.079,0 c-9.881,0-18.445,5.534-22.793,13.702c-1.581-0.527-3.426-0.791-5.138-0.791c-9.486,0-17.128,7.642-17.128,17.128 c0,1.186,0.132,2.372,0.395,3.426C6.719,34.783,0,42.424,0,51.515C0,61.66,8.169,69.829,18.314,69.829h63.373 C91.831,69.829,100,61.66,100,51.515C99.868,42.556,93.281,35.046,84.717,33.597z" fill="rgba(189, 222, 255, 0.4043346774193549)" transform="scale(0.55)"></path>
    </g><g transform="translate(-100 885.2955014932093) rotate(0)">
        <animateTransform attributeName="transform" type="translate" keyTimes="0;1" values="-100 885.2955014932093;1727 885.2955014932093" dur="500s" repeatCount="indefinite" begin="-485.0695670126497s"></animateTransform>
        <path d="M84.717,33.597c0.791-2.503,1.186-5.138,1.186-7.773C85.903,11.594,74.308,0,60.079,0 c-9.881,0-18.445,5.534-22.793,13.702c-1.581-0.527-3.426-0.791-5.138-0.791c-9.486,0-17.128,7.642-17.128,17.128 c0,1.186,0.132,2.372,0.395,3.426C6.719,34.783,0,42.424,0,51.515C0,61.66,8.169,69.829,18.314,69.829h63.373 C91.831,69.829,100,61.66,100,51.515C99.868,42.556,93.281,35.046,84.717,33.597z" fill="rgba(189, 222, 255, 0.4043346774193549)" transform="scale(0.55)"></path>
    </g><g transform="translate(-100 372.7294631885219) rotate(0)">
        <animateTransform attributeName="transform" type="translate" keyTimes="0;1" values="-100 372.7294631885219;1727 372.7294631885219" dur="500s" repeatCount="indefinite" begin="-95.64352718247271s"></animateTransform>
        <path d="M84.717,33.597c0.791-2.503,1.186-5.138,1.186-7.773C85.903,11.594,74.308,0,60.079,0 c-9.881,0-18.445,5.534-22.793,13.702c-1.581-0.527-3.426-0.791-5.138-0.791c-9.486,0-17.128,7.642-17.128,17.128 c0,1.186,0.132,2.372,0.395,3.426C6.719,34.783,0,42.424,0,51.515C0,61.66,8.169,69.829,18.314,69.829h63.373 C91.831,69.829,100,61.66,100,51.515C99.868,42.556,93.281,35.046,84.717,33.597z" fill="rgba(189, 222, 255, 0.4043346774193549)" transform="scale(0.55)"></path>
    </g><g transform="translate(-100 690.6038684213537) rotate(0)">
        <animateTransform attributeName="transform" type="translate" keyTimes="0;1" values="-100 690.6038684213537;1727 690.6038684213537" dur="500s" repeatCount="indefinite" begin="-132.24059653574548s"></animateTransform>
        <path d="M84.717,33.597c0.791-2.503,1.186-5.138,1.186-7.773C85.903,11.594,74.308,0,60.079,0 c-9.881,0-18.445,5.534-22.793,13.702c-1.581-0.527-3.426-0.791-5.138-0.791c-9.486,0-17.128,7.642-17.128,17.128 c0,1.186,0.132,2.372,0.395,3.426C6.719,34.783,0,42.424,0,51.515C0,61.66,8.169,69.829,18.314,69.829h63.373 C91.831,69.829,100,61.66,100,51.515C99.868,42.556,93.281,35.046,84.717,33.597z" fill="rgba(189, 222, 255, 0.4043346774193549)" transform="scale(0.55)"></path>
    </g><g transform="translate(-100 125.92803907161434) rotate(0)">
        <animateTransform attributeName="transform" type="translate" keyTimes="0;1" values="-100 125.92803907161434;1727 125.92803907161434" dur="500s" repeatCount="indefinite" begin="-171.2120931866884s"></animateTransform>
        <path d="M84.717,33.597c0.791-2.503,1.186-5.138,1.186-7.773C85.903,11.594,74.308,0,60.079,0 c-9.881,0-18.445,5.534-22.793,13.702c-1.581-0.527-3.426-0.791-5.138-0.791c-9.486,0-17.128,7.642-17.128,17.128 c0,1.186,0.132,2.372,0.395,3.426C6.719,34.783,0,42.424,0,51.515C0,61.66,8.169,69.829,18.314,69.829h63.373 C91.831,69.829,100,61.66,100,51.515C99.868,42.556,93.281,35.046,84.717,33.597z" fill="rgba(189, 222, 255, 0.4043346774193549)" transform="scale(0.55)"></path>
    </g><g transform="translate(-100 547.9866503166288) rotate(0)">
        <animateTransform attributeName="transform" type="translate" keyTimes="0;1" values="-100 547.9866503166288;1727 547.9866503166288" dur="500s" repeatCount="indefinite" begin="-304.71929254183027s"></animateTransform>
        <path d="M84.717,33.597c0.791-2.503,1.186-5.138,1.186-7.773C85.903,11.594,74.308,0,60.079,0 c-9.881,0-18.445,5.534-22.793,13.702c-1.581-0.527-3.426-0.791-5.138-0.791c-9.486,0-17.128,7.642-17.128,17.128 c0,1.186,0.132,2.372,0.395,3.426C6.719,34.783,0,42.424,0,51.515C0,61.66,8.169,69.829,18.314,69.829h63.373 C91.831,69.829,100,61.66,100,51.515C99.868,42.556,93.281,35.046,84.717,33.597z" fill="rgba(189, 222, 255, 0.4043346774193549)" transform="scale(0.55)"></path>
    </g><g transform="translate(-100 570.213969930579) rotate(0)">
        <animateTransform attributeName="transform" type="translate" keyTimes="0;1" values="-100 570.213969930579;1727 570.213969930579" dur="500s" repeatCount="indefinite" begin="-207.60647028288204s"></animateTransform>
        <path d="M84.717,33.597c0.791-2.503,1.186-5.138,1.186-7.773C85.903,11.594,74.308,0,60.079,0 c-9.881,0-18.445,5.534-22.793,13.702c-1.581-0.527-3.426-0.791-5.138-0.791c-9.486,0-17.128,7.642-17.128,17.128 c0,1.186,0.132,2.372,0.395,3.426C6.719,34.783,0,42.424,0,51.515C0,61.66,8.169,69.829,18.314,69.829h63.373 C91.831,69.829,100,61.66,100,51.515C99.868,42.556,93.281,35.046,84.717,33.597z" fill="rgba(189, 222, 255, 0.4043346774193549)" transform="scale(0.55)"></path>
    </g><g transform="translate(-100 848.911060072859) rotate(0)">
        <animateTransform attributeName="transform" type="translate" keyTimes="0;1" values="-100 848.911060072859;1727 848.911060072859" dur="500s" repeatCount="indefinite" begin="-196.4493295079115s"></animateTransform>
        <path d="M84.717,33.597c0.791-2.503,1.186-5.138,1.186-7.773C85.903,11.594,74.308,0,60.079,0 c-9.881,0-18.445,5.534-22.793,13.702c-1.581-0.527-3.426-0.791-5.138-0.791c-9.486,0-17.128,7.642-17.128,17.128 c0,1.186,0.132,2.372,0.395,3.426C6.719,34.783,0,42.424,0,51.515C0,61.66,8.169,69.829,18.314,69.829h63.373 C91.831,69.829,100,61.66,100,51.515C99.868,42.556,93.281,35.046,84.717,33.597z" fill="rgba(189, 222, 255, 0.4043346774193549)" transform="scale(0.55)"></path>
    </g><g transform="translate(-100 181.10042012732993) rotate(0)">
        <animateTransform attributeName="transform" type="translate" keyTimes="0;1" values="-100 181.10042012732993;1727 181.10042012732993" dur="500s" repeatCount="indefinite" begin="-38.26047716667447s"></animateTransform>
        <path d="M84.717,33.597c0.791-2.503,1.186-5.138,1.186-7.773C85.903,11.594,74.308,0,60.079,0 c-9.881,0-18.445,5.534-22.793,13.702c-1.581-0.527-3.426-0.791-5.138-0.791c-9.486,0-17.128,7.642-17.128,17.128 c0,1.186,0.132,2.372,0.395,3.426C6.719,34.783,0,42.424,0,51.515C0,61.66,8.169,69.829,18.314,69.829h63.373 C91.831,69.829,100,61.66,100,51.515C99.868,42.556,93.281,35.046,84.717,33.597z" fill="rgba(189, 222, 255, 0.4043346774193549)" transform="scale(0.55)"></path>
    </g><g transform="translate(-100 754.431344305998) rotate(0)">
        <animateTransform attributeName="transform" type="translate" keyTimes="0;1" values="-100 754.431344305998;1727 754.431344305998" dur="250s" repeatCount="indefinite" begin="-151.26873522096952s"></animateTransform>
        <path d="M84.717,33.597c0.791-2.503,1.186-5.138,1.186-7.773C85.903,11.594,74.308,0,60.079,0 c-9.881,0-18.445,5.534-22.793,13.702c-1.581-0.527-3.426-0.791-5.138-0.791c-9.486,0-17.128,7.642-17.128,17.128 c0,1.186,0.132,2.372,0.395,3.426C6.719,34.783,0,42.424,0,51.515C0,61.66,8.169,69.829,18.314,69.829h63.373 C91.831,69.829,100,61.66,100,51.515C99.868,42.556,93.281,35.046,84.717,33.597z" fill="rgba(255, 255, 255, 0.45465725806451607)" transform="scale(0.7)"></path>
    </g><g transform="translate(-100 375.6077823995075) rotate(0)">
        <animateTransform attributeName="transform" type="translate" keyTimes="0;1" values="-100 375.6077823995075;1727 375.6077823995075" dur="250s" repeatCount="indefinite" begin="-196.4740433367893s"></animateTransform>
        <path d="M84.717,33.597c0.791-2.503,1.186-5.138,1.186-7.773C85.903,11.594,74.308,0,60.079,0 c-9.881,0-18.445,5.534-22.793,13.702c-1.581-0.527-3.426-0.791-5.138-0.791c-9.486,0-17.128,7.642-17.128,17.128 c0,1.186,0.132,2.372,0.395,3.426C6.719,34.783,0,42.424,0,51.515C0,61.66,8.169,69.829,18.314,69.829h63.373 C91.831,69.829,100,61.66,100,51.515C99.868,42.556,93.281,35.046,84.717,33.597z" fill="rgba(255, 255, 255, 0.45465725806451607)" transform="scale(0.7)"></path>
    </g><g transform="translate(-100 367.06813187600414) rotate(0)">
        <animateTransform attributeName="transform" type="translate" keyTimes="0;1" values="-100 367.06813187600414;1727 367.06813187600414" dur="250s" repeatCount="indefinite" begin="-349.7420791702368s"></animateTransform>
        <path d="M84.717,33.597c0.791-2.503,1.186-5.138,1.186-7.773C85.903,11.594,74.308,0,60.079,0 c-9.881,0-18.445,5.534-22.793,13.702c-1.581-0.527-3.426-0.791-5.138-0.791c-9.486,0-17.128,7.642-17.128,17.128 c0,1.186,0.132,2.372,0.395,3.426C6.719,34.783,0,42.424,0,51.515C0,61.66,8.169,69.829,18.314,69.829h63.373 C91.831,69.829,100,61.66,100,51.515C99.868,42.556,93.281,35.046,84.717,33.597z" fill="rgba(255, 255, 255, 0.45465725806451607)" transform="scale(0.7)"></path>
    </g><g transform="translate(-100 514.1021123941462) rotate(0)">
        <animateTransform attributeName="transform" type="translate" keyTimes="0;1" values="-100 514.1021123941462;1727 514.1021123941462" dur="250s" repeatCount="indefinite" begin="-220.21401559294162s"></animateTransform>
        <path d="M84.717,33.597c0.791-2.503,1.186-5.138,1.186-7.773C85.903,11.594,74.308,0,60.079,0 c-9.881,0-18.445,5.534-22.793,13.702c-1.581-0.527-3.426-0.791-5.138-0.791c-9.486,0-17.128,7.642-17.128,17.128 c0,1.186,0.132,2.372,0.395,3.426C6.719,34.783,0,42.424,0,51.515C0,61.66,8.169,69.829,18.314,69.829h63.373 C91.831,69.829,100,61.66,100,51.515C99.868,42.556,93.281,35.046,84.717,33.597z" fill="rgba(255, 255, 255, 0.45465725806451607)" transform="scale(0.7)"></path>
    </g><g transform="translate(-100 449.975543104684) rotate(0)">
        <animateTransform attributeName="transform" type="translate" keyTimes="0;1" values="-100 449.975543104684;1727 449.975543104684" dur="250s" repeatCount="indefinite" begin="-80.65792981889163s"></animateTransform>
        <path d="M84.717,33.597c0.791-2.503,1.186-5.138,1.186-7.773C85.903,11.594,74.308,0,60.079,0 c-9.881,0-18.445,5.534-22.793,13.702c-1.581-0.527-3.426-0.791-5.138-0.791c-9.486,0-17.128,7.642-17.128,17.128 c0,1.186,0.132,2.372,0.395,3.426C6.719,34.783,0,42.424,0,51.515C0,61.66,8.169,69.829,18.314,69.829h63.373 C91.831,69.829,100,61.66,100,51.515C99.868,42.556,93.281,35.046,84.717,33.597z" fill="rgba(255, 255, 255, 0.45465725806451607)" transform="scale(0.7)"></path>
    </g><g transform="translate(-100 76.01475337605615) rotate(0)">
        <animateTransform attributeName="transform" type="translate" keyTimes="0;1" values="-100 76.01475337605615;1727 76.01475337605615" dur="250s" repeatCount="indefinite" begin="-407.9938104603541s"></animateTransform>
        <path d="M84.717,33.597c0.791-2.503,1.186-5.138,1.186-7.773C85.903,11.594,74.308,0,60.079,0 c-9.881,0-18.445,5.534-22.793,13.702c-1.581-0.527-3.426-0.791-5.138-0.791c-9.486,0-17.128,7.642-17.128,17.128 c0,1.186,0.132,2.372,0.395,3.426C6.719,34.783,0,42.424,0,51.515C0,61.66,8.169,69.829,18.314,69.829h63.373 C91.831,69.829,100,61.66,100,51.515C99.868,42.556,93.281,35.046,84.717,33.597z" fill="rgba(255, 255, 255, 0.45465725806451607)" transform="scale(0.7)"></path>
    </g><g transform="translate(-100 452.4549706195608) rotate(0)">
        <animateTransform attributeName="transform" type="translate" keyTimes="0;1" values="-100 452.4549706195608;1727 452.4549706195608" dur="250s" repeatCount="indefinite" begin="-34.5400762527055s"></animateTransform>
        <path d="M84.717,33.597c0.791-2.503,1.186-5.138,1.186-7.773C85.903,11.594,74.308,0,60.079,0 c-9.881,0-18.445,5.534-22.793,13.702c-1.581-0.527-3.426-0.791-5.138-0.791c-9.486,0-17.128,7.642-17.128,17.128 c0,1.186,0.132,2.372,0.395,3.426C6.719,34.783,0,42.424,0,51.515C0,61.66,8.169,69.829,18.314,69.829h63.373 C91.831,69.829,100,61.66,100,51.515C99.868,42.556,93.281,35.046,84.717,33.597z" fill="rgba(255, 255, 255, 0.45465725806451607)" transform="scale(0.7)"></path>
    </g><g transform="translate(-100 635.1490997262987) rotate(0)">
        <animateTransform attributeName="transform" type="translate" keyTimes="0;1" values="-100 635.1490997262987;1727 635.1490997262987" dur="250s" repeatCount="indefinite" begin="-84.01975700957398s"></animateTransform>
        <path d="M84.717,33.597c0.791-2.503,1.186-5.138,1.186-7.773C85.903,11.594,74.308,0,60.079,0 c-9.881,0-18.445,5.534-22.793,13.702c-1.581-0.527-3.426-0.791-5.138-0.791c-9.486,0-17.128,7.642-17.128,17.128 c0,1.186,0.132,2.372,0.395,3.426C6.719,34.783,0,42.424,0,51.515C0,61.66,8.169,69.829,18.314,69.829h63.373 C91.831,69.829,100,61.66,100,51.515C99.868,42.556,93.281,35.046,84.717,33.597z" fill="rgba(255, 255, 255, 0.45465725806451607)" transform="scale(0.7)"></path>
    </g><g transform="translate(-100 725.2764010303747) rotate(0)">
        <animateTransform attributeName="transform" type="translate" keyTimes="0;1" values="-100 725.2764010303747;1727 725.2764010303747" dur="250s" repeatCount="indefinite" begin="-162.94859842582233s"></animateTransform>
        <path d="M84.717,33.597c0.791-2.503,1.186-5.138,1.186-7.773C85.903,11.594,74.308,0,60.079,0 c-9.881,0-18.445,5.534-22.793,13.702c-1.581-0.527-3.426-0.791-5.138-0.791c-9.486,0-17.128,7.642-17.128,17.128 c0,1.186,0.132,2.372,0.395,3.426C6.719,34.783,0,42.424,0,51.515C0,61.66,8.169,69.829,18.314,69.829h63.373 C91.831,69.829,100,61.66,100,51.515C99.868,42.556,93.281,35.046,84.717,33.597z" fill="rgba(255, 255, 255, 0.45465725806451607)" transform="scale(0.7)"></path>
    </g><g transform="translate(-100 600.5940377420798) rotate(0)">
        <animateTransform attributeName="transform" type="translate" keyTimes="0;1" values="-100 600.5940377420798;1727 600.5940377420798" dur="250s" repeatCount="indefinite" begin="-494.8161826589068s"></animateTransform>
        <path d="M84.717,33.597c0.791-2.503,1.186-5.138,1.186-7.773C85.903,11.594,74.308,0,60.079,0 c-9.881,0-18.445,5.534-22.793,13.702c-1.581-0.527-3.426-0.791-5.138-0.791c-9.486,0-17.128,7.642-17.128,17.128 c0,1.186,0.132,2.372,0.395,3.426C6.719,34.783,0,42.424,0,51.515C0,61.66,8.169,69.829,18.314,69.829h63.373 C91.831,69.829,100,61.66,100,51.515C99.868,42.556,93.281,35.046,84.717,33.597z" fill="rgba(255, 255, 255, 0.45465725806451607)" transform="scale(0.7)"></path>
    </g><g transform="translate(-100 713.207807188607) rotate(0)">
        <animateTransform attributeName="transform" type="translate" keyTimes="0;1" values="-100 713.207807188607;1727 713.207807188607" dur="250s" repeatCount="indefinite" begin="-387.45095332621014s"></animateTransform>
        <path d="M84.717,33.597c0.791-2.503,1.186-5.138,1.186-7.773C85.903,11.594,74.308,0,60.079,0 c-9.881,0-18.445,5.534-22.793,13.702c-1.581-0.527-3.426-0.791-5.138-0.791c-9.486,0-17.128,7.642-17.128,17.128 c0,1.186,0.132,2.372,0.395,3.426C6.719,34.783,0,42.424,0,51.515C0,61.66,8.169,69.829,18.314,69.829h63.373 C91.831,69.829,100,61.66,100,51.515C99.868,42.556,93.281,35.046,84.717,33.597z" fill="rgba(255, 255, 255, 0.45465725806451607)" transform="scale(0.7)"></path>
    </g><g transform="translate(-100 522.8651114930485) rotate(0)">
        <animateTransform attributeName="transform" type="translate" keyTimes="0;1" values="-100 522.8651114930485;1727 522.8651114930485" dur="166.66666666666666s" repeatCount="indefinite" begin="-447.9348001831309s"></animateTransform>
        <path d="M84.717,33.597c0.791-2.503,1.186-5.138,1.186-7.773C85.903,11.594,74.308,0,60.079,0 c-9.881,0-18.445,5.534-22.793,13.702c-1.581-0.527-3.426-0.791-5.138-0.791c-9.486,0-17.128,7.642-17.128,17.128 c0,1.186,0.132,2.372,0.395,3.426C6.719,34.783,0,42.424,0,51.515C0,61.66,8.169,69.829,18.314,69.829h63.373 C91.831,69.829,100,61.66,100,51.515C99.868,42.556,93.281,35.046,84.717,33.597z" fill="rgba(241, 242, 243, 0.4127217741935484)" transform="scale(0.85)"></path>
    </g><g transform="translate(-100 467.76909972941297) rotate(0)">
        <animateTransform attributeName="transform" type="translate" keyTimes="0;1" values="-100 467.76909972941297;1727 467.76909972941297" dur="166.66666666666666s" repeatCount="indefinite" begin="-67.31954134715212s"></animateTransform>
        <path d="M84.717,33.597c0.791-2.503,1.186-5.138,1.186-7.773C85.903,11.594,74.308,0,60.079,0 c-9.881,0-18.445,5.534-22.793,13.702c-1.581-0.527-3.426-0.791-5.138-0.791c-9.486,0-17.128,7.642-17.128,17.128 c0,1.186,0.132,2.372,0.395,3.426C6.719,34.783,0,42.424,0,51.515C0,61.66,8.169,69.829,18.314,69.829h63.373 C91.831,69.829,100,61.66,100,51.515C99.868,42.556,93.281,35.046,84.717,33.597z" fill="rgba(241, 242, 243, 0.4127217741935484)" transform="scale(0.85)"></path>
    </g><g transform="translate(-100 403.98412050596454) rotate(0)">
        <animateTransform attributeName="transform" type="translate" keyTimes="0;1" values="-100 403.98412050596454;1727 403.98412050596454" dur="166.66666666666666s" repeatCount="indefinite" begin="-242.6173561598879s"></animateTransform>
        <path d="M84.717,33.597c0.791-2.503,1.186-5.138,1.186-7.773C85.903,11.594,74.308,0,60.079,0 c-9.881,0-18.445,5.534-22.793,13.702c-1.581-0.527-3.426-0.791-5.138-0.791c-9.486,0-17.128,7.642-17.128,17.128 c0,1.186,0.132,2.372,0.395,3.426C6.719,34.783,0,42.424,0,51.515C0,61.66,8.169,69.829,18.314,69.829h63.373 C91.831,69.829,100,61.66,100,51.515C99.868,42.556,93.281,35.046,84.717,33.597z" fill="rgba(241, 242, 243, 0.4127217741935484)" transform="scale(0.85)"></path>
    </g><g transform="translate(-100 397.2022714787704) rotate(0)">
        <animateTransform attributeName="transform" type="translate" keyTimes="0;1" values="-100 397.2022714787704;1727 397.2022714787704" dur="166.66666666666666s" repeatCount="indefinite" begin="-254.34440901932976s"></animateTransform>
        <path d="M84.717,33.597c0.791-2.503,1.186-5.138,1.186-7.773C85.903,11.594,74.308,0,60.079,0 c-9.881,0-18.445,5.534-22.793,13.702c-1.581-0.527-3.426-0.791-5.138-0.791c-9.486,0-17.128,7.642-17.128,17.128 c0,1.186,0.132,2.372,0.395,3.426C6.719,34.783,0,42.424,0,51.515C0,61.66,8.169,69.829,18.314,69.829h63.373 C91.831,69.829,100,61.66,100,51.515C99.868,42.556,93.281,35.046,84.717,33.597z" fill="rgba(241, 242, 243, 0.4127217741935484)" transform="scale(0.85)"></path>
    </g><g transform="translate(-100 483.5179415068923) rotate(0)">
        <animateTransform attributeName="transform" type="translate" keyTimes="0;1" values="-100 483.5179415068923;1727 483.5179415068923" dur="166.66666666666666s" repeatCount="indefinite" begin="-422.15050976047405s"></animateTransform>
        <path d="M84.717,33.597c0.791-2.503,1.186-5.138,1.186-7.773C85.903,11.594,74.308,0,60.079,0 c-9.881,0-18.445,5.534-22.793,13.702c-1.581-0.527-3.426-0.791-5.138-0.791c-9.486,0-17.128,7.642-17.128,17.128 c0,1.186,0.132,2.372,0.395,3.426C6.719,34.783,0,42.424,0,51.515C0,61.66,8.169,69.829,18.314,69.829h63.373 C91.831,69.829,100,61.66,100,51.515C99.868,42.556,93.281,35.046,84.717,33.597z" fill="rgba(241, 242, 243, 0.4127217741935484)" transform="scale(0.85)"></path>
    </g><g transform="translate(-100 662.9653489986958) rotate(0)">
        <animateTransform attributeName="transform" type="translate" keyTimes="0;1" values="-100 662.9653489986958;1727 662.9653489986958" dur="166.66666666666666s" repeatCount="indefinite" begin="-454.5093670517381s"></animateTransform>
        <path d="M84.717,33.597c0.791-2.503,1.186-5.138,1.186-7.773C85.903,11.594,74.308,0,60.079,0 c-9.881,0-18.445,5.534-22.793,13.702c-1.581-0.527-3.426-0.791-5.138-0.791c-9.486,0-17.128,7.642-17.128,17.128 c0,1.186,0.132,2.372,0.395,3.426C6.719,34.783,0,42.424,0,51.515C0,61.66,8.169,69.829,18.314,69.829h63.373 C91.831,69.829,100,61.66,100,51.515C99.868,42.556,93.281,35.046,84.717,33.597z" fill="rgba(241, 242, 243, 0.4127217741935484)" transform="scale(0.85)"></path>
    </g><g transform="translate(-100 419.50041731248473) rotate(0)">
        <animateTransform attributeName="transform" type="translate" keyTimes="0;1" values="-100 419.50041731248473;1727 419.50041731248473" dur="166.66666666666666s" repeatCount="indefinite" begin="-482.8280168930872s"></animateTransform>
        <path d="M84.717,33.597c0.791-2.503,1.186-5.138,1.186-7.773C85.903,11.594,74.308,0,60.079,0 c-9.881,0-18.445,5.534-22.793,13.702c-1.581-0.527-3.426-0.791-5.138-0.791c-9.486,0-17.128,7.642-17.128,17.128 c0,1.186,0.132,2.372,0.395,3.426C6.719,34.783,0,42.424,0,51.515C0,61.66,8.169,69.829,18.314,69.829h63.373 C91.831,69.829,100,61.66,100,51.515C99.868,42.556,93.281,35.046,84.717,33.597z" fill="rgba(241, 242, 243, 0.4127217741935484)" transform="scale(0.85)"></path>
    </g><g transform="translate(-100 253.8507632987121) rotate(0)">
        <animateTransform attributeName="transform" type="translate" keyTimes="0;1" values="-100 253.8507632987121;1727 253.8507632987121" dur="166.66666666666666s" repeatCount="indefinite" begin="-194.10576035712623s"></animateTransform>
        <path d="M84.717,33.597c0.791-2.503,1.186-5.138,1.186-7.773C85.903,11.594,74.308,0,60.079,0 c-9.881,0-18.445,5.534-22.793,13.702c-1.581-0.527-3.426-0.791-5.138-0.791c-9.486,0-17.128,7.642-17.128,17.128 c0,1.186,0.132,2.372,0.395,3.426C6.719,34.783,0,42.424,0,51.515C0,61.66,8.169,69.829,18.314,69.829h63.373 C91.831,69.829,100,61.66,100,51.515C99.868,42.556,93.281,35.046,84.717,33.597z" fill="rgba(241, 242, 243, 0.4127217741935484)" transform="scale(0.85)"></path>
    </g><g transform="translate(-100 82.16131224027346) rotate(0)">
        <animateTransform attributeName="transform" type="translate" keyTimes="0;1" values="-100 82.16131224027346;1727 82.16131224027346" dur="166.66666666666666s" repeatCount="indefinite" begin="-277.58970747514934s"></animateTransform>
        <path d="M84.717,33.597c0.791-2.503,1.186-5.138,1.186-7.773C85.903,11.594,74.308,0,60.079,0 c-9.881,0-18.445,5.534-22.793,13.702c-1.581-0.527-3.426-0.791-5.138-0.791c-9.486,0-17.128,7.642-17.128,17.128 c0,1.186,0.132,2.372,0.395,3.426C6.719,34.783,0,42.424,0,51.515C0,61.66,8.169,69.829,18.314,69.829h63.373 C91.831,69.829,100,61.66,100,51.515C99.868,42.556,93.281,35.046,84.717,33.597z" fill="rgba(241, 242, 243, 0.4127217741935484)" transform="scale(0.85)"></path>
    </g><g transform="translate(-100 104.51711141957706) rotate(0)">
        <animateTransform attributeName="transform" type="translate" keyTimes="0;1" values="-100 104.51711141957706;1727 104.51711141957706" dur="166.66666666666666s" repeatCount="indefinite" begin="-69.6644890821132s"></animateTransform>
        <path d="M84.717,33.597c0.791-2.503,1.186-5.138,1.186-7.773C85.903,11.594,74.308,0,60.079,0 c-9.881,0-18.445,5.534-22.793,13.702c-1.581-0.527-3.426-0.791-5.138-0.791c-9.486,0-17.128,7.642-17.128,17.128 c0,1.186,0.132,2.372,0.395,3.426C6.719,34.783,0,42.424,0,51.515C0,61.66,8.169,69.829,18.314,69.829h63.373 C91.831,69.829,100,61.66,100,51.515C99.868,42.556,93.281,35.046,84.717,33.597z" fill="rgba(241, 242, 243, 0.4127217741935484)" transform="scale(0.85)"></path>
    </g><g transform="translate(-100 850.6517287673939) rotate(0)">
        <animateTransform attributeName="transform" type="translate" keyTimes="0;1" values="-100 850.6517287673939;1727 850.6517287673939" dur="166.66666666666666s" repeatCount="indefinite" begin="-42.284920288649275s"></animateTransform>
        <path d="M84.717,33.597c0.791-2.503,1.186-5.138,1.186-7.773C85.903,11.594,74.308,0,60.079,0 c-9.881,0-18.445,5.534-22.793,13.702c-1.581-0.527-3.426-0.791-5.138-0.791c-9.486,0-17.128,7.642-17.128,17.128 c0,1.186,0.132,2.372,0.395,3.426C6.719,34.783,0,42.424,0,51.515C0,61.66,8.169,69.829,18.314,69.829h63.373 C91.831,69.829,100,61.66,100,51.515C99.868,42.556,93.281,35.046,84.717,33.597z" fill="rgba(241, 242, 243, 0.4127217741935484)" transform="scale(0.85)"></path>
    </g><g transform="translate(-100 488.26603700240923) rotate(0)">
        <animateTransform attributeName="transform" type="translate" keyTimes="0;1" values="-100 488.26603700240923;1727 488.26603700240923" dur="125s" repeatCount="indefinite" begin="-223.27092091864165s"></animateTransform>
        <path d="M84.717,33.597c0.791-2.503,1.186-5.138,1.186-7.773C85.903,11.594,74.308,0,60.079,0 c-9.881,0-18.445,5.534-22.793,13.702c-1.581-0.527-3.426-0.791-5.138-0.791c-9.486,0-17.128,7.642-17.128,17.128 c0,1.186,0.132,2.372,0.395,3.426C6.719,34.783,0,42.424,0,51.515C0,61.66,8.169,69.829,18.314,69.829h63.373 C91.831,69.829,100,61.66,100,51.515C99.868,42.556,93.281,35.046,84.717,33.597z" fill="rgba(189, 222, 255, 0.42949596774193555)" transform="scale(1)"></path>
    </g><g transform="translate(-100 780.2823323453772) rotate(0)">
        <animateTransform attributeName="transform" type="translate" keyTimes="0;1" values="-100 780.2823323453772;1727 780.2823323453772" dur="125s" repeatCount="indefinite" begin="-0.027181013499077977s"></animateTransform>
        <path d="M84.717,33.597c0.791-2.503,1.186-5.138,1.186-7.773C85.903,11.594,74.308,0,60.079,0 c-9.881,0-18.445,5.534-22.793,13.702c-1.581-0.527-3.426-0.791-5.138-0.791c-9.486,0-17.128,7.642-17.128,17.128 c0,1.186,0.132,2.372,0.395,3.426C6.719,34.783,0,42.424,0,51.515C0,61.66,8.169,69.829,18.314,69.829h63.373 C91.831,69.829,100,61.66,100,51.515C99.868,42.556,93.281,35.046,84.717,33.597z" fill="rgba(189, 222, 255, 0.42949596774193555)" transform="scale(1)"></path>
    </g><g transform="translate(-100 785.7621603523961) rotate(0)">
        <animateTransform attributeName="transform" type="translate" keyTimes="0;1" values="-100 785.7621603523961;1727 785.7621603523961" dur="125s" repeatCount="indefinite" begin="-261.65877582810424s"></animateTransform>
        <path d="M84.717,33.597c0.791-2.503,1.186-5.138,1.186-7.773C85.903,11.594,74.308,0,60.079,0 c-9.881,0-18.445,5.534-22.793,13.702c-1.581-0.527-3.426-0.791-5.138-0.791c-9.486,0-17.128,7.642-17.128,17.128 c0,1.186,0.132,2.372,0.395,3.426C6.719,34.783,0,42.424,0,51.515C0,61.66,8.169,69.829,18.314,69.829h63.373 C91.831,69.829,100,61.66,100,51.515C99.868,42.556,93.281,35.046,84.717,33.597z" fill="rgba(189, 222, 255, 0.42949596774193555)" transform="scale(1)"></path>
    </g><g transform="translate(-100 789.6364583396982) rotate(0)">
        <animateTransform attributeName="transform" type="translate" keyTimes="0;1" values="-100 789.6364583396982;1727 789.6364583396982" dur="125s" repeatCount="indefinite" begin="-9.93357312523635s"></animateTransform>
        <path d="M84.717,33.597c0.791-2.503,1.186-5.138,1.186-7.773C85.903,11.594,74.308,0,60.079,0 c-9.881,0-18.445,5.534-22.793,13.702c-1.581-0.527-3.426-0.791-5.138-0.791c-9.486,0-17.128,7.642-17.128,17.128 c0,1.186,0.132,2.372,0.395,3.426C6.719,34.783,0,42.424,0,51.515C0,61.66,8.169,69.829,18.314,69.829h63.373 C91.831,69.829,100,61.66,100,51.515C99.868,42.556,93.281,35.046,84.717,33.597z" fill="rgba(189, 222, 255, 0.42949596774193555)" transform="scale(1)"></path>
    </g><g transform="translate(-100 219.68919134357373) rotate(0)">
        <animateTransform attributeName="transform" type="translate" keyTimes="0;1" values="-100 219.68919134357373;1727 219.68919134357373" dur="125s" repeatCount="indefinite" begin="-376.39305948204714s"></animateTransform>
        <path d="M84.717,33.597c0.791-2.503,1.186-5.138,1.186-7.773C85.903,11.594,74.308,0,60.079,0 c-9.881,0-18.445,5.534-22.793,13.702c-1.581-0.527-3.426-0.791-5.138-0.791c-9.486,0-17.128,7.642-17.128,17.128 c0,1.186,0.132,2.372,0.395,3.426C6.719,34.783,0,42.424,0,51.515C0,61.66,8.169,69.829,18.314,69.829h63.373 C91.831,69.829,100,61.66,100,51.515C99.868,42.556,93.281,35.046,84.717,33.597z" fill="rgba(189, 222, 255, 0.42949596774193555)" transform="scale(1)"></path>
    </g><g transform="translate(-100 876.285388239133) rotate(0)">
        <animateTransform attributeName="transform" type="translate" keyTimes="0;1" values="-100 876.285388239133;1727 876.285388239133" dur="125s" repeatCount="indefinite" begin="-178.6787503998817s"></animateTransform>
        <path d="M84.717,33.597c0.791-2.503,1.186-5.138,1.186-7.773C85.903,11.594,74.308,0,60.079,0 c-9.881,0-18.445,5.534-22.793,13.702c-1.581-0.527-3.426-0.791-5.138-0.791c-9.486,0-17.128,7.642-17.128,17.128 c0,1.186,0.132,2.372,0.395,3.426C6.719,34.783,0,42.424,0,51.515C0,61.66,8.169,69.829,18.314,69.829h63.373 C91.831,69.829,100,61.66,100,51.515C99.868,42.556,93.281,35.046,84.717,33.597z" fill="rgba(189, 222, 255, 0.42949596774193555)" transform="scale(1)"></path>
    </g><g transform="translate(-100 436.8549161137657) rotate(0)">
        <animateTransform attributeName="transform" type="translate" keyTimes="0;1" values="-100 436.8549161137657;1727 436.8549161137657" dur="125s" repeatCount="indefinite" begin="-30.5884687392175s"></animateTransform>
        <path d="M84.717,33.597c0.791-2.503,1.186-5.138,1.186-7.773C85.903,11.594,74.308,0,60.079,0 c-9.881,0-18.445,5.534-22.793,13.702c-1.581-0.527-3.426-0.791-5.138-0.791c-9.486,0-17.128,7.642-17.128,17.128 c0,1.186,0.132,2.372,0.395,3.426C6.719,34.783,0,42.424,0,51.515C0,61.66,8.169,69.829,18.314,69.829h63.373 C91.831,69.829,100,61.66,100,51.515C99.868,42.556,93.281,35.046,84.717,33.597z" fill="rgba(189, 222, 255, 0.42949596774193555)" transform="scale(1)"></path>
    </g><g transform="translate(-100 248.92301810333907) rotate(0)">
        <animateTransform attributeName="transform" type="translate" keyTimes="0;1" values="-100 248.92301810333907;1727 248.92301810333907" dur="125s" repeatCount="indefinite" begin="-376.69603822731966s"></animateTransform>
        <path d="M84.717,33.597c0.791-2.503,1.186-5.138,1.186-7.773C85.903,11.594,74.308,0,60.079,0 c-9.881,0-18.445,5.534-22.793,13.702c-1.581-0.527-3.426-0.791-5.138-0.791c-9.486,0-17.128,7.642-17.128,17.128 c0,1.186,0.132,2.372,0.395,3.426C6.719,34.783,0,42.424,0,51.515C0,61.66,8.169,69.829,18.314,69.829h63.373 C91.831,69.829,100,61.66,100,51.515C99.868,42.556,93.281,35.046,84.717,33.597z" fill="rgba(189, 222, 255, 0.42949596774193555)" transform="scale(1)"></path>
    </g><g transform="translate(-100 27.927329963843047) rotate(0)">
        <animateTransform attributeName="transform" type="translate" keyTimes="0;1" values="-100 27.927329963843047;1727 27.927329963843047" dur="125s" repeatCount="indefinite" begin="-329.669621520686s"></animateTransform>
        <path d="M84.717,33.597c0.791-2.503,1.186-5.138,1.186-7.773C85.903,11.594,74.308,0,60.079,0 c-9.881,0-18.445,5.534-22.793,13.702c-1.581-0.527-3.426-0.791-5.138-0.791c-9.486,0-17.128,7.642-17.128,17.128 c0,1.186,0.132,2.372,0.395,3.426C6.719,34.783,0,42.424,0,51.515C0,61.66,8.169,69.829,18.314,69.829h63.373 C91.831,69.829,100,61.66,100,51.515C99.868,42.556,93.281,35.046,84.717,33.597z" fill="rgba(189, 222, 255, 0.42949596774193555)" transform="scale(1)"></path>
    </g><g transform="translate(-100 157.61354873944708) rotate(0)">
        <animateTransform attributeName="transform" type="translate" keyTimes="0;1" values="-100 157.61354873944708;1727 157.61354873944708" dur="125s" repeatCount="indefinite" begin="-387.2975781766982s"></animateTransform>
        <path d="M84.717,33.597c0.791-2.503,1.186-5.138,1.186-7.773C85.903,11.594,74.308,0,60.079,0 c-9.881,0-18.445,5.534-22.793,13.702c-1.581-0.527-3.426-0.791-5.138-0.791c-9.486,0-17.128,7.642-17.128,17.128 c0,1.186,0.132,2.372,0.395,3.426C6.719,34.783,0,42.424,0,51.515C0,61.66,8.169,69.829,18.314,69.829h63.373 C91.831,69.829,100,61.66,100,51.515C99.868,42.556,93.281,35.046,84.717,33.597z" fill="rgba(189, 222, 255, 0.42949596774193555)" transform="scale(1)"></path>
    </g><g transform="translate(-100 346.69981072092725) rotate(0)">
        <animateTransform attributeName="transform" type="translate" keyTimes="0;1" values="-100 346.69981072092725;1727 346.69981072092725" dur="125s" repeatCount="indefinite" begin="-46.021241892641676s"></animateTransform>
        <path d="M84.717,33.597c0.791-2.503,1.186-5.138,1.186-7.773C85.903,11.594,74.308,0,60.079,0 c-9.881,0-18.445,5.534-22.793,13.702c-1.581-0.527-3.426-0.791-5.138-0.791c-9.486,0-17.128,7.642-17.128,17.128 c0,1.186,0.132,2.372,0.395,3.426C6.719,34.783,0,42.424,0,51.515C0,61.66,8.169,69.829,18.314,69.829h63.373 C91.831,69.829,100,61.66,100,51.515C99.868,42.556,93.281,35.046,84.717,33.597z" fill="rgba(189, 222, 255, 0.42949596774193555)" transform="scale(1)"></path>
    </g><g transform="translate(-100 488.9115593971053) rotate(0)">
        <animateTransform attributeName="transform" type="translate" keyTimes="0;1" values="-100 488.9115593971053;1727 488.9115593971053" dur="125s" repeatCount="indefinite" begin="-113.18346557124148s"></animateTransform>
        <path d="M84.717,33.597c0.791-2.503,1.186-5.138,1.186-7.773C85.903,11.594,74.308,0,60.079,0 c-9.881,0-18.445,5.534-22.793,13.702c-1.581-0.527-3.426-0.791-5.138-0.791c-9.486,0-17.128,7.642-17.128,17.128 c0,1.186,0.132,2.372,0.395,3.426C6.719,34.783,0,42.424,0,51.515C0,61.66,8.169,69.829,18.314,69.829h63.373 C91.831,69.829,100,61.66,100,51.515C99.868,42.556,93.281,35.046,84.717,33.597z" fill="rgba(189, 222, 255, 0.42949596774193555)" transform="scale(1)"></path>
    </g></g>
</svg>