<svg xmlns="http://www.w3.org/2000/svg" xmlns:xlink="http://www.w3.org/1999/xlink" style="margin:auto;background:#121212;display:block;z-index:1;position:relative" width="1727" height="892" preserveAspectRatio="xMidYMid" viewBox="0 0 1727 892">
    <g transform="translate(863.5,446) scale(1,1) translate(-863.5,-446)"><g transform="translate(1448.6667846780747 -100) rotate(0)">
        <animateTransform attributeName="transform" type="translate" keyTimes="0;1" values="1448.6667846780747 -100;2864.452016741001 992" dur="100s" repeatCount="indefinite" begin="-30.970344188187426s"></animateTransform>
        <animateTransform attributeName="transform" type="rotate" keyTimes="0;1" begin="-30.970344188187426s" values="0 50 50;187.6873644618223 50 50" dur="100s" repeatCount="indefinite" additive="sum"></animateTransform>
        <path d="M87.422,66.495c-2.009-0.544-4.049-0.97-6.107-1.283c10.617-11.116,15.747-27.37,13.129-42.549 c-5.236,1.77-10.223,4.252-14.824,7.313c-4.13,2.747-7.948,5.961-11.374,9.55C67.425,24.863,61.344,10.451,50.991,0 c-4.015,5.451-7.281,11.444-9.753,17.744c-3.579,9.122-5.501,18.893-5.669,28.691c-4.79-7.979-11.256-14.955-18.858-20.322 c-4.514-3.187-9.431-5.806-14.616-7.72c-3.361,16.717,2.731,35.015,15.445,46.379c0.369,0.33,0.745,0.654,1.126,0.972 c-2.359,0.411-4.689,0.983-6.969,1.714C7.582,68.775,3.634,70.61,0,72.945c8.85,9.963,23.134,14.771,36.208,12.186 c3.524-0.697,7.002-1.919,9.887-4.057c0.073-0.054,0.145-0.111,0.218-0.167c-0.987,5.662-2.714,11.136-5.104,16.221l7.509,2.806 c1.698-5.797,2.631-11.748,2.814-17.669c0.107,0.076,0.215,0.152,0.324,0.225c3.142,2.114,6.863,3.232,10.607,3.796 C76.352,88.379,91.161,82.628,100,71.71C96.061,69.427,91.816,67.684,87.422,66.495z" fill="#ffc46c" transform="scale(0.8952974812518942)"></path>
    </g><g transform="translate(-100 356.90561723835884) rotate(0)">
        <animateTransform attributeName="transform" type="translate" keyTimes="0;1" values="-100 356.90561723835884;807.475657693927 992" dur="100s" repeatCount="indefinite" begin="-56.41552607518938s"></animateTransform>
        <animateTransform attributeName="transform" type="rotate" keyTimes="0;1" begin="-56.41552607518938s" values="0 50 50;941.7778426385098 50 50" dur="100s" repeatCount="indefinite" additive="sum"></animateTransform>
        <path d="M87.422,66.495c-2.009-0.544-4.049-0.97-6.107-1.283c10.617-11.116,15.747-27.37,13.129-42.549 c-5.236,1.77-10.223,4.252-14.824,7.313c-4.13,2.747-7.948,5.961-11.374,9.55C67.425,24.863,61.344,10.451,50.991,0 c-4.015,5.451-7.281,11.444-9.753,17.744c-3.579,9.122-5.501,18.893-5.669,28.691c-4.79-7.979-11.256-14.955-18.858-20.322 c-4.514-3.187-9.431-5.806-14.616-7.72c-3.361,16.717,2.731,35.015,15.445,46.379c0.369,0.33,0.745,0.654,1.126,0.972 c-2.359,0.411-4.689,0.983-6.969,1.714C7.582,68.775,3.634,70.61,0,72.945c8.85,9.963,23.134,14.771,36.208,12.186 c3.524-0.697,7.002-1.919,9.887-4.057c0.073-0.054,0.145-0.111,0.218-0.167c-0.987,5.662-2.714,11.136-5.104,16.221l7.509,2.806 c1.698-5.797,2.631-11.748,2.814-17.669c0.107,0.076,0.215,0.152,0.324,0.225c3.142,2.114,6.863,3.232,10.607,3.796 C76.352,88.379,91.161,82.628,100,71.71C96.061,69.427,91.816,67.684,87.422,66.495z" fill="#f86161" transform="scale(0.545524717853216)"></path>
    </g><g transform="translate(183.8422266377341 -100) rotate(0)">
        <animateTransform attributeName="transform" type="translate" keyTimes="0;1" values="183.8422266377341 -100;1284.8965300730563 992" dur="100s" repeatCount="indefinite" begin="-49.46993320218007s"></animateTransform>
        <animateTransform attributeName="transform" type="rotate" keyTimes="0;1" begin="-49.46993320218007s" values="0 50 50;4.97958857994079 50 50" dur="100s" repeatCount="indefinite" additive="sum"></animateTransform>
        <path d="M87.422,66.495c-2.009-0.544-4.049-0.97-6.107-1.283c10.617-11.116,15.747-27.37,13.129-42.549 c-5.236,1.77-10.223,4.252-14.824,7.313c-4.13,2.747-7.948,5.961-11.374,9.55C67.425,24.863,61.344,10.451,50.991,0 c-4.015,5.451-7.281,11.444-9.753,17.744c-3.579,9.122-5.501,18.893-5.669,28.691c-4.79-7.979-11.256-14.955-18.858-20.322 c-4.514-3.187-9.431-5.806-14.616-7.72c-3.361,16.717,2.731,35.015,15.445,46.379c0.369,0.33,0.745,0.654,1.126,0.972 c-2.359,0.411-4.689,0.983-6.969,1.714C7.582,68.775,3.634,70.61,0,72.945c8.85,9.963,23.134,14.771,36.208,12.186 c3.524-0.697,7.002-1.919,9.887-4.057c0.073-0.054,0.145-0.111,0.218-0.167c-0.987,5.662-2.714,11.136-5.104,16.221l7.509,2.806 c1.698-5.797,2.631-11.748,2.814-17.669c0.107,0.076,0.215,0.152,0.324,0.225c3.142,2.114,6.863,3.232,10.607,3.796 C76.352,88.379,91.161,82.628,100,71.71C96.061,69.427,91.816,67.684,87.422,66.495z" fill="#f86161" transform="scale(0.9443318295431266)"></path>
    </g><g transform="translate(1242.0093765130514 -100) rotate(0)">
        <animateTransform attributeName="transform" type="translate" keyTimes="0;1" values="1242.0093765130514 -100;2109.2668540375143 992" dur="100s" repeatCount="indefinite" begin="-58.60960812203191s"></animateTransform>
        <animateTransform attributeName="transform" type="rotate" keyTimes="0;1" begin="-58.60960812203191s" values="0 50 50;550.3817984921857 50 50" dur="100s" repeatCount="indefinite" additive="sum"></animateTransform>
        <path d="M87.422,66.495c-2.009-0.544-4.049-0.97-6.107-1.283c10.617-11.116,15.747-27.37,13.129-42.549 c-5.236,1.77-10.223,4.252-14.824,7.313c-4.13,2.747-7.948,5.961-11.374,9.55C67.425,24.863,61.344,10.451,50.991,0 c-4.015,5.451-7.281,11.444-9.753,17.744c-3.579,9.122-5.501,18.893-5.669,28.691c-4.79-7.979-11.256-14.955-18.858-20.322 c-4.514-3.187-9.431-5.806-14.616-7.72c-3.361,16.717,2.731,35.015,15.445,46.379c0.369,0.33,0.745,0.654,1.126,0.972 c-2.359,0.411-4.689,0.983-6.969,1.714C7.582,68.775,3.634,70.61,0,72.945c8.85,9.963,23.134,14.771,36.208,12.186 c3.524-0.697,7.002-1.919,9.887-4.057c0.073-0.054,0.145-0.111,0.218-0.167c-0.987,5.662-2.714,11.136-5.104,16.221l7.509,2.806 c1.698-5.797,2.631-11.748,2.814-17.669c0.107,0.076,0.215,0.152,0.324,0.225c3.142,2.114,6.863,3.232,10.607,3.796 C76.352,88.379,91.161,82.628,100,71.71C96.061,69.427,91.816,67.684,87.422,66.495z" fill="#ff956e" transform="scale(0.6873064913192387)"></path>
    </g><g transform="translate(-100 301.0665711641457) rotate(0)">
        <animateTransform attributeName="transform" type="translate" keyTimes="0;1" values="-100 301.0665711641457;1827 992.8983015764625" dur="100s" repeatCount="indefinite" begin="-39.639879443696756s"></animateTransform>
        <animateTransform attributeName="transform" type="rotate" keyTimes="0;1" begin="-39.639879443696756s" values="0 50 50;248.1592951052197 50 50" dur="100s" repeatCount="indefinite" additive="sum"></animateTransform>
        <path d="M87.422,66.495c-2.009-0.544-4.049-0.97-6.107-1.283c10.617-11.116,15.747-27.37,13.129-42.549 c-5.236,1.77-10.223,4.252-14.824,7.313c-4.13,2.747-7.948,5.961-11.374,9.55C67.425,24.863,61.344,10.451,50.991,0 c-4.015,5.451-7.281,11.444-9.753,17.744c-3.579,9.122-5.501,18.893-5.669,28.691c-4.79-7.979-11.256-14.955-18.858-20.322 c-4.514-3.187-9.431-5.806-14.616-7.72c-3.361,16.717,2.731,35.015,15.445,46.379c0.369,0.33,0.745,0.654,1.126,0.972 c-2.359,0.411-4.689,0.983-6.969,1.714C7.582,68.775,3.634,70.61,0,72.945c8.85,9.963,23.134,14.771,36.208,12.186 c3.524-0.697,7.002-1.919,9.887-4.057c0.073-0.054,0.145-0.111,0.218-0.167c-0.987,5.662-2.714,11.136-5.104,16.221l7.509,2.806 c1.698-5.797,2.631-11.748,2.814-17.669c0.107,0.076,0.215,0.152,0.324,0.225c3.142,2.114,6.863,3.232,10.607,3.796 C76.352,88.379,91.161,82.628,100,71.71C96.061,69.427,91.816,67.684,87.422,66.495z" fill="#ff9f32" transform="scale(0.656358515664206)"></path>
    </g><g transform="translate(1036.8076642416852 -100) rotate(0)">
        <animateTransform attributeName="transform" type="translate" keyTimes="0;1" values="1036.8076642416852 -100;2252.2980856478425 992" dur="100s" repeatCount="indefinite" begin="-32.44201973519267s"></animateTransform>
        <animateTransform attributeName="transform" type="rotate" keyTimes="0;1" begin="-32.44201973519267s" values="0 50 50;969.8453750792057 50 50" dur="100s" repeatCount="indefinite" additive="sum"></animateTransform>
        <path d="M87.422,66.495c-2.009-0.544-4.049-0.97-6.107-1.283c10.617-11.116,15.747-27.37,13.129-42.549 c-5.236,1.77-10.223,4.252-14.824,7.313c-4.13,2.747-7.948,5.961-11.374,9.55C67.425,24.863,61.344,10.451,50.991,0 c-4.015,5.451-7.281,11.444-9.753,17.744c-3.579,9.122-5.501,18.893-5.669,28.691c-4.79-7.979-11.256-14.955-18.858-20.322 c-4.514-3.187-9.431-5.806-14.616-7.72c-3.361,16.717,2.731,35.015,15.445,46.379c0.369,0.33,0.745,0.654,1.126,0.972 c-2.359,0.411-4.689,0.983-6.969,1.714C7.582,68.775,3.634,70.61,0,72.945c8.85,9.963,23.134,14.771,36.208,12.186 c3.524-0.697,7.002-1.919,9.887-4.057c0.073-0.054,0.145-0.111,0.218-0.167c-0.987,5.662-2.714,11.136-5.104,16.221l7.509,2.806 c1.698-5.797,2.631-11.748,2.814-17.669c0.107,0.076,0.215,0.152,0.324,0.225c3.142,2.114,6.863,3.232,10.607,3.796 C76.352,88.379,91.161,82.628,100,71.71C96.061,69.427,91.816,67.684,87.422,66.495z" fill="#ff9f32" transform="scale(0.7450998309298823)"></path>
    </g><g transform="translate(1451.07906202086 -100) rotate(0)">
        <animateTransform attributeName="transform" type="translate" keyTimes="0;1" values="1451.07906202086 -100;3637.063492504015 992" dur="100s" repeatCount="indefinite" begin="-73.03207882049958s"></animateTransform>
        <animateTransform attributeName="transform" type="rotate" keyTimes="0;1" begin="-73.03207882049958s" values="0 50 50;176.76131066907314 50 50" dur="100s" repeatCount="indefinite" additive="sum"></animateTransform>
        <path d="M87.422,66.495c-2.009-0.544-4.049-0.97-6.107-1.283c10.617-11.116,15.747-27.37,13.129-42.549 c-5.236,1.77-10.223,4.252-14.824,7.313c-4.13,2.747-7.948,5.961-11.374,9.55C67.425,24.863,61.344,10.451,50.991,0 c-4.015,5.451-7.281,11.444-9.753,17.744c-3.579,9.122-5.501,18.893-5.669,28.691c-4.79-7.979-11.256-14.955-18.858-20.322 c-4.514-3.187-9.431-5.806-14.616-7.72c-3.361,16.717,2.731,35.015,15.445,46.379c0.369,0.33,0.745,0.654,1.126,0.972 c-2.359,0.411-4.689,0.983-6.969,1.714C7.582,68.775,3.634,70.61,0,72.945c8.85,9.963,23.134,14.771,36.208,12.186 c3.524-0.697,7.002-1.919,9.887-4.057c0.073-0.054,0.145-0.111,0.218-0.167c-0.987,5.662-2.714,11.136-5.104,16.221l7.509,2.806 c1.698-5.797,2.631-11.748,2.814-17.669c0.107,0.076,0.215,0.152,0.324,0.225c3.142,2.114,6.863,3.232,10.607,3.796 C76.352,88.379,91.161,82.628,100,71.71C96.061,69.427,91.816,67.684,87.422,66.495z" fill="#ff956e" transform="scale(0.7135022784533831)"></path>
    </g><g transform="translate(1033.4852975944214 -100) rotate(0)">
        <animateTransform attributeName="transform" type="translate" keyTimes="0;1" values="1033.4852975944214 -100;1827 1056.4957678148546" dur="100s" repeatCount="indefinite" begin="-16.397901169833883s"></animateTransform>
        <animateTransform attributeName="transform" type="rotate" keyTimes="0;1" begin="-16.397901169833883s" values="0 50 50;166.88128562477206 50 50" dur="100s" repeatCount="indefinite" additive="sum"></animateTransform>
        <path d="M87.422,66.495c-2.009-0.544-4.049-0.97-6.107-1.283c10.617-11.116,15.747-27.37,13.129-42.549 c-5.236,1.77-10.223,4.252-14.824,7.313c-4.13,2.747-7.948,5.961-11.374,9.55C67.425,24.863,61.344,10.451,50.991,0 c-4.015,5.451-7.281,11.444-9.753,17.744c-3.579,9.122-5.501,18.893-5.669,28.691c-4.79-7.979-11.256-14.955-18.858-20.322 c-4.514-3.187-9.431-5.806-14.616-7.72c-3.361,16.717,2.731,35.015,15.445,46.379c0.369,0.33,0.745,0.654,1.126,0.972 c-2.359,0.411-4.689,0.983-6.969,1.714C7.582,68.775,3.634,70.61,0,72.945c8.85,9.963,23.134,14.771,36.208,12.186 c3.524-0.697,7.002-1.919,9.887-4.057c0.073-0.054,0.145-0.111,0.218-0.167c-0.987,5.662-2.714,11.136-5.104,16.221l7.509,2.806 c1.698-5.797,2.631-11.748,2.814-17.669c0.107,0.076,0.215,0.152,0.324,0.225c3.142,2.114,6.863,3.232,10.607,3.796 C76.352,88.379,91.161,82.628,100,71.71C96.061,69.427,91.816,67.684,87.422,66.495z" fill="#ffc46c" transform="scale(0.9007091908835027)"></path>
    </g><g transform="translate(1057.3543405378866 -100) rotate(0)">
        <animateTransform attributeName="transform" type="translate" keyTimes="0;1" values="1057.3543405378866 -100;3243.839113059076 992" dur="100s" repeatCount="indefinite" begin="-34.58678675189881s"></animateTransform>
        <animateTransform attributeName="transform" type="rotate" keyTimes="0;1" begin="-34.58678675189881s" values="0 50 50;880.7924752482195 50 50" dur="100s" repeatCount="indefinite" additive="sum"></animateTransform>
        <path d="M87.422,66.495c-2.009-0.544-4.049-0.97-6.107-1.283c10.617-11.116,15.747-27.37,13.129-42.549 c-5.236,1.77-10.223,4.252-14.824,7.313c-4.13,2.747-7.948,5.961-11.374,9.55C67.425,24.863,61.344,10.451,50.991,0 c-4.015,5.451-7.281,11.444-9.753,17.744c-3.579,9.122-5.501,18.893-5.669,28.691c-4.79-7.979-11.256-14.955-18.858-20.322 c-4.514-3.187-9.431-5.806-14.616-7.72c-3.361,16.717,2.731,35.015,15.445,46.379c0.369,0.33,0.745,0.654,1.126,0.972 c-2.359,0.411-4.689,0.983-6.969,1.714C7.582,68.775,3.634,70.61,0,72.945c8.85,9.963,23.134,14.771,36.208,12.186 c3.524-0.697,7.002-1.919,9.887-4.057c0.073-0.054,0.145-0.111,0.218-0.167c-0.987,5.662-2.714,11.136-5.104,16.221l7.509,2.806 c1.698-5.797,2.631-11.748,2.814-17.669c0.107,0.076,0.215,0.152,0.324,0.225c3.142,2.114,6.863,3.232,10.607,3.796 C76.352,88.379,91.161,82.628,100,71.71C96.061,69.427,91.816,67.684,87.422,66.495z" fill="#ff956e" transform="scale(0.7939140357793995)"></path>
    </g><g transform="translate(-100 3.5578801005886644) rotate(0)">
        <animateTransform attributeName="transform" type="translate" keyTimes="0;1" values="-100 3.5578801005886644;1720.2698601373042 992" dur="100s" repeatCount="indefinite" begin="-8.912789227751382s"></animateTransform>
        <animateTransform attributeName="transform" type="rotate" keyTimes="0;1" begin="-8.912789227751382s" values="0 50 50;695.2077722262601 50 50" dur="100s" repeatCount="indefinite" additive="sum"></animateTransform>
        <path d="M87.422,66.495c-2.009-0.544-4.049-0.97-6.107-1.283c10.617-11.116,15.747-27.37,13.129-42.549 c-5.236,1.77-10.223,4.252-14.824,7.313c-4.13,2.747-7.948,5.961-11.374,9.55C67.425,24.863,61.344,10.451,50.991,0 c-4.015,5.451-7.281,11.444-9.753,17.744c-3.579,9.122-5.501,18.893-5.669,28.691c-4.79-7.979-11.256-14.955-18.858-20.322 c-4.514-3.187-9.431-5.806-14.616-7.72c-3.361,16.717,2.731,35.015,15.445,46.379c0.369,0.33,0.745,0.654,1.126,0.972 c-2.359,0.411-4.689,0.983-6.969,1.714C7.582,68.775,3.634,70.61,0,72.945c8.85,9.963,23.134,14.771,36.208,12.186 c3.524-0.697,7.002-1.919,9.887-4.057c0.073-0.054,0.145-0.111,0.218-0.167c-0.987,5.662-2.714,11.136-5.104,16.221l7.509,2.806 c1.698-5.797,2.631-11.748,2.814-17.669c0.107,0.076,0.215,0.152,0.324,0.225c3.142,2.114,6.863,3.232,10.607,3.796 C76.352,88.379,91.161,82.628,100,71.71C96.061,69.427,91.816,67.684,87.422,66.495z" fill="#f86161" transform="scale(0.6428563844834221)"></path>
    </g><g transform="translate(1229.2675905058268 -100) rotate(0)">
        <animateTransform attributeName="transform" type="translate" keyTimes="0;1" values="1229.2675905058268 -100;1827 384.9508831769921" dur="100s" repeatCount="indefinite" begin="-19.332372510637153s"></animateTransform>
        <animateTransform attributeName="transform" type="rotate" keyTimes="0;1" begin="-19.332372510637153s" values="0 50 50;384.6826892857633 50 50" dur="100s" repeatCount="indefinite" additive="sum"></animateTransform>
        <path d="M87.422,66.495c-2.009-0.544-4.049-0.97-6.107-1.283c10.617-11.116,15.747-27.37,13.129-42.549 c-5.236,1.77-10.223,4.252-14.824,7.313c-4.13,2.747-7.948,5.961-11.374,9.55C67.425,24.863,61.344,10.451,50.991,0 c-4.015,5.451-7.281,11.444-9.753,17.744c-3.579,9.122-5.501,18.893-5.669,28.691c-4.79-7.979-11.256-14.955-18.858-20.322 c-4.514-3.187-9.431-5.806-14.616-7.72c-3.361,16.717,2.731,35.015,15.445,46.379c0.369,0.33,0.745,0.654,1.126,0.972 c-2.359,0.411-4.689,0.983-6.969,1.714C7.582,68.775,3.634,70.61,0,72.945c8.85,9.963,23.134,14.771,36.208,12.186 c3.524-0.697,7.002-1.919,9.887-4.057c0.073-0.054,0.145-0.111,0.218-0.167c-0.987,5.662-2.714,11.136-5.104,16.221l7.509,2.806 c1.698-5.797,2.631-11.748,2.814-17.669c0.107,0.076,0.215,0.152,0.324,0.225c3.142,2.114,6.863,3.232,10.607,3.796 C76.352,88.379,91.161,82.628,100,71.71C96.061,69.427,91.816,67.684,87.422,66.495z" fill="#ff9f32" transform="scale(0.8605994975258242)"></path>
    </g><g transform="translate(1456.9586792552086 -100) rotate(0)">
        <animateTransform attributeName="transform" type="translate" keyTimes="0;1" values="1456.9586792552086 -100;1827 790.173030175531" dur="100s" repeatCount="indefinite" begin="-37.09837559051934s"></animateTransform>
        <animateTransform attributeName="transform" type="rotate" keyTimes="0;1" begin="-37.09837559051934s" values="0 50 50;194.02238604713276 50 50" dur="100s" repeatCount="indefinite" additive="sum"></animateTransform>
        <path d="M87.422,66.495c-2.009-0.544-4.049-0.97-6.107-1.283c10.617-11.116,15.747-27.37,13.129-42.549 c-5.236,1.77-10.223,4.252-14.824,7.313c-4.13,2.747-7.948,5.961-11.374,9.55C67.425,24.863,61.344,10.451,50.991,0 c-4.015,5.451-7.281,11.444-9.753,17.744c-3.579,9.122-5.501,18.893-5.669,28.691c-4.79-7.979-11.256-14.955-18.858-20.322 c-4.514-3.187-9.431-5.806-14.616-7.72c-3.361,16.717,2.731,35.015,15.445,46.379c0.369,0.33,0.745,0.654,1.126,0.972 c-2.359,0.411-4.689,0.983-6.969,1.714C7.582,68.775,3.634,70.61,0,72.945c8.85,9.963,23.134,14.771,36.208,12.186 c3.524-0.697,7.002-1.919,9.887-4.057c0.073-0.054,0.145-0.111,0.218-0.167c-0.987,5.662-2.714,11.136-5.104,16.221l7.509,2.806 c1.698-5.797,2.631-11.748,2.814-17.669c0.107,0.076,0.215,0.152,0.324,0.225c3.142,2.114,6.863,3.232,10.607,3.796 C76.352,88.379,91.161,82.628,100,71.71C96.061,69.427,91.816,67.684,87.422,66.495z" fill="#ff956e" transform="scale(0.6362469693077726)"></path>
    </g><g transform="translate(-100 124.95706220255362) rotate(0)">
        <animateTransform attributeName="transform" type="translate" keyTimes="0;1" values="-100 124.95706220255362;1827 1408.6998559640906" dur="100s" repeatCount="indefinite" begin="-84.19424919639586s"></animateTransform>
        <animateTransform attributeName="transform" type="rotate" keyTimes="0;1" begin="-84.19424919639586s" values="0 50 50;291.6572240659947 50 50" dur="100s" repeatCount="indefinite" additive="sum"></animateTransform>
        <path d="M87.422,66.495c-2.009-0.544-4.049-0.97-6.107-1.283c10.617-11.116,15.747-27.37,13.129-42.549 c-5.236,1.77-10.223,4.252-14.824,7.313c-4.13,2.747-7.948,5.961-11.374,9.55C67.425,24.863,61.344,10.451,50.991,0 c-4.015,5.451-7.281,11.444-9.753,17.744c-3.579,9.122-5.501,18.893-5.669,28.691c-4.79-7.979-11.256-14.955-18.858-20.322 c-4.514-3.187-9.431-5.806-14.616-7.72c-3.361,16.717,2.731,35.015,15.445,46.379c0.369,0.33,0.745,0.654,1.126,0.972 c-2.359,0.411-4.689,0.983-6.969,1.714C7.582,68.775,3.634,70.61,0,72.945c8.85,9.963,23.134,14.771,36.208,12.186 c3.524-0.697,7.002-1.919,9.887-4.057c0.073-0.054,0.145-0.111,0.218-0.167c-0.987,5.662-2.714,11.136-5.104,16.221l7.509,2.806 c1.698-5.797,2.631-11.748,2.814-17.669c0.107,0.076,0.215,0.152,0.324,0.225c3.142,2.114,6.863,3.232,10.607,3.796 C76.352,88.379,91.161,82.628,100,71.71C96.061,69.427,91.816,67.684,87.422,66.495z" fill="#ff9f32" transform="scale(0.5316319231035889)"></path>
    </g><g transform="translate(874.1319852955339 -100) rotate(0)">
        <animateTransform attributeName="transform" type="translate" keyTimes="0;1" values="874.1319852955339 -100;3440.796230865477 992" dur="100s" repeatCount="indefinite" begin="-55.452619319060645s"></animateTransform>
        <animateTransform attributeName="transform" type="rotate" keyTimes="0;1" begin="-55.452619319060645s" values="0 50 50;617.0645014088104 50 50" dur="100s" repeatCount="indefinite" additive="sum"></animateTransform>
        <path d="M87.422,66.495c-2.009-0.544-4.049-0.97-6.107-1.283c10.617-11.116,15.747-27.37,13.129-42.549 c-5.236,1.77-10.223,4.252-14.824,7.313c-4.13,2.747-7.948,5.961-11.374,9.55C67.425,24.863,61.344,10.451,50.991,0 c-4.015,5.451-7.281,11.444-9.753,17.744c-3.579,9.122-5.501,18.893-5.669,28.691c-4.79-7.979-11.256-14.955-18.858-20.322 c-4.514-3.187-9.431-5.806-14.616-7.72c-3.361,16.717,2.731,35.015,15.445,46.379c0.369,0.33,0.745,0.654,1.126,0.972 c-2.359,0.411-4.689,0.983-6.969,1.714C7.582,68.775,3.634,70.61,0,72.945c8.85,9.963,23.134,14.771,36.208,12.186 c3.524-0.697,7.002-1.919,9.887-4.057c0.073-0.054,0.145-0.111,0.218-0.167c-0.987,5.662-2.714,11.136-5.104,16.221l7.509,2.806 c1.698-5.797,2.631-11.748,2.814-17.669c0.107,0.076,0.215,0.152,0.324,0.225c3.142,2.114,6.863,3.232,10.607,3.796 C76.352,88.379,91.161,82.628,100,71.71C96.061,69.427,91.816,67.684,87.422,66.495z" fill="#f86161" transform="scale(0.9698688224925203)"></path>
    </g><g transform="translate(-100 282.7566054139727) rotate(0)">
        <animateTransform attributeName="transform" type="translate" keyTimes="0;1" values="-100 282.7566054139727;1827 1601.7079391047948" dur="100s" repeatCount="indefinite" begin="-2.008751203070269s"></animateTransform>
        <animateTransform attributeName="transform" type="rotate" keyTimes="0;1" begin="-2.008751203070269s" values="0 50 50;942.7163975166965 50 50" dur="100s" repeatCount="indefinite" additive="sum"></animateTransform>
        <path d="M87.422,66.495c-2.009-0.544-4.049-0.97-6.107-1.283c10.617-11.116,15.747-27.37,13.129-42.549 c-5.236,1.77-10.223,4.252-14.824,7.313c-4.13,2.747-7.948,5.961-11.374,9.55C67.425,24.863,61.344,10.451,50.991,0 c-4.015,5.451-7.281,11.444-9.753,17.744c-3.579,9.122-5.501,18.893-5.669,28.691c-4.79-7.979-11.256-14.955-18.858-20.322 c-4.514-3.187-9.431-5.806-14.616-7.72c-3.361,16.717,2.731,35.015,15.445,46.379c0.369,0.33,0.745,0.654,1.126,0.972 c-2.359,0.411-4.689,0.983-6.969,1.714C7.582,68.775,3.634,70.61,0,72.945c8.85,9.963,23.134,14.771,36.208,12.186 c3.524-0.697,7.002-1.919,9.887-4.057c0.073-0.054,0.145-0.111,0.218-0.167c-0.987,5.662-2.714,11.136-5.104,16.221l7.509,2.806 c1.698-5.797,2.631-11.748,2.814-17.669c0.107,0.076,0.215,0.152,0.324,0.225c3.142,2.114,6.863,3.232,10.607,3.796 C76.352,88.379,91.161,82.628,100,71.71C96.061,69.427,91.816,67.684,87.422,66.495z" fill="#ff9f32" transform="scale(0.864495471717325)"></path>
    </g><g transform="translate(-100 243.6652222627077) rotate(0)">
        <animateTransform attributeName="transform" type="translate" keyTimes="0;1" values="-100 243.6652222627077;1930.130179755267 992" dur="100s" repeatCount="indefinite" begin="-34.61772834324195s"></animateTransform>
        <animateTransform attributeName="transform" type="rotate" keyTimes="0;1" begin="-34.61772834324195s" values="0 50 50;5.054755846289654 50 50" dur="100s" repeatCount="indefinite" additive="sum"></animateTransform>
        <path d="M87.422,66.495c-2.009-0.544-4.049-0.97-6.107-1.283c10.617-11.116,15.747-27.37,13.129-42.549 c-5.236,1.77-10.223,4.252-14.824,7.313c-4.13,2.747-7.948,5.961-11.374,9.55C67.425,24.863,61.344,10.451,50.991,0 c-4.015,5.451-7.281,11.444-9.753,17.744c-3.579,9.122-5.501,18.893-5.669,28.691c-4.79-7.979-11.256-14.955-18.858-20.322 c-4.514-3.187-9.431-5.806-14.616-7.72c-3.361,16.717,2.731,35.015,15.445,46.379c0.369,0.33,0.745,0.654,1.126,0.972 c-2.359,0.411-4.689,0.983-6.969,1.714C7.582,68.775,3.634,70.61,0,72.945c8.85,9.963,23.134,14.771,36.208,12.186 c3.524-0.697,7.002-1.919,9.887-4.057c0.073-0.054,0.145-0.111,0.218-0.167c-0.987,5.662-2.714,11.136-5.104,16.221l7.509,2.806 c1.698-5.797,2.631-11.748,2.814-17.669c0.107,0.076,0.215,0.152,0.324,0.225c3.142,2.114,6.863,3.232,10.607,3.796 C76.352,88.379,91.161,82.628,100,71.71C96.061,69.427,91.816,67.684,87.422,66.495z" fill="#ff9f32" transform="scale(1.0371012553089194)"></path>
    </g><g transform="translate(1042.0101119342141 -100) rotate(0)">
        <animateTransform attributeName="transform" type="translate" keyTimes="0;1" values="1042.0101119342141 -100;1827 488.7982129926007" dur="100s" repeatCount="indefinite" begin="-81.37358317416266s"></animateTransform>
        <animateTransform attributeName="transform" type="rotate" keyTimes="0;1" begin="-81.37358317416266s" values="0 50 50;804.4357336983214 50 50" dur="100s" repeatCount="indefinite" additive="sum"></animateTransform>
        <path d="M87.422,66.495c-2.009-0.544-4.049-0.97-6.107-1.283c10.617-11.116,15.747-27.37,13.129-42.549 c-5.236,1.77-10.223,4.252-14.824,7.313c-4.13,2.747-7.948,5.961-11.374,9.55C67.425,24.863,61.344,10.451,50.991,0 c-4.015,5.451-7.281,11.444-9.753,17.744c-3.579,9.122-5.501,18.893-5.669,28.691c-4.79-7.979-11.256-14.955-18.858-20.322 c-4.514-3.187-9.431-5.806-14.616-7.72c-3.361,16.717,2.731,35.015,15.445,46.379c0.369,0.33,0.745,0.654,1.126,0.972 c-2.359,0.411-4.689,0.983-6.969,1.714C7.582,68.775,3.634,70.61,0,72.945c8.85,9.963,23.134,14.771,36.208,12.186 c3.524-0.697,7.002-1.919,9.887-4.057c0.073-0.054,0.145-0.111,0.218-0.167c-0.987,5.662-2.714,11.136-5.104,16.221l7.509,2.806 c1.698-5.797,2.631-11.748,2.814-17.669c0.107,0.076,0.215,0.152,0.324,0.225c3.142,2.114,6.863,3.232,10.607,3.796 C76.352,88.379,91.161,82.628,100,71.71C96.061,69.427,91.816,67.684,87.422,66.495z" fill="#ff9f32" transform="scale(0.8163504636603334)"></path>
    </g><g transform="translate(368.56610134522083 -100) rotate(0)">
        <animateTransform attributeName="transform" type="translate" keyTimes="0;1" values="368.56610134522083 -100;1827 1104.0907042966808" dur="100s" repeatCount="indefinite" begin="-45.41622541683657s"></animateTransform>
        <animateTransform attributeName="transform" type="rotate" keyTimes="0;1" begin="-45.41622541683657s" values="0 50 50;530.9673973946749 50 50" dur="100s" repeatCount="indefinite" additive="sum"></animateTransform>
        <path d="M87.422,66.495c-2.009-0.544-4.049-0.97-6.107-1.283c10.617-11.116,15.747-27.37,13.129-42.549 c-5.236,1.77-10.223,4.252-14.824,7.313c-4.13,2.747-7.948,5.961-11.374,9.55C67.425,24.863,61.344,10.451,50.991,0 c-4.015,5.451-7.281,11.444-9.753,17.744c-3.579,9.122-5.501,18.893-5.669,28.691c-4.79-7.979-11.256-14.955-18.858-20.322 c-4.514-3.187-9.431-5.806-14.616-7.72c-3.361,16.717,2.731,35.015,15.445,46.379c0.369,0.33,0.745,0.654,1.126,0.972 c-2.359,0.411-4.689,0.983-6.969,1.714C7.582,68.775,3.634,70.61,0,72.945c8.85,9.963,23.134,14.771,36.208,12.186 c3.524-0.697,7.002-1.919,9.887-4.057c0.073-0.054,0.145-0.111,0.218-0.167c-0.987,5.662-2.714,11.136-5.104,16.221l7.509,2.806 c1.698-5.797,2.631-11.748,2.814-17.669c0.107,0.076,0.215,0.152,0.324,0.225c3.142,2.114,6.863,3.232,10.607,3.796 C76.352,88.379,91.161,82.628,100,71.71C96.061,69.427,91.816,67.684,87.422,66.495z" fill="#f86161" transform="scale(0.5394301477955875)"></path>
    </g><g transform="translate(-100 76.70445146629994) rotate(0)">
        <animateTransform attributeName="transform" type="translate" keyTimes="0;1" values="-100 76.70445146629994;799.4733942389067 992" dur="100s" repeatCount="indefinite" begin="-94.89382822945969s"></animateTransform>
        <animateTransform attributeName="transform" type="rotate" keyTimes="0;1" begin="-94.89382822945969s" values="0 50 50;119.72617595331018 50 50" dur="100s" repeatCount="indefinite" additive="sum"></animateTransform>
        <path d="M87.422,66.495c-2.009-0.544-4.049-0.97-6.107-1.283c10.617-11.116,15.747-27.37,13.129-42.549 c-5.236,1.77-10.223,4.252-14.824,7.313c-4.13,2.747-7.948,5.961-11.374,9.55C67.425,24.863,61.344,10.451,50.991,0 c-4.015,5.451-7.281,11.444-9.753,17.744c-3.579,9.122-5.501,18.893-5.669,28.691c-4.79-7.979-11.256-14.955-18.858-20.322 c-4.514-3.187-9.431-5.806-14.616-7.72c-3.361,16.717,2.731,35.015,15.445,46.379c0.369,0.33,0.745,0.654,1.126,0.972 c-2.359,0.411-4.689,0.983-6.969,1.714C7.582,68.775,3.634,70.61,0,72.945c8.85,9.963,23.134,14.771,36.208,12.186 c3.524-0.697,7.002-1.919,9.887-4.057c0.073-0.054,0.145-0.111,0.218-0.167c-0.987,5.662-2.714,11.136-5.104,16.221l7.509,2.806 c1.698-5.797,2.631-11.748,2.814-17.669c0.107,0.076,0.215,0.152,0.324,0.225c3.142,2.114,6.863,3.232,10.607,3.796 C76.352,88.379,91.161,82.628,100,71.71C96.061,69.427,91.816,67.684,87.422,66.495z" fill="#ffc46c" transform="scale(0.9068428154123596)"></path>
    </g><g transform="translate(1429.5899316807674 -100) rotate(0)">
        <animateTransform attributeName="transform" type="translate" keyTimes="0;1" values="1429.5899316807674 -100;3137.03518753155 992" dur="100s" repeatCount="indefinite" begin="-62.46698196911087s"></animateTransform>
        <animateTransform attributeName="transform" type="rotate" keyTimes="0;1" begin="-62.46698196911087s" values="0 50 50;799.0102214781662 50 50" dur="100s" repeatCount="indefinite" additive="sum"></animateTransform>
        <path d="M87.422,66.495c-2.009-0.544-4.049-0.97-6.107-1.283c10.617-11.116,15.747-27.37,13.129-42.549 c-5.236,1.77-10.223,4.252-14.824,7.313c-4.13,2.747-7.948,5.961-11.374,9.55C67.425,24.863,61.344,10.451,50.991,0 c-4.015,5.451-7.281,11.444-9.753,17.744c-3.579,9.122-5.501,18.893-5.669,28.691c-4.79-7.979-11.256-14.955-18.858-20.322 c-4.514-3.187-9.431-5.806-14.616-7.72c-3.361,16.717,2.731,35.015,15.445,46.379c0.369,0.33,0.745,0.654,1.126,0.972 c-2.359,0.411-4.689,0.983-6.969,1.714C7.582,68.775,3.634,70.61,0,72.945c8.85,9.963,23.134,14.771,36.208,12.186 c3.524-0.697,7.002-1.919,9.887-4.057c0.073-0.054,0.145-0.111,0.218-0.167c-0.987,5.662-2.714,11.136-5.104,16.221l7.509,2.806 c1.698-5.797,2.631-11.748,2.814-17.669c0.107,0.076,0.215,0.152,0.324,0.225c3.142,2.114,6.863,3.232,10.607,3.796 C76.352,88.379,91.161,82.628,100,71.71C96.061,69.427,91.816,67.684,87.422,66.495z" fill="#ff9f32" transform="scale(0.5540685190241513)"></path>
    </g><g transform="translate(-100 397.73796610437097) rotate(0)">
        <animateTransform attributeName="transform" type="translate" keyTimes="0;1" values="-100 397.73796610437097;1827 1383.3033943477642" dur="100s" repeatCount="indefinite" begin="-7.719643477949845s"></animateTransform>
        <animateTransform attributeName="transform" type="rotate" keyTimes="0;1" begin="-7.719643477949845s" values="0 50 50;289.8366939914703 50 50" dur="100s" repeatCount="indefinite" additive="sum"></animateTransform>
        <path d="M87.422,66.495c-2.009-0.544-4.049-0.97-6.107-1.283c10.617-11.116,15.747-27.37,13.129-42.549 c-5.236,1.77-10.223,4.252-14.824,7.313c-4.13,2.747-7.948,5.961-11.374,9.55C67.425,24.863,61.344,10.451,50.991,0 c-4.015,5.451-7.281,11.444-9.753,17.744c-3.579,9.122-5.501,18.893-5.669,28.691c-4.79-7.979-11.256-14.955-18.858-20.322 c-4.514-3.187-9.431-5.806-14.616-7.72c-3.361,16.717,2.731,35.015,15.445,46.379c0.369,0.33,0.745,0.654,1.126,0.972 c-2.359,0.411-4.689,0.983-6.969,1.714C7.582,68.775,3.634,70.61,0,72.945c8.85,9.963,23.134,14.771,36.208,12.186 c3.524-0.697,7.002-1.919,9.887-4.057c0.073-0.054,0.145-0.111,0.218-0.167c-0.987,5.662-2.714,11.136-5.104,16.221l7.509,2.806 c1.698-5.797,2.631-11.748,2.814-17.669c0.107,0.076,0.215,0.152,0.324,0.225c3.142,2.114,6.863,3.232,10.607,3.796 C76.352,88.379,91.161,82.628,100,71.71C96.061,69.427,91.816,67.684,87.422,66.495z" fill="#f86161" transform="scale(1.0954657281450293)"></path>
    </g><g transform="translate(-100 82.69313102822231) rotate(0)">
        <animateTransform attributeName="transform" type="translate" keyTimes="0;1" values="-100 82.69313102822231;1827 1245.7881742482612" dur="100s" repeatCount="indefinite" begin="-96.80497679704123s"></animateTransform>
        <animateTransform attributeName="transform" type="rotate" keyTimes="0;1" begin="-96.80497679704123s" values="0 50 50;543.0291674396461 50 50" dur="100s" repeatCount="indefinite" additive="sum"></animateTransform>
        <path d="M87.422,66.495c-2.009-0.544-4.049-0.97-6.107-1.283c10.617-11.116,15.747-27.37,13.129-42.549 c-5.236,1.77-10.223,4.252-14.824,7.313c-4.13,2.747-7.948,5.961-11.374,9.55C67.425,24.863,61.344,10.451,50.991,0 c-4.015,5.451-7.281,11.444-9.753,17.744c-3.579,9.122-5.501,18.893-5.669,28.691c-4.79-7.979-11.256-14.955-18.858-20.322 c-4.514-3.187-9.431-5.806-14.616-7.72c-3.361,16.717,2.731,35.015,15.445,46.379c0.369,0.33,0.745,0.654,1.126,0.972 c-2.359,0.411-4.689,0.983-6.969,1.714C7.582,68.775,3.634,70.61,0,72.945c8.85,9.963,23.134,14.771,36.208,12.186 c3.524-0.697,7.002-1.919,9.887-4.057c0.073-0.054,0.145-0.111,0.218-0.167c-0.987,5.662-2.714,11.136-5.104,16.221l7.509,2.806 c1.698-5.797,2.631-11.748,2.814-17.669c0.107,0.076,0.215,0.152,0.324,0.225c3.142,2.114,6.863,3.232,10.607,3.796 C76.352,88.379,91.161,82.628,100,71.71C96.061,69.427,91.816,67.684,87.422,66.495z" fill="#f86161" transform="scale(0.7607726207843319)"></path>
    </g><g transform="translate(-100 139.73009021004665) rotate(0)">
        <animateTransform attributeName="transform" type="translate" keyTimes="0;1" values="-100 139.73009021004665;2471.290748553878 992" dur="100s" repeatCount="indefinite" begin="-25.810954589609068s"></animateTransform>
        <animateTransform attributeName="transform" type="rotate" keyTimes="0;1" begin="-25.810954589609068s" values="0 50 50;987.0001031089488 50 50" dur="100s" repeatCount="indefinite" additive="sum"></animateTransform>
        <path d="M87.422,66.495c-2.009-0.544-4.049-0.97-6.107-1.283c10.617-11.116,15.747-27.37,13.129-42.549 c-5.236,1.77-10.223,4.252-14.824,7.313c-4.13,2.747-7.948,5.961-11.374,9.55C67.425,24.863,61.344,10.451,50.991,0 c-4.015,5.451-7.281,11.444-9.753,17.744c-3.579,9.122-5.501,18.893-5.669,28.691c-4.79-7.979-11.256-14.955-18.858-20.322 c-4.514-3.187-9.431-5.806-14.616-7.72c-3.361,16.717,2.731,35.015,15.445,46.379c0.369,0.33,0.745,0.654,1.126,0.972 c-2.359,0.411-4.689,0.983-6.969,1.714C7.582,68.775,3.634,70.61,0,72.945c8.85,9.963,23.134,14.771,36.208,12.186 c3.524-0.697,7.002-1.919,9.887-4.057c0.073-0.054,0.145-0.111,0.218-0.167c-0.987,5.662-2.714,11.136-5.104,16.221l7.509,2.806 c1.698-5.797,2.631-11.748,2.814-17.669c0.107,0.076,0.215,0.152,0.324,0.225c3.142,2.114,6.863,3.232,10.607,3.796 C76.352,88.379,91.161,82.628,100,71.71C96.061,69.427,91.816,67.684,87.422,66.495z" fill="#ff956e" transform="scale(0.7370684340218143)"></path>
    </g><g transform="translate(-100 202.90735544968908) rotate(0)">
        <animateTransform attributeName="transform" type="translate" keyTimes="0;1" values="-100 202.90735544968908;2291.2374388940293 992" dur="100s" repeatCount="indefinite" begin="-0.9385060006124935s"></animateTransform>
        <animateTransform attributeName="transform" type="rotate" keyTimes="0;1" begin="-0.9385060006124935s" values="0 50 50;853.8228919376129 50 50" dur="100s" repeatCount="indefinite" additive="sum"></animateTransform>
        <path d="M87.422,66.495c-2.009-0.544-4.049-0.97-6.107-1.283c10.617-11.116,15.747-27.37,13.129-42.549 c-5.236,1.77-10.223,4.252-14.824,7.313c-4.13,2.747-7.948,5.961-11.374,9.55C67.425,24.863,61.344,10.451,50.991,0 c-4.015,5.451-7.281,11.444-9.753,17.744c-3.579,9.122-5.501,18.893-5.669,28.691c-4.79-7.979-11.256-14.955-18.858-20.322 c-4.514-3.187-9.431-5.806-14.616-7.72c-3.361,16.717,2.731,35.015,15.445,46.379c0.369,0.33,0.745,0.654,1.126,0.972 c-2.359,0.411-4.689,0.983-6.969,1.714C7.582,68.775,3.634,70.61,0,72.945c8.85,9.963,23.134,14.771,36.208,12.186 c3.524-0.697,7.002-1.919,9.887-4.057c0.073-0.054,0.145-0.111,0.218-0.167c-0.987,5.662-2.714,11.136-5.104,16.221l7.509,2.806 c1.698-5.797,2.631-11.748,2.814-17.669c0.107,0.076,0.215,0.152,0.324,0.225c3.142,2.114,6.863,3.232,10.607,3.796 C76.352,88.379,91.161,82.628,100,71.71C96.061,69.427,91.816,67.684,87.422,66.495z" fill="#ff9f32" transform="scale(0.7172115956777753)"></path>
    </g><g transform="translate(1369.9750888632234 -100) rotate(0)">
        <animateTransform attributeName="transform" type="translate" keyTimes="0;1" values="1369.9750888632234 -100;2840.073443172436 992" dur="100s" repeatCount="indefinite" begin="-38.96555455184569s"></animateTransform>
        <animateTransform attributeName="transform" type="rotate" keyTimes="0;1" begin="-38.96555455184569s" values="0 50 50;792.693005985709 50 50" dur="100s" repeatCount="indefinite" additive="sum"></animateTransform>
        <path d="M87.422,66.495c-2.009-0.544-4.049-0.97-6.107-1.283c10.617-11.116,15.747-27.37,13.129-42.549 c-5.236,1.77-10.223,4.252-14.824,7.313c-4.13,2.747-7.948,5.961-11.374,9.55C67.425,24.863,61.344,10.451,50.991,0 c-4.015,5.451-7.281,11.444-9.753,17.744c-3.579,9.122-5.501,18.893-5.669,28.691c-4.79-7.979-11.256-14.955-18.858-20.322 c-4.514-3.187-9.431-5.806-14.616-7.72c-3.361,16.717,2.731,35.015,15.445,46.379c0.369,0.33,0.745,0.654,1.126,0.972 c-2.359,0.411-4.689,0.983-6.969,1.714C7.582,68.775,3.634,70.61,0,72.945c8.85,9.963,23.134,14.771,36.208,12.186 c3.524-0.697,7.002-1.919,9.887-4.057c0.073-0.054,0.145-0.111,0.218-0.167c-0.987,5.662-2.714,11.136-5.104,16.221l7.509,2.806 c1.698-5.797,2.631-11.748,2.814-17.669c0.107,0.076,0.215,0.152,0.324,0.225c3.142,2.114,6.863,3.232,10.607,3.796 C76.352,88.379,91.161,82.628,100,71.71C96.061,69.427,91.816,67.684,87.422,66.495z" fill="#ffc46c" transform="scale(0.7812466156438826)"></path>
    </g><g transform="translate(-100 436.75036614464955) rotate(0)">
        <animateTransform attributeName="transform" type="translate" keyTimes="0;1" values="-100 436.75036614464955;1077.435698146284 992" dur="100s" repeatCount="indefinite" begin="-30.671459251506207s"></animateTransform>
        <animateTransform attributeName="transform" type="rotate" keyTimes="0;1" begin="-30.671459251506207s" values="0 50 50;886.9278285866436 50 50" dur="100s" repeatCount="indefinite" additive="sum"></animateTransform>
        <path d="M87.422,66.495c-2.009-0.544-4.049-0.97-6.107-1.283c10.617-11.116,15.747-27.37,13.129-42.549 c-5.236,1.77-10.223,4.252-14.824,7.313c-4.13,2.747-7.948,5.961-11.374,9.55C67.425,24.863,61.344,10.451,50.991,0 c-4.015,5.451-7.281,11.444-9.753,17.744c-3.579,9.122-5.501,18.893-5.669,28.691c-4.79-7.979-11.256-14.955-18.858-20.322 c-4.514-3.187-9.431-5.806-14.616-7.72c-3.361,16.717,2.731,35.015,15.445,46.379c0.369,0.33,0.745,0.654,1.126,0.972 c-2.359,0.411-4.689,0.983-6.969,1.714C7.582,68.775,3.634,70.61,0,72.945c8.85,9.963,23.134,14.771,36.208,12.186 c3.524-0.697,7.002-1.919,9.887-4.057c0.073-0.054,0.145-0.111,0.218-0.167c-0.987,5.662-2.714,11.136-5.104,16.221l7.509,2.806 c1.698-5.797,2.631-11.748,2.814-17.669c0.107,0.076,0.215,0.152,0.324,0.225c3.142,2.114,6.863,3.232,10.607,3.796 C76.352,88.379,91.161,82.628,100,71.71C96.061,69.427,91.816,67.684,87.422,66.495z" fill="#f86161" transform="scale(1.0418716444174358)"></path>
    </g><g transform="translate(-100 428.2832710203726) rotate(0)">
        <animateTransform attributeName="transform" type="translate" keyTimes="0;1" values="-100 428.2832710203726;1827 1347.9810272307363" dur="100s" repeatCount="indefinite" begin="-1.726366708857885s"></animateTransform>
        <animateTransform attributeName="transform" type="rotate" keyTimes="0;1" begin="-1.726366708857885s" values="0 50 50;290.1368618946951 50 50" dur="100s" repeatCount="indefinite" additive="sum"></animateTransform>
        <path d="M87.422,66.495c-2.009-0.544-4.049-0.97-6.107-1.283c10.617-11.116,15.747-27.37,13.129-42.549 c-5.236,1.77-10.223,4.252-14.824,7.313c-4.13,2.747-7.948,5.961-11.374,9.55C67.425,24.863,61.344,10.451,50.991,0 c-4.015,5.451-7.281,11.444-9.753,17.744c-3.579,9.122-5.501,18.893-5.669,28.691c-4.79-7.979-11.256-14.955-18.858-20.322 c-4.514-3.187-9.431-5.806-14.616-7.72c-3.361,16.717,2.731,35.015,15.445,46.379c0.369,0.33,0.745,0.654,1.126,0.972 c-2.359,0.411-4.689,0.983-6.969,1.714C7.582,68.775,3.634,70.61,0,72.945c8.85,9.963,23.134,14.771,36.208,12.186 c3.524-0.697,7.002-1.919,9.887-4.057c0.073-0.054,0.145-0.111,0.218-0.167c-0.987,5.662-2.714,11.136-5.104,16.221l7.509,2.806 c1.698-5.797,2.631-11.748,2.814-17.669c0.107,0.076,0.215,0.152,0.324,0.225c3.142,2.114,6.863,3.232,10.607,3.796 C76.352,88.379,91.161,82.628,100,71.71C96.061,69.427,91.816,67.684,87.422,66.495z" fill="#ffc46c" transform="scale(0.7260193399833024)"></path>
    </g><g transform="translate(22.91413790426731 -100) rotate(0)">
        <animateTransform attributeName="transform" type="translate" keyTimes="0;1" values="22.91413790426731 -100;1685.9871447247422 992" dur="100s" repeatCount="indefinite" begin="-24.079840458225664s"></animateTransform>
        <animateTransform attributeName="transform" type="rotate" keyTimes="0;1" begin="-24.079840458225664s" values="0 50 50;591.9266422177669 50 50" dur="100s" repeatCount="indefinite" additive="sum"></animateTransform>
        <path d="M87.422,66.495c-2.009-0.544-4.049-0.97-6.107-1.283c10.617-11.116,15.747-27.37,13.129-42.549 c-5.236,1.77-10.223,4.252-14.824,7.313c-4.13,2.747-7.948,5.961-11.374,9.55C67.425,24.863,61.344,10.451,50.991,0 c-4.015,5.451-7.281,11.444-9.753,17.744c-3.579,9.122-5.501,18.893-5.669,28.691c-4.79-7.979-11.256-14.955-18.858-20.322 c-4.514-3.187-9.431-5.806-14.616-7.72c-3.361,16.717,2.731,35.015,15.445,46.379c0.369,0.33,0.745,0.654,1.126,0.972 c-2.359,0.411-4.689,0.983-6.969,1.714C7.582,68.775,3.634,70.61,0,72.945c8.85,9.963,23.134,14.771,36.208,12.186 c3.524-0.697,7.002-1.919,9.887-4.057c0.073-0.054,0.145-0.111,0.218-0.167c-0.987,5.662-2.714,11.136-5.104,16.221l7.509,2.806 c1.698-5.797,2.631-11.748,2.814-17.669c0.107,0.076,0.215,0.152,0.324,0.225c3.142,2.114,6.863,3.232,10.607,3.796 C76.352,88.379,91.161,82.628,100,71.71C96.061,69.427,91.816,67.684,87.422,66.495z" fill="#ff9f32" transform="scale(1.0341033431646174)"></path>
    </g><g transform="translate(-100 238.2395485300431) rotate(0)">
        <animateTransform attributeName="transform" type="translate" keyTimes="0;1" values="-100 238.2395485300431;1827 989.3847857467266" dur="100s" repeatCount="indefinite" begin="-62.05835053803717s"></animateTransform>
        <animateTransform attributeName="transform" type="rotate" keyTimes="0;1" begin="-62.05835053803717s" values="0 50 50;575.8275804043794 50 50" dur="100s" repeatCount="indefinite" additive="sum"></animateTransform>
        <path d="M87.422,66.495c-2.009-0.544-4.049-0.97-6.107-1.283c10.617-11.116,15.747-27.37,13.129-42.549 c-5.236,1.77-10.223,4.252-14.824,7.313c-4.13,2.747-7.948,5.961-11.374,9.55C67.425,24.863,61.344,10.451,50.991,0 c-4.015,5.451-7.281,11.444-9.753,17.744c-3.579,9.122-5.501,18.893-5.669,28.691c-4.79-7.979-11.256-14.955-18.858-20.322 c-4.514-3.187-9.431-5.806-14.616-7.72c-3.361,16.717,2.731,35.015,15.445,46.379c0.369,0.33,0.745,0.654,1.126,0.972 c-2.359,0.411-4.689,0.983-6.969,1.714C7.582,68.775,3.634,70.61,0,72.945c8.85,9.963,23.134,14.771,36.208,12.186 c3.524-0.697,7.002-1.919,9.887-4.057c0.073-0.054,0.145-0.111,0.218-0.167c-0.987,5.662-2.714,11.136-5.104,16.221l7.509,2.806 c1.698-5.797,2.631-11.748,2.814-17.669c0.107,0.076,0.215,0.152,0.324,0.225c3.142,2.114,6.863,3.232,10.607,3.796 C76.352,88.379,91.161,82.628,100,71.71C96.061,69.427,91.816,67.684,87.422,66.495z" fill="#f86161" transform="scale(1.0116153495673341)"></path>
    </g><g transform="translate(-100 249.1517131182823) rotate(0)">
        <animateTransform attributeName="transform" type="translate" keyTimes="0;1" values="-100 249.1517131182823;1827 1250.3931966638293" dur="100s" repeatCount="indefinite" begin="-85.11593464894003s"></animateTransform>
        <animateTransform attributeName="transform" type="rotate" keyTimes="0;1" begin="-85.11593464894003s" values="0 50 50;1012.8153457149833 50 50" dur="100s" repeatCount="indefinite" additive="sum"></animateTransform>
        <path d="M87.422,66.495c-2.009-0.544-4.049-0.97-6.107-1.283c10.617-11.116,15.747-27.37,13.129-42.549 c-5.236,1.77-10.223,4.252-14.824,7.313c-4.13,2.747-7.948,5.961-11.374,9.55C67.425,24.863,61.344,10.451,50.991,0 c-4.015,5.451-7.281,11.444-9.753,17.744c-3.579,9.122-5.501,18.893-5.669,28.691c-4.79-7.979-11.256-14.955-18.858-20.322 c-4.514-3.187-9.431-5.806-14.616-7.72c-3.361,16.717,2.731,35.015,15.445,46.379c0.369,0.33,0.745,0.654,1.126,0.972 c-2.359,0.411-4.689,0.983-6.969,1.714C7.582,68.775,3.634,70.61,0,72.945c8.85,9.963,23.134,14.771,36.208,12.186 c3.524-0.697,7.002-1.919,9.887-4.057c0.073-0.054,0.145-0.111,0.218-0.167c-0.987,5.662-2.714,11.136-5.104,16.221l7.509,2.806 c1.698-5.797,2.631-11.748,2.814-17.669c0.107,0.076,0.215,0.152,0.324,0.225c3.142,2.114,6.863,3.232,10.607,3.796 C76.352,88.379,91.161,82.628,100,71.71C96.061,69.427,91.816,67.684,87.422,66.495z" fill="#f86161" transform="scale(0.6090185502564398)"></path>
    </g></g>
</svg>